<?xml version="1.0" encoding="UTF-8" standalone="no"?>
<!-- Created with Inkscape (http://www.inkscape.org/) -->

<svg
   width="230"
   height="110"
   viewBox="0 0 60.854165 29.104167"
   version="1.1"
   id="svg1273"
   inkscape:version="1.2.2 (732a01da63, 2022-12-09)"
   sodipodi:docname="koatWeb.svg"
   xmlns:inkscape="http://www.inkscape.org/namespaces/inkscape"
   xmlns:sodipodi="http://sodipodi.sourceforge.net/DTD/sodipodi-0.dtd"
   xmlns="http://www.w3.org/2000/svg"
   xmlns:svg="http://www.w3.org/2000/svg">
  <sodipodi:namedview
     id="namedview1275"
     pagecolor="#ffffff"
     bordercolor="#000000"
     borderopacity="0.25"
     inkscape:showpageshadow="2"
     inkscape:pageopacity="0.0"
     inkscape:pagecheckerboard="0"
     inkscape:deskcolor="#d1d1d1"
     inkscape:document-units="mm"
     showgrid="false"
     inkscape:zoom="2.0812827"
     inkscape:cx="116.51469"
     inkscape:cy="97.295769"
     inkscape:window-width="1920"
     inkscape:window-height="1013"
     inkscape:window-x="-9"
     inkscape:window-y="-9"
     inkscape:window-maximized="1"
     inkscape:current-layer="layer1" />
  <defs
     id="defs1270" />
  <g
     inkscape:label="Layer 1"
     inkscape:groupmode="layer"
     id="layer1">
    <g
       id="g1268"
       transform="translate(390.75986,-60.283384)"
       style="display:inline">
      <path
         d="m -371.20676,60.440064 c -2.00361,0.01798 -3.7402,1.544224 -4.0625,3.509766 -0.39446,2.025887 0.81627,4.102781 2.77344,4.759765 1.45963,0.537163 3.04839,0.09237 4.1875,-0.933593 v 4.595703 l -12.77734,0.0059 c -0.0117,4.07e-4 -0.0235,0.0011 -0.0352,0.002 -3.94562,0.175947 -7.10352,3.446558 -7.10352,7.431553 v 1.980469 c 0,4.097489 3.34175,7.439454 7.43945,7.439454 h 40.90625 c 4.09771,0 7.4375,-3.341967 7.4375,-7.439454 v -1.980469 c 0,-3.356824 -2.2342,-6.207289 -5.30273,-7.126953 -0.0295,-0.0089 -0.0595,-0.01607 -0.0898,-0.02148 l -1.54102,-0.269531 c -0.0496,-0.0087 -0.1,-0.0126 -0.15039,-0.01172 h -0.002 l -14.41015,-0.0098 h -0.002 -11.03897 v -5.042969 c 0.0781,3.32e-4 0.15618,-2.39e-4 0.23437,0 0.003,-0.0013 0.006,-0.0026 0.01,-0.0039 0.0565,0.114405 0.11655,0.237219 0.18555,0.380859 0.17757,0.36962 0.35338,0.746895 0.48242,0.980469 0.0399,0.07225 0.0782,0.133641 0.13282,0.205078 0.0273,0.03572 0.054,0.07332 0.12109,0.134766 0.0335,0.03072 0.0723,0.0688 0.16992,0.121093 0.0488,0.02615 0.21563,0.07983 0.2168,0.08008 0.001,2.43e-4 0.4113,-0.02488 0.41601,-0.02539 1.1e-4,-3.7e-5 0.18151,-0.08585 0.18164,-0.08594 9e-5,-5.2e-5 0.0313,-0.02417 0.0586,-0.04492 0.11809,0.08718 0.25804,0.139918 0.4043,0.152343 2.4e-4,0 0.20284,-0.02531 0.20313,-0.02539 2.8e-4,-7.5e-5 0.12271,-0.04282 0.12304,-0.04297 6.6e-4,-2.96e-4 0.099,-0.05304 0.12696,-0.07227 0.056,-0.03845 0.0798,-0.06156 0.0996,-0.08008 0.0396,-0.03703 0.0542,-0.05585 0.0703,-0.07422 0.0322,-0.03674 0.0542,-0.06388 0.0762,-0.0918 0.0439,-0.05584 0.0903,-0.116834 0.0937,-0.121094 0.22853,-0.29658 0.21876,-0.712522 -0.0234,-0.998047 0.0274,-0.05706 0.0624,-0.130636 0.0625,-0.130859 5e-5,-1.65e-4 0.0391,-0.197127 0.0391,-0.197266 0,-1.39e-4 -0.041,-0.298715 -0.041,-0.298828 -2e-5,-3.4e-5 -0.0206,-0.04026 -0.0371,-0.07227 0.23075,-0.09215 0.46778,-0.142171 0.67968,-0.335937 1.26079,-1.031037 1.20983,-3.042977 -0.1289,-3.990235 -0.37194,-0.267085 -0.91355,-0.583291 -1.60547,-0.496093 l 0.10156,-0.0059 c -1.74706,-0.0068 -3.49324,-0.01256 -5.24023,-0.01953 -0.79132,-1.020965 -1.94876,-1.763177 -3.30079,-1.728516 -0.0473,-0.0013 -0.0935,-0.0024 -0.14062,-0.002 z"
         style="color:#000000;fill:#ffffff;stroke:none;stroke-linejoin:round;-inkscape-stroke:none"
         id="path3914" />
      <g
         id="g1083"
         transform="translate(-400.77188,99.664317)">
        <g
           id="g435"
           transform="matrix(0.14602013,0,0,0.14602013,44.553989,-55.434593)"
           style="display:inline">
          <g
             id="g431"
             transform="matrix(0.92043898,0,0,0.92043898,-86.315765,-68.386601)"
             style="fill:#ff0000;fill-opacity:1;stroke:#000000;stroke-width:0.143727;stroke-dasharray:none" />
        </g>
        <g
           id="g449"
           transform="translate(11.334932,-11.226725)">
          <path
             style="color:#000000;fill:#000000;stroke-width:0.969219;stroke-linejoin:round;-inkscape-stroke:none"
             d="m 8.3509082,-15.265217 c -3.528706,0.157436 -6.344315,3.071524 -6.344315,6.63887 v 1.980241 C 2.0065932,-2.977994 4.9830502,0 8.6511482,0 H 49.55718 c 3.66811,0 6.64456,-2.977995 6.64456,-6.646106 v -1.980241 c 0,-3.004931 -1.99831,-5.545158 -4.73718,-6.366019 l -1.55241,-0.272329 c 0.0287,7.88e-4 0.0558,0.0021 -0.002,0.0021 l -13.14597,-0.0093 -1.26607,-9.2e-5 H 21.058136 l -1.265555,-5.18e-4 H 10.03762 Z"
             id="path441"
             sodipodi:nodetypes="cssssssccccccccc" />
          <path
             id="path443"
             style="color:#000000;fill:#aa072d;fill-opacity:1;stroke-width:0.969219;stroke-linejoin:round;-inkscape-stroke:none"
             d="m 8.6501179,-13.722185 c -2.8364832,0 -5.093746,2.259322 -5.093746,5.095812 v 1.980241 c 0,2.836491 2.2572628,5.095813 5.093746,5.095813 H 49.556148 c 2.836483,0 5.095813,-2.259322 5.095813,-5.095813 v -1.980241 c 0,-2.83649 -2.25933,-5.095813 -5.095813,-5.095813 z" />
          <g
             id="g447"
             transform="matrix(1.7905009,0,0,1.7905009,-24.119565,-36.721326)"
             style="fill:#ffffff">
            <path
               id="path445"
               style="fill:#ffffff;stroke-width:0.865405;stroke-linejoin:round"
               d="m 41.203211,14.730877 h 0.790862 v 1.121458 h 1.121459 v 0.783528 h -1.121459 v 1.121458 h -0.790862 v -1.121458 h -1.121459 v -0.783528 h 1.121459 z m -24.867523,0.04689 h 0.41128 v 1.293567 l 0.541213,-1.293567 h 0.458172 l -0.534926,1.101549 0.621635,1.640667 h -0.458171 l -0.389537,-1.175685 -0.238386,0.490655 v 0.68503 h -0.41128 z m 4.922524,0 h 0.411018 v 1.03082 c 0.0367,-0.07758 0.08319,-0.139731 0.139626,-0.185993 0.0767,-0.06287 0.162738,-0.09405 0.258294,-0.09405 0.130761,0 0.230794,0.04376 0.299947,0.131767 0.07041,0.08801 0.10557,0.215189 0.10557,0.381155 v 1.478512 h -0.411018 v -1.365345 c 0,-0.08172 -0.01656,-0.142877 -0.04925,-0.183111 -0.03269,-0.04149 -0.08158,-0.06208 -0.14696,-0.06208 -0.06538,0 -0.114532,0.02059 -0.147223,0.06208 -0.03269,0.04149 -0.04899,0.103796 -0.04899,0.186779 v 1.361677 h -0.411018 z m 4.382883,0 h 0.239433 v 0.388489 h -0.198043 c -0.04149,0 -0.07351,0.01457 -0.09614,0.04349 -0.02138,0.02892 -0.03196,0.06665 -0.03196,0.113167 v 0.239433 h 0.326142 v 0.367795 h -0.326142 v 1.589846 h -0.41128 v -1.589846 h -0.184683 v -0.367795 h 0.184683 v -0.265891 c 0,-0.172252 0.04087,-0.301734 0.122598,-0.388489 0.08173,-0.08676 0.206911,-0.130195 0.375391,-0.130195 z m 2.7988,0 h 0.41128 v 2.185809 c 0,0.05029 0.01116,0.08944 0.03379,0.117097 0.02389,0.0264 0.05732,0.03956 0.100069,0.03956 h 0.08278 v 0.399754 h -0.16032 c -0.148364,0 -0.263278,-0.04517 -0.345004,-0.135696 -0.08173,-0.09053 -0.122598,-0.218286 -0.122598,-0.382988 z m 0.89198,0 h 0.41128 v 2.185809 c 0,0.05029 0.01116,0.08944 0.03379,0.117097 0.02389,0.0264 0.05732,0.03956 0.100069,0.03956 h 0.08304 v 0.399754 h -0.160321 c -0.148356,0 -0.263539,-0.04517 -0.345265,-0.135696 -0.08173,-0.09053 -0.122598,-0.218287 -0.122598,-0.382988 z m 1.461747,0 h 1.350413 v 0.394252 h -0.469698 v 2.347964 H 31.263319 V 15.17202 h -0.469697 z m 4.91676,0 H 36.1214 v 2.742216 H 35.710382 V 17.28317 c -0.03261,0.07488 -0.07594,0.135558 -0.130195,0.182064 -0.07041,0.05909 -0.153307,0.08881 -0.248863,0.08881 -0.0855,0 -0.159226,-0.02201 -0.220834,-0.06601 -0.06035,-0.04401 -0.106673,-0.107464 -0.139364,-0.190447 -0.03143,-0.08424 -0.04715,-0.185687 -0.04715,-0.303875 v -0.895648 c 0,-0.119445 0.01572,-0.222045 0.04715,-0.307543 0.03269,-0.0855 0.07901,-0.150108 0.139364,-0.194114 0.06161,-0.04526 0.135336,-0.06785 0.220834,-0.06785 0.08801,0 0.168344,0.0306 0.241266,0.09221 0.05324,0.04498 0.09929,0.103084 0.137792,0.174205 z m -16.253419,0.01336 h 0.41128 v 0.409184 h -0.41128 z m 0.820464,0.201711 h 0.411018 v 0.569504 h 0.267987 v 0.382989 h -0.267987 v 1.027676 c 0,0.05029 0.01142,0.08944 0.03405,0.117097 0.02263,0.0264 0.05465,0.03956 0.09614,0.03956 h 0.137792 v 0.399754 h -0.194375 c -0.167223,0 -0.289841,-0.04345 -0.367795,-0.130195 -0.07795,-0.08676 -0.116835,-0.216238 -0.116835,-0.38849 v -1.065398 h -0.184945 v -0.382989 h 0.184945 z M 18.51783,15.52855 c 0.125732,0 0.233206,0.02431 0.322475,0.07335 0.08927,0.04903 0.157024,0.120772 0.203544,0.21507 0.04778,0.0943 0.07178,0.208061 0.07178,0.341337 v 0.533878 h -0.792173 v 0.2431 c 0,0.07544 0.01771,0.134023 0.05292,0.175515 0.03646,0.04023 0.0885,0.06025 0.156391,0.06025 0.06161,0 0.108769,-0.01572 0.141459,-0.04715 0.03395,-0.03143 0.05108,-0.0766 0.05108,-0.135697 v -0.03956 l 0.396086,0.0018 v 0.03379 c 0,0.179796 -0.05173,0.318973 -0.154819,0.417043 -0.1031,0.09807 -0.247726,0.146961 -0.433809,0.146961 -0.128246,0 -0.23745,-0.02459 -0.327976,-0.07361 -0.09053,-0.04904 -0.159696,-0.119934 -0.207474,-0.212975 -0.04778,-0.0943 -0.07178,-0.207485 -0.07178,-0.339503 V 16.19049 c 0,-0.139562 0.02342,-0.259036 0.06994,-0.358364 0.04652,-0.09933 0.113699,-0.174785 0.201711,-0.226335 0.08927,-0.05155 0.196167,-0.07728 0.320641,-0.07728 z m 5.641085,0 c 0.0074,-1.67e-4 0.01498,0 0.02253,0 0.120702,0 0.223617,0.02117 0.309115,0.06392 0.0855,0.04149 0.15037,0.10322 0.194376,0.184945 0.04525,0.08047 0.06785,0.177944 0.06785,0.292349 v 0.93337 c 0,0.114416 -0.0226,0.21272 -0.06785,0.294445 -0.04401,0.08173 -0.108879,0.143768 -0.194376,0.186517 -0.0855,0.04275 -0.188413,0.06418 -0.309115,0.06418 -0.120703,0 -0.224456,-0.02143 -0.311211,-0.06418 -0.0855,-0.04401 -0.150946,-0.106887 -0.196209,-0.188612 -0.04526,-0.08298 -0.06785,-0.182178 -0.06785,-0.297851 v -0.927869 c 0,-0.114405 0.02258,-0.21188 0.06785,-0.292349 0.04526,-0.08173 0.110712,-0.143453 0.196209,-0.184945 0.08133,-0.04008 0.177513,-0.06141 0.288682,-0.06392 z m 3.296527,0 c 0.124475,0 0.230796,0.02259 0.318808,0.06785 0.08801,0.04401 0.154613,0.109193 0.199877,0.195948 0.04652,0.0855 0.06968,0.188675 0.06968,0.309377 v 1.418261 H 27.649556 V 17.32718 c -0.0035,0.0092 -0.0073,0.01832 -0.01126,0.02698 -0.02892,0.06412 -0.07152,0.112437 -0.1281,0.145127 -0.05658,0.03269 -0.125748,0.04899 -0.207473,0.04899 -0.153393,0 -0.269722,-0.04658 -0.348933,-0.139626 -0.07795,-0.09304 -0.116835,-0.231379 -0.116835,-0.414947 0,-0.215001 0.05203,-0.377077 0.156391,-0.486463 0.105614,-0.109387 0.261664,-0.163988 0.467864,-0.163988 h 0.18835 v -0.241529 c 0,-0.06538 -0.01745,-0.115685 -0.05265,-0.15089 -0.03521,-0.03646 -0.08494,-0.05475 -0.149056,-0.05475 -0.05532,0 -0.09877,0.01829 -0.130195,0.05475 -0.03018,0.03521 -0.04506,0.08551 -0.04506,0.15089 h -0.396086 c 0,-0.182311 0.0503,-0.323217 0.15089,-0.422545 0.101842,-0.100577 0.244485,-0.150628 0.428045,-0.150628 z m 5.640824,0 v 0.426212 h -0.03956 -0.05265 c -0.128246,0 -0.228855,0.03458 -0.30178,0.103737 -0.07167,0.0679 -0.108243,0.161378 -0.1095,0.280823 v 1.180662 h -0.411018 v -1.957641 h 0.411018 v 0.271655 c 0.05345,-0.08513 0.117714,-0.153759 0.192542,-0.20564 0.0943,-0.06664 0.19779,-0.09981 0.310949,-0.09981 z m 0.882811,0 c 0.124474,0 0.230536,0.02259 0.318545,0.06785 0.08801,0.04401 0.154876,0.109193 0.200139,0.195948 0.04652,0.0855 0.06968,0.188675 0.06968,0.309377 v 1.418261 h -0.39425 V 17.32718 c -0.0035,0.0092 -0.0073,0.01832 -0.01127,0.02698 -0.02892,0.06412 -0.07152,0.112437 -0.128099,0.145127 -0.05658,0.03269 -0.125748,0.04899 -0.207474,0.04899 -0.153392,0 -0.269722,-0.04658 -0.348933,-0.139626 -0.07795,-0.09304 -0.117097,-0.231379 -0.117097,-0.414947 0,-0.215001 0.0523,-0.377077 0.156653,-0.486463 0.105615,-0.109387 0.261402,-0.163988 0.467602,-0.163988 h 0.188613 v -0.241529 c 0,-0.06538 -0.01745,-0.115685 -0.05266,-0.15089 -0.0352,-0.03646 -0.08493,-0.05475 -0.149056,-0.05475 -0.05532,0 -0.09876,0.01829 -0.130195,0.05475 -0.03018,0.03521 -0.04532,0.08551 -0.04532,0.15089 H 33.40013 c 0,-0.182311 0.05004,-0.323217 0.150628,-0.422545 0.101843,-0.100582 0.24474,-0.150628 0.428308,-0.150628 z m 3.091149,0 c 0.125732,0 0.233206,0.02431 0.322475,0.07335 0.08927,0.04903 0.157024,0.120772 0.203544,0.21507 0.04778,0.0943 0.07178,0.208061 0.07178,0.341337 v 0.533878 H 36.87585 v 0.2431 c 0,0.07544 0.01771,0.134023 0.05292,0.175515 0.03646,0.04023 0.0885,0.06025 0.156391,0.06025 0.06161,0 0.108769,-0.01572 0.141459,-0.04715 0.03395,-0.03143 0.05108,-0.0766 0.05108,-0.135697 v -0.03956 l 0.395824,0.0018 v 0.03379 c 0,0.179796 -0.05146,0.318973 -0.154557,0.417043 -0.1031,0.09807 -0.247727,0.146961 -0.433809,0.146961 -0.128246,0 -0.237449,-0.02458 -0.327976,-0.07361 -0.09053,-0.04904 -0.159696,-0.119934 -0.207474,-0.212975 -0.04778,-0.0943 -0.07178,-0.207485 -0.07178,-0.339503 V 16.19049 c 0,-0.139562 0.02316,-0.259036 0.06968,-0.358364 0.04652,-0.09933 0.113961,-0.174785 0.201973,-0.226335 0.08927,-0.05155 0.196167,-0.07728 0.320641,-0.07728 z m 1.45022,0 c 0.114417,0 0.213873,0.02259 0.298113,0.06785 0.08424,0.04526 0.149427,0.110712 0.195947,0.19621 0.04652,0.08424 0.06994,0.182858 0.06994,0.296017 v 0.02253 l -0.394252,0.0018 v -0.0262 c 0,-0.05909 -0.01514,-0.105678 -0.04532,-0.139626 -0.03017,-0.03395 -0.07162,-0.05082 -0.124432,-0.05082 -0.05155,0 -0.09242,0.01886 -0.122598,0.05658 -0.03017,0.03646 -0.04532,0.08677 -0.04532,0.15089 0,0.05029 0.012,0.09232 0.03589,0.126266 0.02515,0.03269 0.05716,0.05842 0.09614,0.07728 0.03898,0.01886 0.08986,0.03888 0.152723,0.06025 0.0025,0.0012 0.0051,0.0027 0.0076,0.0039 0.0025,0 0.0051,5.84e-4 0.0076,0.0018 0.0025,0.0013 0.0051,0.0024 0.0076,0.0037 0.0025,0 0.0042,5.83e-4 0.0055,0.0018 0.09807,0.03269 0.178663,0.06811 0.241529,0.105833 0.06412,0.03646 0.118148,0.09363 0.162154,0.171585 0.04526,0.0767 0.06785,0.18045 0.06785,0.311211 0,0.11693 -0.02458,0.219268 -0.07361,0.307281 -0.04904,0.08801 -0.118781,0.156028 -0.209307,0.203806 -0.09053,0.04652 -0.196586,0.06968 -0.318546,0.06968 -0.120702,0 -0.226447,-0.02374 -0.316973,-0.07152 -0.09053,-0.04903 -0.160849,-0.118204 -0.211142,-0.207474 -0.04904,-0.08927 -0.07361,-0.193861 -0.07361,-0.313306 v -0.02253 l 0.392157,-0.0018 v 0.02253 c 0,0.06915 0.01886,0.124593 0.05658,0.166084 0.03772,0.04023 0.08886,0.06025 0.152985,0.06025 0.06412,0 0.114428,-0.01944 0.15089,-0.05842 0.03772,-0.03898 0.05658,-0.09043 0.05658,-0.154557 0,-0.04778 -0.012,-0.0875 -0.03589,-0.118931 -0.02389,-0.03143 -0.05418,-0.05659 -0.09064,-0.07545 -0.03646,-0.01886 -0.08792,-0.04087 -0.154557,-0.06602 -0.0075,-0.0025 -0.01582,-0.0051 -0.02462,-0.0076 -0.0075,-0.0038 -0.01556,-0.0069 -0.02436,-0.0094 -0.0025,-0.0012 -0.0056,-0.0024 -0.0094,-0.0037 -0.0038,-0.0013 -0.0069,-0.0024 -0.0094,-0.0037 -0.0855,-0.0352 -0.159225,-0.07351 -0.220834,-0.115001 -0.06161,-0.04275 -0.113066,-0.101333 -0.154557,-0.175515 -0.04023,-0.07544 -0.06025,-0.170336 -0.06025,-0.284752 0,-0.115673 0.02258,-0.217436 0.06785,-0.305448 0.04652,-0.08801 0.111707,-0.155451 0.195947,-0.201972 0.0855,-0.04778 0.184954,-0.07152 0.298112,-0.07152 z m -19.063483,0.03379 h 0.41128 v 1.957641 h -0.41128 z m -0.939133,0.335835 c -0.06287,0 -0.111441,0.02374 -0.145389,0.07152 -0.03269,0.04652 -0.04899,0.113122 -0.04899,0.199877 v 0.20564 h 0.396087 V 16.15071 c 0,-0.08047 -0.01745,-0.142511 -0.05265,-0.186517 -0.03521,-0.04401 -0.08493,-0.06602 -0.149056,-0.06602 z m 18.552396,0 c -0.06287,0 -0.111441,0.02374 -0.145389,0.07152 -0.03269,0.04652 -0.04899,0.113122 -0.04899,0.199877 v 0.20564 h 0.396087 V 16.15071 c 0,-0.08047 -0.01771,-0.142511 -0.05292,-0.186517 -0.0352,-0.04401 -0.08467,-0.06602 -0.148794,-0.06602 z m -1.548456,0.0094 c -0.06035,0 -0.107514,0.02059 -0.141459,0.06208 -0.03395,0.04149 -0.05082,0.100078 -0.05082,0.175514 v 0.808938 c 0,0.06915 0.01687,0.123178 0.05082,0.162155 0.03395,0.03772 0.08111,0.05658 0.141459,0.05658 0.04023,0 0.07424,-0.0086 0.101903,-0.0262 0.02766,-0.0176 0.04883,-0.04359 0.06392,-0.07754 0.01509,-0.03395 0.02279,-0.0754 0.02279,-0.124432 v -0.803437 c 0,-0.04903 -0.0077,-0.09106 -0.02279,-0.126266 -0.01509,-0.0352 -0.03626,-0.06151 -0.06392,-0.07911 -0.02766,-0.01886 -0.06167,-0.02829 -0.101903,-0.02829 z m -11.34216,0.0037 c -0.05029,0 -0.09059,0.0163 -0.120764,0.04899 -0.02892,0.03269 -0.04349,0.07812 -0.04349,0.135959 v 0.878619 c 0,0.06035 0.01457,0.106936 0.04349,0.139626 0.02892,0.03269 0.06921,0.04899 0.120764,0.04899 0.05281,0 0.09284,-0.01572 0.120503,-0.04715 0.02892,-0.03269 0.04349,-0.07985 0.04349,-0.14146 V 16.09623 c 0,-0.05909 -0.01457,-0.104526 -0.04349,-0.135959 -0.02766,-0.03269 -0.0677,-0.04899 -0.120503,-0.04899 z m 3.294694,0.776978 c -0.08173,0 -0.143454,0.02573 -0.184945,0.07728 -0.04149,0.05155 -0.06208,0.127583 -0.06208,0.228169 0,0.06664 0.01572,0.116942 0.04715,0.15089 0.03143,0.03269 0.07803,0.04925 0.139625,0.04925 0.0767,0 0.135019,-0.02143 0.175253,-0.06418 0.04023,-0.04275 0.06025,-0.106206 0.06025,-0.190446 v -0.25096 z m 6.523634,0 c -0.08173,0 -0.143453,0.02573 -0.184945,0.07728 -0.04149,0.05155 -0.06208,0.127583 -0.06208,0.228169 0,0.06664 0.01572,0.116942 0.04715,0.15089 0.03143,0.03269 0.07776,0.04925 0.139364,0.04925 0.0767,0 0.13528,-0.02143 0.175514,-0.06418 0.04023,-0.04275 0.06025,-0.106206 0.06025,-0.190446 v -0.25096 z"
               sodipodi:nodetypes="ccccccccccccccccccccccccccccccscsccscsssccccccscsccccccccccssccccscsccssscccscsccsscccccccccccccccccsccssccsscccccccccccccscsccscsccccccccsccscscsccscsccssscccssccsscssccssccsscccsccccsscscscscscccccccccsccccccccscsccsccccsscscscscsccccsscccsccscscsccsssccsssccccscsccscscscscccccccsccsccsccscscssscccscccscccccccccccsccscccccsccsccccssscsssssscccccsssscssccccsscscsccssscssscs" />
          </g>
        </g>
        <g
           id="g457"
           transform="matrix(0.42033616,0,0,0.42033616,-1.77926,-133.23768)"
           style="display:inline">
          <g
             id="g453">
            <path
               id="path451"
               style="fill:#000000;stroke:none;stroke-width:0.0846667"
               d="m 74.949762,225.55615 c -3.918129,-0.16672 -7.573535,2.93329 -8.193575,6.77861 -0.769335,3.84875 1.647593,8.00091 5.376434,9.23136 3.088371,1.14531 6.79335,0.17578 8.937284,-2.32702 0.509187,-0.38562 0.627874,-1.33337 1.414964,-1.09319 2.487319,-0.0176 4.975355,0.0116 7.462653,0.0192 -0.345887,-0.69393 -1.284672,-2.22727 0.181132,-1.37661 1.253168,0.40234 2.463914,1.01188 3.727065,1.32547 1.394105,0.022 2.934166,0.0173 4.019008,-1.00582 2.026728,-1.59854 1.94692,-5.05545 -0.168347,-6.54847 -0.724641,-0.52108 -1.576748,-0.96122 -2.491103,-0.84599 -4.388626,-0.0172 -8.778613,-0.0336 -13.167257,-0.0512 -1.458869,-2.46633 -4.195765,-4.18078 -7.098258,-4.10637 z m -0.505039,1.01647 v 1.68986 1.68772 l -0.456028,-0.0106 c -0.251169,-0.006 -0.544181,-0.0282 -0.649945,-0.049 -0.105762,-0.0208 -0.548235,-0.10822 -0.984508,-0.19392 -0.436241,-0.0856 -0.794851,-0.17511 -0.794851,-0.20031 0,-0.0252 0.161423,-0.35258 0.358003,-0.72666 0.550043,-1.0468 1.646702,-1.92474 2.527329,-2.19703 z m 0.673386,0 c 0.568383,0.16673 1.284514,0.55452 1.749525,1.05696 0.463114,0.50038 1.133676,1.57819 1.133676,1.82198 0,0.0545 -0.292767,0.16599 -0.649946,0.24719 -0.35717,0.0812 -1.004514,0.1768 -1.440535,0.2131 l -0.79272,0.0661 v -1.70265 z m -2.959916,0.49438 c 0.03885,-6.2e-4 -0.09862,0.22347 -0.306859,0.49865 -0.208259,0.27515 -0.51718,0.77298 -0.686172,1.10597 -0.169012,0.33298 -0.332636,0.60394 -0.364396,0.60094 -0.120691,-0.0122 -1.067854,-0.51714 -1.063354,-0.56684 0.01773,-0.1983 2.138601,-1.63472 2.420781,-1.63872 z m 5.269886,0.0405 c 0.0026,-7.4e-4 0.0063,-4.6e-4 0.01065,0 0.06078,0.006 0.322697,0.1255 0.635029,0.28981 0.69896,0.36773 1.753787,1.15068 1.753787,1.30203 0,0.051 -0.161844,0.17482 -0.360133,0.27489 -0.708249,0.35734 -0.718756,0.35411 -1.007949,-0.26637 -0.144733,-0.31056 -0.435607,-0.78425 -0.647814,-1.0527 -0.212205,-0.26835 -0.387837,-0.5125 -0.387837,-0.5434 0,-0.001 0.0016,-0.004 0.0043,-0.004 z m -8.199968,2.17785 1.370213,0.70748 c -0.107529,0.41829 -0.416985,1.94452 -0.449635,2.43357 l -0.05967,0.88861 h -1.199735 -1.199736 l 0.06393,-0.57323 c 0.11266,-0.99563 0.925876,-2.79867 1.474631,-3.45643 z m 11.130051,0.0128 0.215228,0.25358 c 0.56069,0.66029 1.144021,2.14962 1.314807,3.35628 l 0.05754,0.40701 h -1.184819 -1.184819 l -0.117203,-0.9845 c -0.06362,-0.54205 -0.195534,-1.29648 -0.294074,-1.67708 l -0.179001,-0.69256 0.686172,-0.33243 z m -9.069404,0.87583 0.735184,0.17687 c 0.405211,0.0977 1.116347,0.2068 1.579048,0.2408 l 0.841733,0.0618 v 2.66158 h -1.826241 -1.828371 l 0.0021,-0.40701 c 9.25e-4,-0.52061 0.305381,-2.04295 0.496516,-2.73403 z m 7.017281,0 0.08524,0.21949 c 0.101831,0.26782 0.343555,1.60687 0.428325,2.36963 l 0.0618,0.55192 H 76.995497 75.11172 l 0.05327,-2.6424 0.873698,-0.0724 c 0.480185,-0.0398 1.186969,-0.15202 1.570524,-0.24932 z m 17.26511,1.83902 0.129989,0.44751 c 0.0711,0.24695 0.191933,0.70686 0.270633,1.02286 0.0787,0.316 0.160362,0.55997 0.179002,0.54127 0.0186,-0.0186 0.155501,-0.46711 0.306859,-0.9973 l 0.277026,-0.96533 0.313253,-0.0256 c 0.173148,-0.0144 0.315383,0.007 0.315383,0.049 0,0.0699 -0.226394,0.8635 -0.72666,2.53798 l -0.210966,0.69896 h -0.326039 -0.326038 l -0.174739,-0.65634 c -0.096,-0.36089 -0.221376,-0.84118 -0.277026,-1.06762 -0.12344,-0.50213 -0.151072,-0.4568 -0.46029,0.77141 l -0.238668,0.95255 h -0.319645 c -0.17507,0 -0.337506,-0.0354 -0.364396,-0.0789 -0.0592,-0.0958 -0.977915,-3.06789 -0.978115,-3.16449 -8e-5,-0.0379 0.177401,-0.0547 0.394229,-0.0405 l 0.39423,0.0234 0.283419,0.96746 c 0.155488,0.53143 0.295642,0.9797 0.313252,0.9973 0.0176,0.0176 0.142957,-0.41629 0.279157,-0.96533 l 0.249323,-0.99943 0.349479,-0.0234 z m -9.644765,0.006 c 0.006,-1e-5 0.01278,0.001 0.01918,0.002 0.0474,0.002 0.106443,0.01 0.181133,0.0149 l 0.35161,0.0277 0.268502,1.01434 c 0.147406,0.5588 0.289133,0.96064 0.315383,0.89074 0.0263,-0.0699 0.162677,-0.52065 0.300467,-1.00155 0.13779,-0.48091 0.267031,-0.89352 0.289811,-0.91632 0.0228,-0.0225 0.171541,-0.0297 0.330301,-0.0149 l 0.289811,0.0277 -0.475206,1.60675 -0.475206,1.60888 h -0.334562 -0.334562 l -0.272764,-1.00582 c -0.15046,-0.55405 -0.28883,-1.02404 -0.30686,-1.04204 -0.018,-0.018 -0.115748,0.30266 -0.217358,0.71174 -0.37416,1.50646 -0.312557,1.37874 -0.684041,1.37874 -0.18172,0 -0.344389,-0.0269 -0.364396,-0.0618 -0.01443,-0.0252 -0.202306,-0.62027 -0.414167,-1.30371 -0.203707,-0.65712 -0.429585,-1.39592 -0.544769,-1.78833 -0.03716,-0.12661 0.01582,-0.14711 0.364396,-0.14703 H 84.6201 l 0.289811,1.01434 c 0.159268,0.55857 0.306979,1.00147 0.326039,0.98237 0.0191,-0.0191 0.110322,-0.33402 0.202442,-0.69895 0.288636,-1.14338 0.300722,-1.29948 0.487992,-1.29989 z m 4.566666,0.002 v 0.002 0.002 0.002 c 0.0126,-4.8e-4 0.02589,-2.9e-4 0.04049,0 0.0437,8.6e-4 0.09692,-0.002 0.161953,0.002 l 0.347348,0.0277 0.253585,0.99303 c 0.139568,0.54666 0.271683,0.97924 0.291943,0.95894 0.0203,-0.0203 0.160272,-0.46876 0.311122,-0.99516 l 0.274895,-0.95681 0.306859,-0.0277 c 0.21275,-0.0181 0.30906,0.009 0.30686,0.0852 -0.002,0.061 -0.206677,0.79628 -0.453897,1.63445 l -0.447503,1.52578 -0.340955,0.0213 -0.338824,0.0256 -0.187526,-0.74371 c -0.341217,-1.37382 -0.356923,-1.42497 -0.426193,-1.2935 -0.0358,0.0679 -0.170166,0.55226 -0.298336,1.07614 l -0.232276,0.95254 h -0.323907 c -0.17819,0 -0.341485,-0.0269 -0.362265,-0.0618 -0.047,-0.0789 -0.986638,-3.12143 -0.986638,-3.19433 0,-0.0294 0.17795,-0.0419 0.39636,-0.0277 l 0.39636,0.0277 0.266371,0.88862 c 0.14609,0.48895 0.28358,0.94524 0.30686,1.01434 0.0374,0.11082 0.133275,-0.19606 0.494385,-1.5897 0.0703,-0.27148 0.09127,-0.34248 0.24293,-0.34948 z m -22.803499,2.06277 h 1.214652 1.212522 v 0.52635 c 0,0.45786 0.258772,2.00163 0.438979,2.61896 0.05413,0.18545 -0.01747,0.24702 -0.596671,0.52209 -0.36233,0.17206 -0.680332,0.32689 -0.707482,0.34309 -0.05941,0.0355 -0.569843,-0.73421 -0.841732,-1.27006 -0.300057,-0.59122 -0.584329,-1.52859 -0.656339,-2.16506 z m 3.10056,0 h 1.828371 1.826241 v 2.69355 l -0.554052,0.002 c -0.304069,0.002 -0.875589,0.0651 -1.272189,0.13851 -0.396601,0.0734 -0.856892,0.16228 -1.022865,0.19818 -0.279514,0.0605 -0.311251,0.041 -0.411277,-0.26211 -0.158745,-0.48105 -0.394038,-1.89019 -0.394229,-2.36111 z m 4.321605,0 H 76.9891 c 1.43952,0 1.877452,0.0294 1.875252,0.12147 -0.009,0.36483 -0.208399,1.65494 -0.349479,2.25883 -0.183589,0.78591 -0.163855,0.77558 -1.088925,0.54126 -0.290837,-0.0737 -0.919875,-0.16507 -1.395784,-0.20457 l -0.865174,-0.0724 z m 4.46438,0 h 1.184819 1.184819 l -0.05754,0.40915 c -0.120693,0.83317 -0.352321,1.58288 -0.716005,2.33128 -0.205558,0.42304 -0.473069,0.88685 -0.594541,1.02926 l -0.219489,0.25785 c -0.455262,-0.23528 -0.909489,-0.47255 -1.36382,-0.70962 l 0.172608,-0.67338 c 0.0959,-0.37018 0.228013,-1.11585 0.291943,-1.6579 z m -5.131373,3.3371 c 0,0 -0.01023,3.39237 -0.02344,3.39037 -0.591621,-0.10388 -1.410146,-0.65357 -1.915741,-1.2871 -0.324581,-0.40671 -0.94615,-1.47735 -0.94615,-1.63019 0,-0.0864 1.391573,-0.35874 2.128838,-0.41554 z m 0.673386,0 0.756494,0.0575 c 0.931852,0.0719 2.126707,0.33731 2.126707,0.47094 0,0.21846 -0.640791,1.28216 -1.039913,1.72609 -0.233468,0.2597 -0.603929,0.57564 -0.822554,0.70322 -0.503396,0.29383 -0.888658,0.44102 -0.963198,0.36652 -0.03187,-0.0319 -0.05754,-3.32431 -0.05754,-3.32431 z m -4.28751,0.70109 c 0.02817,0 0.161538,0.23719 0.298336,0.52635 0.136799,0.28917 0.442848,0.78699 0.677648,1.10597 0.234812,0.31898 0.415863,0.5785 0.402753,0.5775 -0.323111,-0.0286 -1.794542,-0.96871 -2.220469,-1.41923 l -0.270633,-0.28768 0.530611,-0.25145 c 0.291851,-0.13806 0.553594,-0.25146 0.581754,-0.25146 z m 7.997527,0.0469 c 0.02598,-0.001 -0.03089,-0.009 0,0 0.354208,0.10922 0.999424,0.43622 0.999424,0.52422 0,0.0475 -0.247863,0.28433 -0.551921,0.52635 -0.519639,0.41361 -1.851812,1.1863 -1.851812,1.07401 0,-0.0283 0.173201,-0.27829 0.383575,-0.55618 0.210376,-0.27795 0.500951,-0.75646 0.645683,-1.06123 0.180027,-0.37908 0.262421,-0.50217 0.375051,-0.50717 z M 91.168567,238.31 c -0.0056,0 0.002,0.005 0.01705,0.0128 -0.0075,-0.008 -0.01282,-0.0128 -0.01705,-0.0128 z m 0.01705,0.0128 c 0.204175,0.21418 1.583228,3.24985 2.02229,4.04458 0.112116,0.20297 0.232531,0.36077 0.266371,0.34948 0.0339,-0.0113 0.439158,-0.95333 0.571099,-1.29563 0.0165,-0.0165 1.15436,0.89836 1.555608,1.25088 0.036,0 0.307949,-0.37115 0.415539,-0.50504 -0.37938,-0.30721 -1.444797,-1.2799 -1.444797,-1.31694 0.340276,-0.18252 1.228223,-0.73495 1.216783,-0.76928 -0.02058,-0.0618 -4.300738,-1.61138 -4.602893,-1.75805 z"
               sodipodi:nodetypes="ccccccccccccccsccscssccsssscccsssccssscsssssscccccccccssccccccccccscccccccccccccsscccsscccscccccsccssscccsccccscccccsccccccccssssssccssssccccscssscccccccccsccssscccssccccssssscccccccssccccscsscccccccsccccccccssccccsssscsssccccsccssssscccscssccscsccsccccsc" />
          </g>
          <g
             id="g455"
             transform="translate(-27.764365,-18.010781)" />
        </g>
        <path
           style="font-variation-settings:'wght' 700;fill:none;fill-opacity:1;stroke:#000000;stroke-width:1.74261;stroke-linejoin:round"
           d="m 34.128568,-25.468109 v -7.777476"
           id="path461"
           sodipodi:nodetypes="cc" />
      </g>
    </g>
  </g>
</svg>
