<?xml version="1.0" encoding="UTF-8" standalone="no"?>
<!-- Created with Inkscape (http://www.inkscape.org/) -->

<svg
   width="230"
   height="110"
   viewBox="0 0 60.854165 29.104167"
   version="1.1"
   id="svg328"
   inkscape:version="1.2.2 (732a01da63, 2022-12-09)"
   sodipodi:docname="koatHandy.svg"
   xml:space="preserve"
   xmlns:inkscape="http://www.inkscape.org/namespaces/inkscape"
   xmlns:sodipodi="http://sodipodi.sourceforge.net/DTD/sodipodi-0.dtd"
   xmlns="http://www.w3.org/2000/svg"
   xmlns:svg="http://www.w3.org/2000/svg"><sodipodi:namedview
     id="namedview330"
     pagecolor="#ffffff"
     bordercolor="#000000"
     borderopacity="0.25"
     inkscape:showpageshadow="2"
     inkscape:pageopacity="0.0"
     inkscape:pagecheckerboard="0"
     inkscape:deskcolor="#d1d1d1"
     inkscape:document-units="mm"
     showgrid="true"
     inkscape:zoom="2.0812826"
     inkscape:cx="149.18685"
     inkscape:cy="22.582229"
     inkscape:window-width="1366"
     inkscape:window-height="715"
     inkscape:window-x="-8"
     inkscape:window-y="-8"
     inkscape:window-maximized="1"
     inkscape:current-layer="layer1"
     inkscape:lockguides="false"
     showguides="true" /><defs
     id="defs325" /><g
     inkscape:label="Layer 1"
     inkscape:groupmode="layer"
     id="layer1"><g
       id="g1954"
       transform="translate(163.80752,11.932842)"
       style="display:inline"><path
         d="m -105.69268,-11.830063 c -0.2354,7.46e-4 -0.44265,0.02466 -0.69299,0.111622 -0.28606,0.09952 -0.56832,0.275997 -0.7829,0.489892 -0.0185,0.01839 -0.0159,0.05159 -0.0336,0.0708 -0.0659,-0.05717 -0.13773,-0.12909 -0.19534,-0.166398 -0.0919,-0.05951 -0.18712,-0.112334 -0.2868,-0.163815 -0.19936,-0.10296 -0.39158,-0.195106 -0.63511,-0.257865 -0.22216,-0.05731 -0.44855,-0.08344 -0.67334,-0.0801 -0.57836,0.0084 -1.14349,0.21235 -1.63711,0.556555 -0.24991,0.174252 -0.34334,0.292628 -0.5488,0.494026 -0.20547,0.201399 -0.41421,0.414003 -0.56224,0.583944 -0.0494,0.05673 -0.13574,0.139765 -0.21291,0.326595 -0.0443,0.107336 -0.0354,0.157984 -0.0429,0.232027 -0.19184,0.01341 -0.37244,0.09612 -0.50798,0.232544 l -0.23254,0.24443 -0.23255,0.243913 c -0.28793,0.302454 -0.29212,0.776455 -0.01,1.084171 l 0.13696,0.148312 c 0.0948,0.103515 0.29487,0.31238 0.47852,0.501778 l 0.32815,0.337964 c 0.31344,0.323828 0.83287,0.322339 1.14411,-0.0036 l 0.23668,-0.248047 0.23616,-0.248047 c 0.0632,-0.06748 0.11405,-0.145484 0.15038,-0.230476 0.0227,0.01228 0.005,0.01504 0.0879,0.04082 0.001,3.64e-4 8.6e-4,-3.59e-4 0.002,0 0.0326,0.01009 0.0279,-0.0028 0.0548,0.0036 l 0.10542,0.113688 c -0.15286,0.147383 -0.30685,0.299806 -0.44751,0.427365 -0.21293,0.193079 -0.46348,0.36955 -0.45166,0.373103 -0.0461,0.02418 -0.0574,0.02745 -0.35088,0.115239 -0.88229,0.263928 -1.39725,1.167447 -1.24023,2.064473 l -0.004,-0.02119 v 0.04082 c 0.002,0.01237 -0.008,0.02278 -0.006,0.03514 v 0.0021 c 0.002,0.0083 0.004,0.01507 0.006,0.02326 v 4.574398 c -0.0156,-0.0018 -0.0308,-0.0033 -0.0465,-0.0041 l -41.5587,-0.0015 c -0.0117,-2.6e-4 -0.0234,-2.6e-4 -0.0351,0 -3.9456,0.176036 -7.10344,3.446606 -7.10344,7.431588 v 1.980241 c 0,4.097484 3.34165,7.439339 7.43934,7.439339 h 40.90396 c 4.09771,0 7.43986,-3.341865 7.43986,-7.439339 V 7.648966 c 0,-2.792006 -1.57996,-5.184645 -3.8654,-6.45542 V -3.67334 c 0.15724,-0.209874 0.31526,-0.435527 0.37879,-0.680062 10e-4,-0.0043 0.12535,-0.25806 0.34003,-0.5271 0.12324,-0.154451 0.30171,-0.3335 0.46302,-0.505912 l 0.64027,0.695565 c 0.35345,0.388212 0.68181,0.745817 0.92759,1.011307 0.12313,0.133013 0.22518,0.24195 0.30127,0.322461 0.038,0.04026 0.0688,0.07435 0.0956,0.101803 0.0134,0.01373 0.026,0.02432 0.0408,0.03876 0.0146,0.01416 -0.005,0.01093 0.10542,0.08992 0.29704,0.210984 0.71777,0.231698 1.01958,0.09974 0.24998,-0.109626 0.20107,-0.122829 0.23822,-0.154513 0.0371,-0.03168 0.0704,-0.06012 0.10542,-0.09353 0.0702,-0.06682 0.14702,-0.145691 0.22686,-0.230477 0.0966,-0.102587 0.18251,-0.183245 0.28681,-0.328145 0.1043,-0.144901 0.2471,-0.449615 0.19947,-0.761711 -0.0476,-0.312095 -0.19406,-0.476692 -0.30076,-0.599963 -0.10671,-0.123272 -0.21365,-0.22394 -0.34778,-0.357085 -0.17132,-0.170067 -0.965,-0.956543 -1.69705,-1.681551 0.0159,-0.01558 0.0266,-0.02741 0.0429,-0.04341 0.18693,-0.183786 0.28842,-0.278903 0.32608,-0.310058 0.0376,-0.03115 0.005,-0.0099 0.0822,-0.04909 0.0964,-0.04901 0.16468,-0.07158 0.31058,-0.08785 0.30754,-0.03427 0.62401,-0.129434 0.88263,-0.283187 0.7031,-0.417877 1.0962,-1.190122 0.99425,-2.006079 l -0.0155,-0.115238 c -0.1251,-0.491041 -0.67199,-0.740747 -1.12499,-0.513664 0.25406,-0.466097 -0.0126,-1.045156 -0.53175,-1.156002 l -0.0956,-0.01395 c -0.0848,-0.01233 -0.16461,-0.01789 -0.24753,-0.01757 z"
         style="color:#000000;fill:#ffffff;stroke:none;stroke-linejoin:round;-inkscape-stroke:none"
         id="path3845" /><g
         id="g1943"
         transform="translate(-172.21589,-100.55464)"><path
           id="path1885"
           style="display:inline;fill:#000000;stroke-width:0.0198584"
           d="m 66.527945,89.516195 c -0.14391,3.6e-4 -0.318974,0.02596 -0.436149,0.06666 -0.192816,0.06708 -0.337701,0.15782 -0.482658,0.302307 -0.221118,0.220409 -0.337315,0.472531 -0.371553,0.806153 -0.01155,0.112665 -0.04422,0.268403 -0.07545,0.361218 -0.102165,0.304022 -0.17331,0.403657 -0.592212,0.827857 -0.211106,0.213763 -0.383439,0.392676 -0.383439,0.397908 0,0.0055 0.180226,0.189785 0.401009,0.409794 0.337471,0.336285 0.406383,0.396143 0.432015,0.376205 0.0168,-0.0132 0.182774,-0.173496 0.368453,-0.356051 0.377465,-0.371126 0.422279,-0.408072 0.605648,-0.501261 0.179097,-0.09104 0.359573,-0.143272 0.580843,-0.167949 0.238832,-0.02661 0.397633,-0.07589 0.566374,-0.176216 0.41903,-0.249044 0.669912,-0.752269 0.610815,-1.225249 l -0.01447,-0.115238 -0.42013,0.420129 c -0.322099,0.321832 -0.432364,0.42013 -0.470255,0.42013 -0.06204,0 -0.656179,-0.195404 -0.689881,-0.22686 -0.02096,-0.0196 -0.263033,-0.683916 -0.263033,-0.72192 0,-0.0074 0.19361,-0.20667 0.429948,-0.4439 l 0.429432,-0.431498 -0.09508,-0.01395 c -0.03783,-0.0055 -0.08225,-0.0085 -0.130225,-0.0083 z m -3.292822,0.0041 c -0.400924,0.0057 -0.810468,0.146162 -1.193726,0.413411 -0.136529,0.0952 -0.736844,0.683606 -0.967382,0.948263 -0.08648,0.09928 -0.09165,0.112342 -0.09457,0.22841 -0.008,0.31096 -0.257491,0.568096 -0.564307,0.581359 l -0.127641,0.0057 -0.232027,0.24443 -0.232544,0.244946 0.136426,0.148828 c 0.07503,0.08193 0.2835,0.300598 0.463538,0.486276 l 0.327628,0.337964 0.237195,-0.248564 0.237195,-0.248047 -0.0026,-0.09922 c -0.0063,-0.281137 0.198149,-0.546245 0.468188,-0.606681 l 0.10542,-0.02377 0.217041,0.159163 c 0.11949,0.08738 0.236681,0.164866 0.26045,0.172083 0.02373,0.0074 0.07464,-4.45e-4 0.113171,-0.01654 l 0.07028,-0.02894 0.0021,0.0021 0.58136,-0.620634 -0.0021,-0.0026 0.02791,-0.05323 c 0.01539,-0.02938 0.0279,-0.07359 0.0279,-0.09818 6.3e-5,-0.02463 -0.119798,-0.222781 -0.267167,-0.441834 l -0.267149,-0.397394 0.133325,-0.110588 c 0.268139,-0.221666 0.522794,-0.359182 0.772046,-0.417028 0.191628,-0.04446 0.475538,-0.03918 0.67076,0.0124 0.172622,0.04556 0.242396,0.04099 0.345199,-0.0217 0.05671,-0.03465 0.06238,-0.0447 0.04031,-0.07131 -0.0942,-0.11349 -0.570521,-0.359543 -0.821658,-0.424263 -0.152327,-0.03929 -0.307687,-0.05716 -0.464571,-0.05478 z m -0.0098,2.300635 -0.586527,0.626318 2.645833,2.876827 c 0.706004,0.775466 1.312052,1.430119 1.346688,1.454691 0.06914,0.04908 0.156281,0.05608 0.240812,0.01912 0.03011,-0.0132 0.170159,-0.146442 0.311092,-0.296105 0.395072,-0.419561 0.397861,-0.402446 -0.143679,-0.939994 -0.220361,-0.218745 -1.210695,-1.199642 -2.200899,-2.180229 z m -0.01757,1.444356 c 0.0059,-0.0084 -0.129588,0.12353 -0.122473,0.124023 0.08773,-0.08748 0.119778,-0.12019 0.122473,-0.124023 z m -0.122473,0.124023 c -0.504126,0.502669 -1.167004,1.124209 -1.39423,1.243852 -0.109605,0.05777 -0.174842,0.08096 -0.515731,0.182935 -0.505111,0.151099 -0.809716,0.672219 -0.700215,1.197343 0.07599,0.364433 0.380861,0.68014 0.752409,0.778763 0.336107,0.08922 0.718828,-0.01584 0.973584,-0.26665 0.146729,-0.14445 0.226567,-0.290238 0.287837,-0.526066 0.11907,-0.4583 0.727578,-1.14698 1.354956,-1.771985 -0.0074,-0.03249 -0.734466,-0.836279 -0.75861,-0.838192 z m 0.75861,0.838192 c 0.0029,0.01349 0.274079,-0.273052 0,0 z m -2.368331,0.903304 c 0.356673,8e-6 0.645948,0.28928 0.645956,0.645955 -8e-6,0.356676 -0.289283,0.645956 -0.645956,0.645956 -0.356674,0 -0.645438,-0.28928 -0.645438,-0.645956 0,-0.356675 0.288764,-0.645947 0.645438,-0.645955 z" /><g
           id="g1897"
           transform="translate(9.747432,116.83161)"><path
             style="color:#000000;fill:#000000;stroke-width:0.969219;stroke-linejoin:round;-inkscape-stroke:none"
             d="m 8.3509082,-15.265217 c -3.528706,0.157436 -6.344315,3.071524 -6.344315,6.63887 v 1.980241 C 2.0065932,-2.977994 4.9830502,0 8.6511482,0 H 49.55718 c 3.66811,0 6.64456,-2.977995 6.64456,-6.646106 v -1.980241 c 0,-3.004931 -1.99831,-5.545158 -4.73718,-6.366019 l -1.55241,-0.272329 c 0.0287,7.88e-4 0.0558,0.0021 -0.002,0.0021 l -13.14597,-0.0093 -1.26607,-9.2e-5 H 21.058136 l -1.265555,-5.18e-4 H 10.03762 Z"
             id="path1889"
             sodipodi:nodetypes="cssssssccccccccc" /><path
             id="path1891"
             style="color:#000000;fill:#aa072d;fill-opacity:1;stroke-width:0.969219;stroke-linejoin:round;-inkscape-stroke:none"
             d="m 8.6501179,-13.722185 c -2.8364832,0 -5.093746,2.259322 -5.093746,5.095812 v 1.980241 c 0,2.836491 2.2572628,5.095813 5.093746,5.095813 H 49.556148 c 2.836483,0 5.095813,-2.259322 5.095813,-5.095813 v -1.980241 c 0,-2.83649 -2.25933,-5.095813 -5.095813,-5.095813 z" /><g
             id="g1895"
             transform="matrix(1.7905009,0,0,1.7905009,-24.119565,-36.721326)"
             style="fill:#ffffff"><path
               id="path1893"
               style="fill:#ffffff;stroke-width:0.865405;stroke-linejoin:round"
               d="m 41.203211,14.730877 h 0.790862 v 1.121458 h 1.121459 v 0.783528 h -1.121459 v 1.121458 h -0.790862 v -1.121458 h -1.121459 v -0.783528 h 1.121459 z m -24.867523,0.04689 h 0.41128 v 1.293567 l 0.541213,-1.293567 h 0.458172 l -0.534926,1.101549 0.621635,1.640667 h -0.458171 l -0.389537,-1.175685 -0.238386,0.490655 v 0.68503 h -0.41128 z m 4.922524,0 h 0.411018 v 1.03082 c 0.0367,-0.07758 0.08319,-0.139731 0.139626,-0.185993 0.0767,-0.06287 0.162738,-0.09405 0.258294,-0.09405 0.130761,0 0.230794,0.04376 0.299947,0.131767 0.07041,0.08801 0.10557,0.215189 0.10557,0.381155 v 1.478512 h -0.411018 v -1.365345 c 0,-0.08172 -0.01656,-0.142877 -0.04925,-0.183111 -0.03269,-0.04149 -0.08158,-0.06208 -0.14696,-0.06208 -0.06538,0 -0.114532,0.02059 -0.147223,0.06208 -0.03269,0.04149 -0.04899,0.103796 -0.04899,0.186779 v 1.361677 h -0.411018 z m 4.382883,0 h 0.239433 v 0.388489 h -0.198043 c -0.04149,0 -0.07351,0.01457 -0.09614,0.04349 -0.02138,0.02892 -0.03196,0.06665 -0.03196,0.113167 v 0.239433 h 0.326142 v 0.367795 h -0.326142 v 1.589846 h -0.41128 v -1.589846 h -0.184683 v -0.367795 h 0.184683 v -0.265891 c 0,-0.172252 0.04087,-0.301734 0.122598,-0.388489 0.08173,-0.08676 0.206911,-0.130195 0.375391,-0.130195 z m 2.7988,0 h 0.41128 v 2.185809 c 0,0.05029 0.01116,0.08944 0.03379,0.117097 0.02389,0.0264 0.05732,0.03956 0.100069,0.03956 h 0.08278 v 0.399754 h -0.16032 c -0.148364,0 -0.263278,-0.04517 -0.345004,-0.135696 -0.08173,-0.09053 -0.122598,-0.218286 -0.122598,-0.382988 z m 0.89198,0 h 0.41128 v 2.185809 c 0,0.05029 0.01116,0.08944 0.03379,0.117097 0.02389,0.0264 0.05732,0.03956 0.100069,0.03956 h 0.08304 v 0.399754 h -0.160321 c -0.148356,0 -0.263539,-0.04517 -0.345265,-0.135696 -0.08173,-0.09053 -0.122598,-0.218287 -0.122598,-0.382988 z m 1.461747,0 h 1.350413 v 0.394252 h -0.469698 v 2.347964 H 31.263319 V 15.17202 h -0.469697 z m 4.91676,0 H 36.1214 v 2.742216 H 35.710382 V 17.28317 c -0.03261,0.07488 -0.07594,0.135558 -0.130195,0.182064 -0.07041,0.05909 -0.153307,0.08881 -0.248863,0.08881 -0.0855,0 -0.159226,-0.02201 -0.220834,-0.06601 -0.06035,-0.04401 -0.106673,-0.107464 -0.139364,-0.190447 -0.03143,-0.08424 -0.04715,-0.185687 -0.04715,-0.303875 v -0.895648 c 0,-0.119445 0.01572,-0.222045 0.04715,-0.307543 0.03269,-0.0855 0.07901,-0.150108 0.139364,-0.194114 0.06161,-0.04526 0.135336,-0.06785 0.220834,-0.06785 0.08801,0 0.168344,0.0306 0.241266,0.09221 0.05324,0.04498 0.09929,0.103084 0.137792,0.174205 z m -16.253419,0.01336 h 0.41128 v 0.409184 h -0.41128 z m 0.820464,0.201711 h 0.411018 v 0.569504 h 0.267987 v 0.382989 h -0.267987 v 1.027676 c 0,0.05029 0.01142,0.08944 0.03405,0.117097 0.02263,0.0264 0.05465,0.03956 0.09614,0.03956 h 0.137792 v 0.399754 h -0.194375 c -0.167223,0 -0.289841,-0.04345 -0.367795,-0.130195 -0.07795,-0.08676 -0.116835,-0.216238 -0.116835,-0.38849 v -1.065398 h -0.184945 v -0.382989 h 0.184945 z M 18.51783,15.52855 c 0.125732,0 0.233206,0.02431 0.322475,0.07335 0.08927,0.04903 0.157024,0.120772 0.203544,0.21507 0.04778,0.0943 0.07178,0.208061 0.07178,0.341337 v 0.533878 h -0.792173 v 0.2431 c 0,0.07544 0.01771,0.134023 0.05292,0.175515 0.03646,0.04023 0.0885,0.06025 0.156391,0.06025 0.06161,0 0.108769,-0.01572 0.141459,-0.04715 0.03395,-0.03143 0.05108,-0.0766 0.05108,-0.135697 v -0.03956 l 0.396086,0.0018 v 0.03379 c 0,0.179796 -0.05173,0.318973 -0.154819,0.417043 -0.1031,0.09807 -0.247726,0.146961 -0.433809,0.146961 -0.128246,0 -0.23745,-0.02459 -0.327976,-0.07361 -0.09053,-0.04904 -0.159696,-0.119934 -0.207474,-0.212975 -0.04778,-0.0943 -0.07178,-0.207485 -0.07178,-0.339503 V 16.19049 c 0,-0.139562 0.02342,-0.259036 0.06994,-0.358364 0.04652,-0.09933 0.113699,-0.174785 0.201711,-0.226335 0.08927,-0.05155 0.196167,-0.07728 0.320641,-0.07728 z m 5.641085,0 c 0.0074,-1.67e-4 0.01498,0 0.02253,0 0.120702,0 0.223617,0.02117 0.309115,0.06392 0.0855,0.04149 0.15037,0.10322 0.194376,0.184945 0.04525,0.08047 0.06785,0.177944 0.06785,0.292349 v 0.93337 c 0,0.114416 -0.0226,0.21272 -0.06785,0.294445 -0.04401,0.08173 -0.108879,0.143768 -0.194376,0.186517 -0.0855,0.04275 -0.188413,0.06418 -0.309115,0.06418 -0.120703,0 -0.224456,-0.02143 -0.311211,-0.06418 -0.0855,-0.04401 -0.150946,-0.106887 -0.196209,-0.188612 -0.04526,-0.08298 -0.06785,-0.182178 -0.06785,-0.297851 v -0.927869 c 0,-0.114405 0.02258,-0.21188 0.06785,-0.292349 0.04526,-0.08173 0.110712,-0.143453 0.196209,-0.184945 0.08133,-0.04008 0.177513,-0.06141 0.288682,-0.06392 z m 3.296527,0 c 0.124475,0 0.230796,0.02259 0.318808,0.06785 0.08801,0.04401 0.154613,0.109193 0.199877,0.195948 0.04652,0.0855 0.06968,0.188675 0.06968,0.309377 v 1.418261 H 27.649556 V 17.32718 c -0.0035,0.0092 -0.0073,0.01832 -0.01126,0.02698 -0.02892,0.06412 -0.07152,0.112437 -0.1281,0.145127 -0.05658,0.03269 -0.125748,0.04899 -0.207473,0.04899 -0.153393,0 -0.269722,-0.04658 -0.348933,-0.139626 -0.07795,-0.09304 -0.116835,-0.231379 -0.116835,-0.414947 0,-0.215001 0.05203,-0.377077 0.156391,-0.486463 0.105614,-0.109387 0.261664,-0.163988 0.467864,-0.163988 h 0.18835 v -0.241529 c 0,-0.06538 -0.01745,-0.115685 -0.05265,-0.15089 -0.03521,-0.03646 -0.08494,-0.05475 -0.149056,-0.05475 -0.05532,0 -0.09877,0.01829 -0.130195,0.05475 -0.03018,0.03521 -0.04506,0.08551 -0.04506,0.15089 h -0.396086 c 0,-0.182311 0.0503,-0.323217 0.15089,-0.422545 0.101842,-0.100577 0.244485,-0.150628 0.428045,-0.150628 z m 5.640824,0 v 0.426212 h -0.03956 -0.05265 c -0.128246,0 -0.228855,0.03458 -0.30178,0.103737 -0.07167,0.0679 -0.108243,0.161378 -0.1095,0.280823 v 1.180662 h -0.411018 v -1.957641 h 0.411018 v 0.271655 c 0.05345,-0.08513 0.117714,-0.153759 0.192542,-0.20564 0.0943,-0.06664 0.19779,-0.09981 0.310949,-0.09981 z m 0.882811,0 c 0.124474,0 0.230536,0.02259 0.318545,0.06785 0.08801,0.04401 0.154876,0.109193 0.200139,0.195948 0.04652,0.0855 0.06968,0.188675 0.06968,0.309377 v 1.418261 h -0.39425 V 17.32718 c -0.0035,0.0092 -0.0073,0.01832 -0.01127,0.02698 -0.02892,0.06412 -0.07152,0.112437 -0.128099,0.145127 -0.05658,0.03269 -0.125748,0.04899 -0.207474,0.04899 -0.153392,0 -0.269722,-0.04658 -0.348933,-0.139626 -0.07795,-0.09304 -0.117097,-0.231379 -0.117097,-0.414947 0,-0.215001 0.0523,-0.377077 0.156653,-0.486463 0.105615,-0.109387 0.261402,-0.163988 0.467602,-0.163988 h 0.188613 v -0.241529 c 0,-0.06538 -0.01745,-0.115685 -0.05266,-0.15089 -0.0352,-0.03646 -0.08493,-0.05475 -0.149056,-0.05475 -0.05532,0 -0.09876,0.01829 -0.130195,0.05475 -0.03018,0.03521 -0.04532,0.08551 -0.04532,0.15089 H 33.40013 c 0,-0.182311 0.05004,-0.323217 0.150628,-0.422545 0.101843,-0.100582 0.24474,-0.150628 0.428308,-0.150628 z m 3.091149,0 c 0.125732,0 0.233206,0.02431 0.322475,0.07335 0.08927,0.04903 0.157024,0.120772 0.203544,0.21507 0.04778,0.0943 0.07178,0.208061 0.07178,0.341337 v 0.533878 H 36.87585 v 0.2431 c 0,0.07544 0.01771,0.134023 0.05292,0.175515 0.03646,0.04023 0.0885,0.06025 0.156391,0.06025 0.06161,0 0.108769,-0.01572 0.141459,-0.04715 0.03395,-0.03143 0.05108,-0.0766 0.05108,-0.135697 v -0.03956 l 0.395824,0.0018 v 0.03379 c 0,0.179796 -0.05146,0.318973 -0.154557,0.417043 -0.1031,0.09807 -0.247727,0.146961 -0.433809,0.146961 -0.128246,0 -0.237449,-0.02458 -0.327976,-0.07361 -0.09053,-0.04904 -0.159696,-0.119934 -0.207474,-0.212975 -0.04778,-0.0943 -0.07178,-0.207485 -0.07178,-0.339503 V 16.19049 c 0,-0.139562 0.02316,-0.259036 0.06968,-0.358364 0.04652,-0.09933 0.113961,-0.174785 0.201973,-0.226335 0.08927,-0.05155 0.196167,-0.07728 0.320641,-0.07728 z m 1.45022,0 c 0.114417,0 0.213873,0.02259 0.298113,0.06785 0.08424,0.04526 0.149427,0.110712 0.195947,0.19621 0.04652,0.08424 0.06994,0.182858 0.06994,0.296017 v 0.02253 l -0.394252,0.0018 v -0.0262 c 0,-0.05909 -0.01514,-0.105678 -0.04532,-0.139626 -0.03017,-0.03395 -0.07162,-0.05082 -0.124432,-0.05082 -0.05155,0 -0.09242,0.01886 -0.122598,0.05658 -0.03017,0.03646 -0.04532,0.08677 -0.04532,0.15089 0,0.05029 0.012,0.09232 0.03589,0.126266 0.02515,0.03269 0.05716,0.05842 0.09614,0.07728 0.03898,0.01886 0.08986,0.03888 0.152723,0.06025 0.0025,0.0012 0.0051,0.0027 0.0076,0.0039 0.0025,0 0.0051,5.84e-4 0.0076,0.0018 0.0025,0.0013 0.0051,0.0024 0.0076,0.0037 0.0025,0 0.0042,5.83e-4 0.0055,0.0018 0.09807,0.03269 0.178663,0.06811 0.241529,0.105833 0.06412,0.03646 0.118148,0.09363 0.162154,0.171585 0.04526,0.0767 0.06785,0.18045 0.06785,0.311211 0,0.11693 -0.02458,0.219268 -0.07361,0.307281 -0.04904,0.08801 -0.118781,0.156028 -0.209307,0.203806 -0.09053,0.04652 -0.196586,0.06968 -0.318546,0.06968 -0.120702,0 -0.226447,-0.02374 -0.316973,-0.07152 -0.09053,-0.04903 -0.160849,-0.118204 -0.211142,-0.207474 -0.04904,-0.08927 -0.07361,-0.193861 -0.07361,-0.313306 v -0.02253 l 0.392157,-0.0018 v 0.02253 c 0,0.06915 0.01886,0.124593 0.05658,0.166084 0.03772,0.04023 0.08886,0.06025 0.152985,0.06025 0.06412,0 0.114428,-0.01944 0.15089,-0.05842 0.03772,-0.03898 0.05658,-0.09043 0.05658,-0.154557 0,-0.04778 -0.012,-0.0875 -0.03589,-0.118931 -0.02389,-0.03143 -0.05418,-0.05659 -0.09064,-0.07545 -0.03646,-0.01886 -0.08792,-0.04087 -0.154557,-0.06602 -0.0075,-0.0025 -0.01582,-0.0051 -0.02462,-0.0076 -0.0075,-0.0038 -0.01556,-0.0069 -0.02436,-0.0094 -0.0025,-0.0012 -0.0056,-0.0024 -0.0094,-0.0037 -0.0038,-0.0013 -0.0069,-0.0024 -0.0094,-0.0037 -0.0855,-0.0352 -0.159225,-0.07351 -0.220834,-0.115001 -0.06161,-0.04275 -0.113066,-0.101333 -0.154557,-0.175515 -0.04023,-0.07544 -0.06025,-0.170336 -0.06025,-0.284752 0,-0.115673 0.02258,-0.217436 0.06785,-0.305448 0.04652,-0.08801 0.111707,-0.155451 0.195947,-0.201972 0.0855,-0.04778 0.184954,-0.07152 0.298112,-0.07152 z m -19.063483,0.03379 h 0.41128 v 1.957641 h -0.41128 z m -0.939133,0.335835 c -0.06287,0 -0.111441,0.02374 -0.145389,0.07152 -0.03269,0.04652 -0.04899,0.113122 -0.04899,0.199877 v 0.20564 h 0.396087 V 16.15071 c 0,-0.08047 -0.01745,-0.142511 -0.05265,-0.186517 -0.03521,-0.04401 -0.08493,-0.06602 -0.149056,-0.06602 z m 18.552396,0 c -0.06287,0 -0.111441,0.02374 -0.145389,0.07152 -0.03269,0.04652 -0.04899,0.113122 -0.04899,0.199877 v 0.20564 h 0.396087 V 16.15071 c 0,-0.08047 -0.01771,-0.142511 -0.05292,-0.186517 -0.0352,-0.04401 -0.08467,-0.06602 -0.148794,-0.06602 z m -1.548456,0.0094 c -0.06035,0 -0.107514,0.02059 -0.141459,0.06208 -0.03395,0.04149 -0.05082,0.100078 -0.05082,0.175514 v 0.808938 c 0,0.06915 0.01687,0.123178 0.05082,0.162155 0.03395,0.03772 0.08111,0.05658 0.141459,0.05658 0.04023,0 0.07424,-0.0086 0.101903,-0.0262 0.02766,-0.0176 0.04883,-0.04359 0.06392,-0.07754 0.01509,-0.03395 0.02279,-0.0754 0.02279,-0.124432 v -0.803437 c 0,-0.04903 -0.0077,-0.09106 -0.02279,-0.126266 -0.01509,-0.0352 -0.03626,-0.06151 -0.06392,-0.07911 -0.02766,-0.01886 -0.06167,-0.02829 -0.101903,-0.02829 z m -11.34216,0.0037 c -0.05029,0 -0.09059,0.0163 -0.120764,0.04899 -0.02892,0.03269 -0.04349,0.07812 -0.04349,0.135959 v 0.878619 c 0,0.06035 0.01457,0.106936 0.04349,0.139626 0.02892,0.03269 0.06921,0.04899 0.120764,0.04899 0.05281,0 0.09284,-0.01572 0.120503,-0.04715 0.02892,-0.03269 0.04349,-0.07985 0.04349,-0.14146 V 16.09623 c 0,-0.05909 -0.01457,-0.104526 -0.04349,-0.135959 -0.02766,-0.03269 -0.0677,-0.04899 -0.120503,-0.04899 z m 3.294694,0.776978 c -0.08173,0 -0.143454,0.02573 -0.184945,0.07728 -0.04149,0.05155 -0.06208,0.127583 -0.06208,0.228169 0,0.06664 0.01572,0.116942 0.04715,0.15089 0.03143,0.03269 0.07803,0.04925 0.139625,0.04925 0.0767,0 0.135019,-0.02143 0.175253,-0.06418 0.04023,-0.04275 0.06025,-0.106206 0.06025,-0.190446 v -0.25096 z m 6.523634,0 c -0.08173,0 -0.143453,0.02573 -0.184945,0.07728 -0.04149,0.05155 -0.06208,0.127583 -0.06208,0.228169 0,0.06664 0.01572,0.116942 0.04715,0.15089 0.03143,0.03269 0.07776,0.04925 0.139364,0.04925 0.0767,0 0.13528,-0.02143 0.175514,-0.06418 0.04023,-0.04275 0.06025,-0.106206 0.06025,-0.190446 v -0.25096 z"
               sodipodi:nodetypes="ccccccccccccccccccccccccccccccscsccscsssccccccscsccccccccccssccccscsccssscccscsccsscccccccccccccccccsccssccsscccccccccccccscsccscsccccccccsccscscsccscsccssscccssccsscssccssccsscccsccccsscscscscscccccccccsccccccccscsccsccccsscscscscsccccsscccsccscscsccsssccsssccccscsccscscscscccccccsccsccsccscscssscccscccscccccccccccsccscccccsccsccccssscsssssscccccsssscssccccsscscsccssscssscs" /></g></g><path
           style="color:#000000;fill:#000000;stroke-linejoin:round;-inkscape-stroke:none"
           d="m 60.497432,96.135256 v 6.455074 h 1.585937 v -5.987352 c -0.586376,0.0029 -1.085516,-0.234196 -1.585937,-0.467722 z"
           id="path1913"
           sodipodi:nodetypes="ccccc" /></g></g></g></svg>
