<?xml version="1.0" encoding="UTF-8" standalone="no"?>
<!-- Created with Inkscape (http://www.inkscape.org/) -->

<svg
   width="230"
   height="110"
   viewBox="0 0 60.854165 29.104167"
   version="1.1"
   id="svg328"
   inkscape:version="1.2.2 (732a01da63, 2022-12-09)"
   sodipodi:docname="koat.svg"
   xmlns:inkscape="http://www.inkscape.org/namespaces/inkscape"
   xmlns:sodipodi="http://sodipodi.sourceforge.net/DTD/sodipodi-0.dtd"
   xmlns="http://www.w3.org/2000/svg"
   xmlns:svg="http://www.w3.org/2000/svg">
  <sodipodi:namedview
     id="namedview330"
     pagecolor="#ffffff"
     bordercolor="#000000"
     borderopacity="0.25"
     inkscape:showpageshadow="2"
     inkscape:pageopacity="0.0"
     inkscape:pagecheckerboard="0"
     inkscape:deskcolor="#d1d1d1"
     inkscape:document-units="mm"
     showgrid="false"
     inkscape:zoom="1.4716891"
     inkscape:cx="78.481249"
     inkscape:cy="130.12259"
     inkscape:window-width="1920"
     inkscape:window-height="1013"
     inkscape:window-x="-9"
     inkscape:window-y="-9"
     inkscape:window-maximized="1"
     inkscape:current-layer="layer1" />
  <defs
     id="defs325" />
  <g
     inkscape:label="Layer 1"
     inkscape:groupmode="layer"
     id="layer1">
    <g
       id="g2189"
       transform="translate(-107.07062,-18.177412)"
       style="display:inline">
      <g
         id="g757"
         transform="translate(108.3883,-52.264037)"
         style="stroke:#ffffff;stroke-width:1.5875">
        <g
           id="g733"
           transform="matrix(0.14602013,0,0,0.14602013,33.257318,21.043592)"
           style="stroke-width:10.8718">
          <g
             id="path727">
            <path
               id="path1430"
               style="color:#000000;fill:#ffffff;stroke:none;stroke-linecap:round;stroke-linejoin:round;-inkscape-stroke:none"
               d="m 161.33564,338.98339 -0.004,0.004 c -1.61639,0.004 -3.03289,0.15884 -4.74579,0.75381 -1.95913,0.68158 -3.88855,1.89022 -5.35803,3.35496 -0.12176,0.12136 -0.17667,0.30164 -0.29374,0.42822 -0.41915,-0.35201 -0.89956,-0.83334 -1.27404,-1.07585 -0.62932,-0.40755 -1.27792,-0.77638 -1.9606,-1.12894 -1.36483,-0.70485 -2.6861,-1.32909 -4.35296,-1.75888 -1.52029,-0.39194 -3.07952,-0.57139 -4.61839,-0.54855 h -0.004 l -0.004,0.004 c -3.95889,0.0585 -7.81827,1.44813 -11.19737,3.80442 -1.7114,1.19332 -2.36192,2.0111 -3.76903,3.39036 -1.40711,1.37926 -2.83307,2.82812 -3.84689,3.99198 -0.33846,0.38855 -0.93332,0.95762 -1.4616,2.23665 -0.30541,0.73943 -0.25008,1.08779 -0.30082,1.59608 -1.30767,0.0917 -2.54154,0.65472 -3.46821,1.58193 l -1.58901,1.67395 -1.59255,1.67748 c -1.96602,2.07135 -1.9934,5.30896 -0.0637,7.41419 l 0.9343,1.01923 c 0.64779,0.70729 2.02353,2.1434 3.28064,3.4399 l 2.24019,2.31451 c 2.14765,2.21493 5.70538,2.20011 7.83533,-0.0318 l 1.6244,-1.69872 1.6244,-1.69518 c 0.43386,-0.45991 0.78238,-0.99455 1.03338,-1.57485 0.16188,0.0868 0.0152,0.0981 0.61933,0.28312 0.18922,0.0585 0.24953,0.0343 0.41052,0.0743 l 0.66887,0.72549 c -1.04511,1.00757 -2.09952,2.05113 -3.06123,2.92321 -1.6665,1.51118 -3.66831,2.87445 -2.9409,2.49145 h -0.004 c -0.49439,0.26058 -0.25499,0.16836 -2.55516,0.85644 -6.17203,1.84632 -9.86865,8.24508 -8.56082,14.51695 0.0112,0.0534 0.0271,0.0962 0.0389,0.14864 v 31.37318 c -0.10195,-0.0114 -0.20193,-0.0192 -0.30436,-0.0248 -0.0161,2.2e-4 -0.0309,0.003 -0.0531,0.004 l -76.212232,-0.0531 -0.10617,-22.32751 h 20.660646 c 5.921214,0 10.857632,-4.93643 10.857632,-10.85764 v -1.31296 l 5.103229,2.87012 -0.399906,-0.24773 c 0.700347,0.47805 1.43326,0.93724 2.502069,1.32005 1.068809,0.38282 2.7664,0.8197 4.834265,-0.0319 2.067866,-0.85155 3.354759,-2.97796 3.715944,-4.38835 0.303441,-1.1849 0.284659,-2.11111 0.2088,-3.01876 l -0.261885,-28.52783 c 0.01604,-1.04348 0.03922,-2.11963 -0.647636,-3.68409 -0.686854,-1.56445 -3.094617,-3.55254 -5.159853,-3.71948 -0.01562,-10e-4 -0.03038,-0.003 -0.04601,-0.004 0.04503,0.003 -0.306077,-0.0311 -0.831664,-0.004 l 0.0035,-0.007 c -0.0084,4.7e-4 -0.0094,0.006 -0.01769,0.007 -0.02388,10e-4 -0.01417,-0.002 -0.03893,0 -0.0098,0.005 -0.01856,0.006 -0.02831,0.0106 -1.844253,0.12546 -2.755786,0.72259 -3.560228,1.20325 l -5.375732,3.08601 v -0.81751 c 0,-5.9212 -4.936454,-10.85763 -10.857632,-10.85763 H 10.171066 c -5.9211788,0 -10.86117201,4.93644 -10.861172,10.85763 v 37.2656 c 0,5.9212 4.939957,10.85764 10.861172,10.85764 h 6.097686 l 0.371594,22.31689 H 15.610499 -60.000102 V 386.9226 c 0.534651,0.003 1.063825,0.009 1.599625,0.0106 0.02609,-0.006 0.0554,-0.011 0.0814,-0.0177 0.38585,0.78088 0.786455,1.60535 1.256343,2.58347 1.21603,2.53129 2.425255,5.12452 3.308959,6.72409 0.269228,0.4874 0.52466,0.90674 0.895366,1.39436 0.185352,0.24382 0.369289,0.49338 0.828124,0.9166 0.229418,0.21161 0.503669,0.48091 1.174946,0.84228 0.671043,0.36126 2.076254,1.13386 4.342345,0.37867 7.62e-4,-2.5e-4 0.954451,-0.41138 1.242187,-0.59809 0.17488,-0.11348 0.270648,-0.19872 0.389289,-0.29373 0.809309,0.59811 1.7683,0.95892 2.771033,1.044 2.343138,0 2.727312,-0.70548 3.110775,-0.96968 0.383463,-0.26419 0.544214,-0.42504 0.679487,-0.55209 0.270545,-0.25408 0.381908,-0.38365 0.49192,-0.50961 0.220024,-0.2519 0.366621,-0.43857 0.516693,-0.62994 0.300144,-0.38275 0.618609,-0.80168 0.637019,-0.82459 1.564742,-2.02824 1.497904,-4.8738 -0.155716,-6.83026 0.14014,-0.23872 0.279005,-0.42452 0.431757,-0.89536 0.112453,-0.34662 0.25829,-1.35803 0.258347,-1.35898 5.7e-5,-9.6e-4 -0.268707,-2.04122 -0.268964,-2.042 -1e-6,0 -0.0034,-0.007 -0.0035,-0.007 1.524043,-0.63136 3.020129,-1.48574 4.420204,-2.77104 8.63799,-7.05963 8.262408,-20.85377 -0.905983,-27.34226 -2.549555,-1.83083 -6.263475,-3.99822 -11.002731,-3.40097 l 0.70072,-0.0425 c -11.768489,-0.0461 -23.538665,-0.088 -35.305001,-0.13448 -5.406817,-7.17788 -13.785,-12.07201 -23.191032,-11.83086 l 0.3716,0.004 c -0.48223,-0.0205 -0.9276,-0.0248 -1.3342,-0.0212 -13.70673,0.12304 -25.59958,10.54681 -27.82357,23.98729 -2.73165,13.90584 5.58613,28.19516 19.03625,32.67907 9.79463,3.5864 20.868408,1.40075 28.641075,-5.30495 v 30.35395 h -0.477764 l -8.663457,-0.004 h -0.0035 -66.805584 c -0.008,-2e-5 -0.0134,-2e-5 -0.0212,0 h -0.1911 v -31.70938 c -0.003,-0.007 -0.004,-0.0147 -0.007,-0.0212 0.14542,-2.14341 0.2198,-4.85366 0.28666,-9.08459 0.0882,-5.53937 0.12636,-8.6476 -0.0779,-11.06644 -0.1034,-1.22452 -0.43883,-2.51669 -0.89182,-3.66993 1.08286,-0.55624 2.14092,-1.26994 2.99044,-2.51977 1.149,-1.6904 1.4949,-4.42895 0.67949,-6.40204 -1.63083,-3.94617 -4.92375,-4.79273 -7.99812,-5.07845 -0.36237,-0.0337 -1.11649,-0.1135 -1.87567,-0.17341 -0.70017,-1.55482 -1.51839,-3.07666 -2.40298,-4.49099 -1.26122,-2.01628 -2.11792,-3.69488 -4.29987,-5.20232 -2.18196,-1.50744 -4.22678,-1.679 -6.32419,-1.97476 h -0.004 c -3.39639,-0.47864 -8.856,-0.59101 -14.90624,-0.59101 h -0.004 c -6.04772,8e-5 -11.50404,0.11237 -14.89916,0.59101 -2.09758,0.29573 -4.14578,0.46724 -6.32772,1.97476 -2.18194,1.50752 -3.03516,3.18971 -4.29634,5.20586 -0.88436,1.41387 -1.70541,2.9322 -2.40651,4.48745 -0.75708,0.0599 -1.51432,0.13987 -1.87567,0.17341 -3.07425,0.28568 -6.36087,1.13194 -7.99459,5.07491 -0.81686,1.97149 -0.47651,4.71327 0.67241,6.40558 0.84997,1.25199 1.90647,1.96674 2.99045,2.52331 -0.454,1.15486 -0.7856,2.44696 -0.88829,3.66993 -0.20314,2.41912 -0.16566,5.52824 -0.0779,11.06644 0.085,5.36072 0.15499,8.46489 0.4176,10.82224 0.13131,1.17867 0.29124,2.21387 0.76796,3.41513 0.47671,1.20126 1.527,2.56571 2.47729,3.27357 1.85864,1.38454 3.06877,1.45129 4.39897,1.64917 1.3302,0.19787 2.70247,0.24033 4.14416,0.15571 1.6842,-0.0989 3.08367,-0.13644 4.92628,-0.92013 0.90096,-0.38319 1.76359,-1.08255 2.48792,-1.84382 0.23357,-0.0417 0.2893,-0.0613 0.60516,-0.10263 1.48916,-0.1952 3.70594,-0.35512 5.90658,-0.45653 4.39544,-0.20254 8.76151,-0.20879 8.77317,-0.2088 0,0 3.99201,0.008 8.23524,0.18049 1.79414,0.073 3.51798,0.19597 5.05014,0.33266 v 26.28057 c -22.06425,5.6017 -38.47594,25.44417 -38.47594,49.18493 v 13.56143 c 0,28.06101 22.8778,50.95089 50.94028,50.95089 h 280.13966 c 28.06254,0 50.94028,-22.88989 50.94028,-50.95089 v -13.56143 c 0,-19.17842 -10.76125,-35.75734 -26.47521,-44.42498 V 395.2004 c 1.1699,-1.48094 2.14438,-3.23941 2.6047,-5.01122 0.008,-0.0294 0.85139,-1.77437 2.32158,-3.61685 0.84408,-1.05783 2.0697,-2.28382 3.17447,-3.46467 l 4.38482,4.76702 c 2.41798,2.65578 4.66733,5.10577 6.34895,6.92227 0.84329,0.91092 1.54217,1.66051 2.06323,2.21187 0.26053,0.27568 0.4746,0.50212 0.65826,0.69011 0.0918,0.094 0.17436,0.17363 0.27604,0.2725 0.10168,0.0989 -0.0793,0.0433 0.73257,0.61932 2.03257,1.44283 4.90565,1.57934 6.97182,0.67595 h 0.007 c 1.71222,-0.75066 1.37345,-0.8376 1.62793,-1.05462 0.25448,-0.21703 0.47801,-0.41883 0.71842,-0.64763 0.48083,-0.45759 1.01046,-0.99783 1.55716,-1.5784 0.66156,-0.70255 1.25341,-1.25846 1.96768,-2.2508 0.71427,-0.99233 1.68872,-3.07559 1.36251,-5.21293 -0.32621,-2.13734 -1.33249,-3.25749 -2.06323,-4.1017 -0.73074,-0.84421 -1.45962,-1.54424 -2.37821,-2.45606 -1.17369,-1.16509 -6.61029,-6.54881 -11.62559,-11.51588 0.10883,-0.10671 0.18579,-0.18413 0.29727,-0.29374 1.28012,-1.25862 1.96819,-1.90297 2.22603,-2.11632 0.25785,-0.21335 0.0446,-0.0746 0.57332,-0.34328 0.66018,-0.33559 1.11713,-0.48312 2.11632,-0.59455 2.10549,-0.23459 4.2843,-0.88681 6.05521,-1.93937 4.81514,-2.86179 7.4966,-8.14693 6.79841,-13.73484 v -0.004 l -0.0991,-0.7892 c -0.85718,-3.27455 -4.46519,-4.97972 -7.53806,-3.56023 1.70907,-3.23725 -0.20679,-7.2047 -3.80442,-7.88134 l -0.65117,-0.0956 h -0.007 c -0.57994,-0.0844 -1.12197,-0.1152 -1.68456,-0.11325 h -0.004 c -0.003,1e-5 -0.004,-10e-6 -0.007,0 z" />
          </g>
          <g
             id="g729"
             transform="matrix(0.92043898,0,0,0.92043898,-86.315765,-68.386601)"
             style="fill:#ff0000;stroke-width:11.8115" />
        </g>
        <g
           id="g747"
           transform="matrix(0.42033616,0,0,0.42033616,-13.075931,-56.759497)"
           style="stroke-width:3.77674">
          <g
             id="g743" />
          <g
             id="g745"
             transform="translate(-27.764365,-18.010781)" />
        </g>
      </g>
      <g
         id="g1123"
         transform="translate(97.096865,57.613946)">
        <g
           id="g1091"
           transform="matrix(0.14602013,0,0,0.14602013,44.553989,-55.434593)"
           style="display:inline">
          <path
             id="path1085"
             style="fill:#000000;fill-opacity:1;stroke:none;stroke-width:0.973667;stroke-linecap:round;stroke-linejoin:round;stroke-dasharray:none;stroke-opacity:1"
             d="m 10.168888,116.86884 c -3.0035634,0 -5.4208574,2.41832 -5.4208574,5.42189 v 37.26542 c 0,3.00354 2.417294,5.42138 5.4208574,5.42138 h 48.437871 c 3.003554,0 5.420857,-2.41784 5.420857,-5.42138 v -11.25823 -15.12827 -10.87892 c 0,-3.00357 -2.417303,-5.42189 -5.420857,-5.42189 z m 15.779399,6.40374 c 0.0532,-3.6e-4 0.106776,-3.4e-4 0.160714,5.2e-4 1.150022,0.0183 2.468915,0.3785 3.939811,1.22628 7.053705,4.06535 11.37394,6.67643 19.255155,11.24582 2.675279,1.55112 5.963206,6.45952 0.139527,10.34201 -1.0509,0.64379 -3.167249,1.97352 -3.167249,1.97352 l 2.71818,3.64009 -4.034379,-2.90577 -12.719637,-9.02942 c -5.380322,3.76274 -10.75682,7.531 -16.146818,11.27993 l 4.437972,-5.14852 c 0.04041,-5.31229 0.259446,-12.46118 0.213424,-17.49661 -0.01942,-2.12662 1.853884,-5.08818 5.2033,-5.12785 z m -2.741952,13.74438 v 7.08691 l 3.690214,-2.84479 v -4.24212 z m 9.033041,5.31802 10.500134,7.45949 c -5.578858,3.32881 -11.664256,7.10817 -14.5526,8.41499 -2.888335,1.30682 -7.121941,-1.0713 -7.549927,-4.42246 0,0 -0.170616,0.46633 -0.138493,-3.21738 z m -2.71663,3.56619 v 2.23294 h 2.232422 v -2.23294 z m 2.661853,0 v 2.23294 h 2.232938 v -2.23294 z m -2.661853,2.60811 v 2.23191 h 2.232422 v -2.23191 z m 2.661853,0 v 2.23191 h 2.232938 v -2.23191 z" />
          <g
             id="g1087"
             transform="matrix(0.92043898,0,0,0.92043898,-86.315765,-68.386601)"
             style="fill:#ff0000;fill-opacity:1;stroke:#000000;stroke-width:0.143727;stroke-dasharray:none" />
          <path
             style="fill:#000000;fill-opacity:1;stroke:none;stroke-width:0.973667;stroke-linecap:round;stroke-linejoin:round;stroke-dasharray:none;stroke-opacity:1"
             d="m 78.79248,124.23004 c -0.31282,0.0177 -0.70256,0.17784 -1.16686,0.45527 l -10.40867,5.98207 -0.0899,20.01996 10.10532,5.68441 c 1.88416,1.2861 3.06178,1.24273 2.76108,-1.57871 l -0.26304,-28.66079 c 0.0197,-1.28123 -0.25473,-1.85639 -0.80873,-1.90117 -0.0416,-0.003 -0.0845,-0.004 -0.12919,-0.001 z"
             id="path1089" />
        </g>
        <path
           id="path1093"
           style="display:inline;fill:#000000;stroke-width:0.0198584"
           d="m 68.115445,-38.542135 c -0.14391,3.6e-4 -0.318974,0.02596 -0.436149,0.06666 -0.192816,0.06708 -0.337701,0.15782 -0.482658,0.302307 -0.221118,0.220409 -0.337315,0.472531 -0.371553,0.806153 -0.01155,0.112665 -0.04422,0.268403 -0.07545,0.361218 -0.102165,0.304022 -0.17331,0.403657 -0.592212,0.827857 -0.211106,0.213763 -0.383439,0.392676 -0.383439,0.397908 0,0.0055 0.180226,0.189785 0.401009,0.409794 0.337471,0.336285 0.406383,0.396143 0.432015,0.376205 0.0168,-0.0132 0.182774,-0.173496 0.368453,-0.356051 0.377465,-0.371126 0.422279,-0.408072 0.605648,-0.501261 0.179097,-0.09104 0.359573,-0.143272 0.580843,-0.167949 0.238832,-0.02661 0.397633,-0.07589 0.566374,-0.176216 0.41903,-0.249044 0.669912,-0.752269 0.610815,-1.225249 l -0.01447,-0.115238 -0.42013,0.420129 c -0.322099,0.321832 -0.432364,0.42013 -0.470255,0.42013 -0.06204,0 -0.656179,-0.195404 -0.689881,-0.22686 -0.02096,-0.0196 -0.263033,-0.683916 -0.263033,-0.72192 0,-0.0074 0.19361,-0.20667 0.429948,-0.4439 l 0.429432,-0.431498 -0.09508,-0.01395 c -0.03783,-0.0055 -0.08225,-0.0085 -0.130225,-0.0083 z m -3.292822,0.0041 c -0.400924,0.0057 -0.810468,0.146162 -1.193726,0.413411 -0.136529,0.0952 -0.736844,0.683606 -0.967382,0.948263 -0.08648,0.09928 -0.09165,0.112342 -0.09457,0.22841 -0.008,0.31096 -0.257491,0.568096 -0.564307,0.581359 l -0.127641,0.0057 -0.232027,0.24443 -0.232544,0.244946 0.136426,0.148828 c 0.07503,0.08193 0.2835,0.300598 0.463538,0.486276 l 0.327628,0.337964 0.237195,-0.248564 0.237195,-0.248047 -0.0026,-0.09922 c -0.0063,-0.281137 0.198149,-0.546245 0.468188,-0.606681 l 0.10542,-0.02377 0.217041,0.159163 c 0.11949,0.08738 0.236681,0.164866 0.26045,0.172083 0.02373,0.0074 0.07464,-4.45e-4 0.113171,-0.01654 l 0.07028,-0.02894 0.0021,0.0021 0.58136,-0.620634 -0.0021,-0.0026 0.02791,-0.05323 c 0.01539,-0.02938 0.0279,-0.07359 0.0279,-0.09818 6.3e-5,-0.02463 -0.119798,-0.222781 -0.267167,-0.441834 l -0.267149,-0.397394 0.133325,-0.110588 c 0.268139,-0.221666 0.522794,-0.359182 0.772046,-0.417028 0.191628,-0.04446 0.475538,-0.03918 0.67076,0.0124 0.172622,0.04556 0.242396,0.04099 0.345199,-0.0217 0.05671,-0.03465 0.06238,-0.0447 0.04031,-0.07131 -0.0942,-0.11349 -0.570521,-0.359543 -0.821658,-0.424263 -0.152327,-0.03929 -0.307687,-0.05716 -0.464571,-0.05478 z m -0.0098,2.300635 -0.586527,0.626318 2.645833,2.876827 c 0.706004,0.775466 1.312052,1.430119 1.346688,1.454691 0.06914,0.04908 0.156281,0.05608 0.240812,0.01912 0.03011,-0.0132 0.170159,-0.146442 0.311092,-0.296105 0.395072,-0.419561 0.397861,-0.402446 -0.143679,-0.939994 -0.220361,-0.218745 -1.210695,-1.199642 -2.200899,-2.180229 z m -0.01757,1.444356 c 0.0059,-0.0084 -0.129588,0.12353 -0.122473,0.124023 0.08773,-0.08748 0.119778,-0.12019 0.122473,-0.124023 z m -0.122473,0.124023 c -0.504126,0.502669 -1.167004,1.124209 -1.39423,1.243852 -0.109605,0.05777 -0.174842,0.08096 -0.515731,0.182935 -0.505111,0.151099 -0.809716,0.672219 -0.700215,1.197343 0.07599,0.364433 0.380861,0.68014 0.752409,0.778763 0.336107,0.08922 0.718828,-0.01584 0.973584,-0.26665 0.146729,-0.14445 0.226567,-0.290238 0.287837,-0.526066 0.11907,-0.4583 0.727578,-1.14698 1.354956,-1.771985 -0.0074,-0.03249 -0.734466,-0.836279 -0.75861,-0.838192 z m 0.75861,0.838192 c 0.0029,0.01349 0.274079,-0.273052 0,0 z m -2.368331,0.903304 c 0.356673,8e-6 0.645948,0.28928 0.645956,0.645955 -8e-6,0.356676 -0.289283,0.645956 -0.645956,0.645956 -0.356674,0 -0.645438,-0.28928 -0.645438,-0.645956 0,-0.356675 0.288764,-0.645947 0.645438,-0.645955 z" />
        <path
           id="path1095"
           style="display:inline;fill:#000000;stroke:none;stroke-width:0.107844"
           d="m 14.190111,-38.391729 c -0.600636,0.08468 -0.625826,0.102251 -0.989254,0.683239 -0.205108,0.32792 -0.429999,0.834364 -0.499824,1.125415 -0.03618,0.15078 -0.053,0.24042 -0.06026,0.291934 -0.0036,-0.01289 -0.01452,-0.02304 -0.03049,-0.02323 -0.102481,-6.91e-4 -0.02468,-0.222945 -0.0928,-0.293364 -0.125954,-0.130253 -0.304843,-0.07283 -0.541216,-0.05089 -0.560828,0.05212 -0.706637,0.427627 -0.257038,0.598567 0.149003,0.05667 0.37929,0.206298 0.446913,0.332698 0.100062,0.186841 0.08615,0.270808 -0.07429,0.448962 -0.177134,0.19674 -0.194497,0.402624 -0.168967,2.01323 0.02468,1.557338 0.05324,1.81237 0.215792,1.933454 0.111193,0.08283 0.406247,0.126534 0.726541,0.107733 0.439182,-0.0258 0.558941,-0.07661 0.645633,-0.274247 0.105385,-0.24025 2.71623,-0.242649 2.71623,-0.242649 0,0 2.668364,0.0028 2.773713,0.242649 0.08675,0.197631 0.206463,0.24848 0.645645,0.274247 0.320293,0.01882 0.615227,-0.0249 0.726517,-0.107733 0.162615,-0.121089 0.191181,-0.376116 0.215791,-1.933454 0.02565,-1.610606 0.0073,-1.81649 -0.168967,-2.01323 -0.160437,-0.178149 -0.17423,-0.262121 -0.07417,-0.448962 0.06764,-0.126388 0.297934,-0.276048 0.446914,-0.332698 0.449599,-0.170944 0.303814,-0.546441 -0.257027,-0.598567 -0.236385,-0.022 -0.415261,-0.07938 -0.541215,0.05089 -0.068,0.07042 0.01089,0.292349 -0.0928,0.293363 -0.01633,1.58e-4 -0.02577,0.01029 -0.03049,0.02323 -0.0073,-0.05151 -0.02396,-0.141162 -0.06025,-0.291934 -0.06969,-0.291051 -0.294716,-0.797495 -0.499812,-1.125415 -0.363428,-0.581 -0.388643,-0.598547 -0.989254,-0.683239 -0.370688,-0.05224 -1.198428,-0.07881 -2.065841,-0.07881 -0.867426,0 -1.695142,0.02655 -2.06583,0.07881 z m 2.754136,0.212325 c 2.183205,0.05572 2.051032,0.05544 2.416529,1.012467 0.324045,0.848484 0.536291,0.796088 -3.076075,0.763807 v -6.16e-4 c -0.01089,9.7e-5 -0.01815,2.69e-4 -0.0288,3.05e-4 -0.01089,-9.5e-5 -0.01815,-2.7e-4 -0.0288,-3.05e-4 v 6.16e-4 c -3.612392,0.03227 -3.400121,0.08468 -3.076077,-0.763807 0.365497,-0.95705 0.2333,-0.956722 2.416541,-1.012467 l 0.688284,-0.0091 c 0.230104,0 0.462339,0.0034 0.688306,0.0091 m -0.688306,-0.0091 c 0.225966,-0.0054 -0.230094,7e-6 0,0 z m -3.390612,1.819317 c 0.0036,-3.02e-4 0.0073,-1.9e-4 0.01089,1.6e-4 0.02105,0.0021 0.05275,0.0127 0.09486,0.02889 0.09982,0.03826 0.201914,0.06966 0.226706,0.06966 0.02492,0 0.04501,0.0898 0.04501,0.19952 0,0.109729 0.145918,0.40091 0.324153,0.647069 0.07598,0.105059 0.05106,0.152559 -0.0048,0.172813 -0.02141,-0.02371 -0.04465,-0.04887 -0.07005,-0.07566 -0.182906,-0.192772 -0.415733,-0.51532 -0.517332,-0.716737 -0.121053,-0.23976 -0.156988,-0.321153 -0.109015,-0.325747 z m 6.781221,0 c 0.04791,0.0047 0.01089,0.08599 -0.109136,0.325747 -0.101635,0.201418 -0.334426,0.523958 -0.517368,0.71673 -0.02541,0.02682 -0.04864,0.05191 -0.07005,0.07566 -0.05638,-0.02025 -0.08131,-0.06777 -0.0048,-0.172831 0.178405,-0.246158 0.324177,-0.537331 0.324177,-0.647066 0,-0.109729 0.02033,-0.199521 0.04525,-0.199521 0.02468,0 0.126862,-0.03136 0.226694,-0.06966 0.04235,-0.01615 0.07393,-0.02704 0.09498,-0.02889 0.0036,-3.04e-4 0.0072,-6.14e-4 0.01089,-1.6e-4 z m -6.926873,0.861282 c 0.181491,-0.0013 0.404542,0.08819 0.611199,0.26208 -0.0392,0 0.504699,0.365729 0.611053,0.483248 0.158259,0.174846 0.168604,0.243358 0.05735,0.377398 -0.185749,0.223804 -0.392854,0.201484 -1.041221,-0.112318 -0.566709,-0.274291 -0.734406,-0.526744 -0.558603,-0.840902 0.06316,-0.113008 0.179131,-0.168602 0.320221,-0.16951 z m 7.072537,0 c 0.141018,6.9e-4 0.256953,0.05647 0.320197,0.169511 0.175864,0.314157 0.0073,0.566611 -0.558578,0.840899 -0.648392,0.313804 -0.855484,0.336123 -1.041221,0.112318 -0.111314,-0.134047 -0.100909,-0.202548 0.05735,-0.377399 0.106353,-0.117509 0.650255,-0.483249 0.61104,-0.483249 0.206669,-0.173901 0.429793,-0.263244 0.611211,-0.26208 z m -3.219236,0.855116 c 0,0.05281 -0.139747,0.117642 -0.318841,0.126661 -0.179131,-0.0091 -0.315273,-0.07383 -0.315273,-0.126661 0,-0.05597 0.127395,-0.112463 0.317052,-0.112463 0.189621,0 0.317062,0.05653 0.317062,0.112463 z m -0.34581,1.533304 c -1.897165,0.03199 -2.218923,-0.0097 -2.379723,-0.271714 -0.09982,-0.162486 -0.05312,-0.255611 0.283391,-0.566188 0.439169,-0.32263 0.702705,-0.334268 1.040604,-0.335254 0.262773,-6.07e-4 0.570544,-0.01488 1.084476,-0.01488 0.513955,-7e-6 0.821714,0.0069 1.084524,0.0077 0.337874,6.89e-4 0.601409,0.01978 1.040555,0.342405 0.336592,0.310577 0.383162,0.4037 0.283439,0.566181 -0.1608,0.261956 -0.540078,0.303704 -2.437266,0.27172 m 0.02867,0.539953 h 1.69e-4 c 1.21e-4,0 1.81e-4,1e-5 3.02e-4,0 l 2.204052,0.02985 -0.24264,0.242647 c -0.230008,0.23004 -0.348037,0.242528 -1.956196,0.242651 -1.580114,-2.8e-4 -1.738639,-0.01397 -1.967244,-0.242647 l -0.242665,-0.242749 z"
           sodipodi:nodetypes="sssccssssccccccccccsssscsccsscsccccccsscccccssssscccscssscsssccccssssccssscccscscscscsccsccssscccccccsc" />
        <g
           id="g1105"
           transform="translate(11.334932,-11.226725)">
          <path
             style="color:#000000;fill:#000000;stroke-width:0.969219;stroke-linejoin:round;-inkscape-stroke:none"
             d="m 8.3509082,-15.265217 c -3.528706,0.157436 -6.344315,3.071524 -6.344315,6.63887 v 1.980241 C 2.0065932,-2.977994 4.9830502,0 8.6511482,0 H 49.55718 c 3.66811,0 6.64456,-2.977995 6.64456,-6.646106 v -1.980241 c 0,-3.004931 -1.99831,-5.545158 -4.73718,-6.366019 l -1.55241,-0.272329 c 0.0287,7.88e-4 0.0558,0.0021 -0.002,0.0021 l -13.14597,-0.0093 -1.26607,-9.2e-5 H 21.058136 l -1.265555,-5.18e-4 H 10.03762 Z"
             id="path1097"
             sodipodi:nodetypes="cssssssccccccccc" />
          <path
             id="path1099"
             style="color:#000000;fill:#aa072d;fill-opacity:1;stroke-width:0.969219;stroke-linejoin:round;-inkscape-stroke:none"
             d="m 8.6501179,-13.722185 c -2.8364832,0 -5.093746,2.259322 -5.093746,5.095812 v 1.980241 c 0,2.836491 2.2572628,5.095813 5.093746,5.095813 H 49.556148 c 2.836483,0 5.095813,-2.259322 5.095813,-5.095813 v -1.980241 c 0,-2.83649 -2.25933,-5.095813 -5.095813,-5.095813 z" />
          <g
             id="g1103"
             transform="matrix(1.7905009,0,0,1.7905009,-24.119565,-36.721326)"
             style="fill:#ffffff">
            <path
               id="path1101"
               style="fill:#ffffff;stroke-width:0.865405;stroke-linejoin:round"
               d="m 41.203211,14.730877 h 0.790862 v 1.121458 h 1.121459 v 0.783528 h -1.121459 v 1.121458 h -0.790862 v -1.121458 h -1.121459 v -0.783528 h 1.121459 z m -24.867523,0.04689 h 0.41128 v 1.293567 l 0.541213,-1.293567 h 0.458172 l -0.534926,1.101549 0.621635,1.640667 h -0.458171 l -0.389537,-1.175685 -0.238386,0.490655 v 0.68503 h -0.41128 z m 4.922524,0 h 0.411018 v 1.03082 c 0.0367,-0.07758 0.08319,-0.139731 0.139626,-0.185993 0.0767,-0.06287 0.162738,-0.09405 0.258294,-0.09405 0.130761,0 0.230794,0.04376 0.299947,0.131767 0.07041,0.08801 0.10557,0.215189 0.10557,0.381155 v 1.478512 h -0.411018 v -1.365345 c 0,-0.08172 -0.01656,-0.142877 -0.04925,-0.183111 -0.03269,-0.04149 -0.08158,-0.06208 -0.14696,-0.06208 -0.06538,0 -0.114532,0.02059 -0.147223,0.06208 -0.03269,0.04149 -0.04899,0.103796 -0.04899,0.186779 v 1.361677 h -0.411018 z m 4.382883,0 h 0.239433 v 0.388489 h -0.198043 c -0.04149,0 -0.07351,0.01457 -0.09614,0.04349 -0.02138,0.02892 -0.03196,0.06665 -0.03196,0.113167 v 0.239433 h 0.326142 v 0.367795 h -0.326142 v 1.589846 h -0.41128 v -1.589846 h -0.184683 v -0.367795 h 0.184683 v -0.265891 c 0,-0.172252 0.04087,-0.301734 0.122598,-0.388489 0.08173,-0.08676 0.206911,-0.130195 0.375391,-0.130195 z m 2.7988,0 h 0.41128 v 2.185809 c 0,0.05029 0.01116,0.08944 0.03379,0.117097 0.02389,0.0264 0.05732,0.03956 0.100069,0.03956 h 0.08278 v 0.399754 h -0.16032 c -0.148364,0 -0.263278,-0.04517 -0.345004,-0.135696 -0.08173,-0.09053 -0.122598,-0.218286 -0.122598,-0.382988 z m 0.89198,0 h 0.41128 v 2.185809 c 0,0.05029 0.01116,0.08944 0.03379,0.117097 0.02389,0.0264 0.05732,0.03956 0.100069,0.03956 h 0.08304 v 0.399754 h -0.160321 c -0.148356,0 -0.263539,-0.04517 -0.345265,-0.135696 -0.08173,-0.09053 -0.122598,-0.218287 -0.122598,-0.382988 z m 1.461747,0 h 1.350413 v 0.394252 h -0.469698 v 2.347964 H 31.263319 V 15.17202 h -0.469697 z m 4.91676,0 H 36.1214 v 2.742216 H 35.710382 V 17.28317 c -0.03261,0.07488 -0.07594,0.135558 -0.130195,0.182064 -0.07041,0.05909 -0.153307,0.08881 -0.248863,0.08881 -0.0855,0 -0.159226,-0.02201 -0.220834,-0.06601 -0.06035,-0.04401 -0.106673,-0.107464 -0.139364,-0.190447 -0.03143,-0.08424 -0.04715,-0.185687 -0.04715,-0.303875 v -0.895648 c 0,-0.119445 0.01572,-0.222045 0.04715,-0.307543 0.03269,-0.0855 0.07901,-0.150108 0.139364,-0.194114 0.06161,-0.04526 0.135336,-0.06785 0.220834,-0.06785 0.08801,0 0.168344,0.0306 0.241266,0.09221 0.05324,0.04498 0.09929,0.103084 0.137792,0.174205 z m -16.253419,0.01336 h 0.41128 v 0.409184 h -0.41128 z m 0.820464,0.201711 h 0.411018 v 0.569504 h 0.267987 v 0.382989 h -0.267987 v 1.027676 c 0,0.05029 0.01142,0.08944 0.03405,0.117097 0.02263,0.0264 0.05465,0.03956 0.09614,0.03956 h 0.137792 v 0.399754 h -0.194375 c -0.167223,0 -0.289841,-0.04345 -0.367795,-0.130195 -0.07795,-0.08676 -0.116835,-0.216238 -0.116835,-0.38849 v -1.065398 h -0.184945 v -0.382989 h 0.184945 z M 18.51783,15.52855 c 0.125732,0 0.233206,0.02431 0.322475,0.07335 0.08927,0.04903 0.157024,0.120772 0.203544,0.21507 0.04778,0.0943 0.07178,0.208061 0.07178,0.341337 v 0.533878 h -0.792173 v 0.2431 c 0,0.07544 0.01771,0.134023 0.05292,0.175515 0.03646,0.04023 0.0885,0.06025 0.156391,0.06025 0.06161,0 0.108769,-0.01572 0.141459,-0.04715 0.03395,-0.03143 0.05108,-0.0766 0.05108,-0.135697 v -0.03956 l 0.396086,0.0018 v 0.03379 c 0,0.179796 -0.05173,0.318973 -0.154819,0.417043 -0.1031,0.09807 -0.247726,0.146961 -0.433809,0.146961 -0.128246,0 -0.23745,-0.02459 -0.327976,-0.07361 -0.09053,-0.04904 -0.159696,-0.119934 -0.207474,-0.212975 -0.04778,-0.0943 -0.07178,-0.207485 -0.07178,-0.339503 V 16.19049 c 0,-0.139562 0.02342,-0.259036 0.06994,-0.358364 0.04652,-0.09933 0.113699,-0.174785 0.201711,-0.226335 0.08927,-0.05155 0.196167,-0.07728 0.320641,-0.07728 z m 5.641085,0 c 0.0074,-1.67e-4 0.01498,0 0.02253,0 0.120702,0 0.223617,0.02117 0.309115,0.06392 0.0855,0.04149 0.15037,0.10322 0.194376,0.184945 0.04525,0.08047 0.06785,0.177944 0.06785,0.292349 v 0.93337 c 0,0.114416 -0.0226,0.21272 -0.06785,0.294445 -0.04401,0.08173 -0.108879,0.143768 -0.194376,0.186517 -0.0855,0.04275 -0.188413,0.06418 -0.309115,0.06418 -0.120703,0 -0.224456,-0.02143 -0.311211,-0.06418 -0.0855,-0.04401 -0.150946,-0.106887 -0.196209,-0.188612 -0.04526,-0.08298 -0.06785,-0.182178 -0.06785,-0.297851 v -0.927869 c 0,-0.114405 0.02258,-0.21188 0.06785,-0.292349 0.04526,-0.08173 0.110712,-0.143453 0.196209,-0.184945 0.08133,-0.04008 0.177513,-0.06141 0.288682,-0.06392 z m 3.296527,0 c 0.124475,0 0.230796,0.02259 0.318808,0.06785 0.08801,0.04401 0.154613,0.109193 0.199877,0.195948 0.04652,0.0855 0.06968,0.188675 0.06968,0.309377 v 1.418261 H 27.649556 V 17.32718 c -0.0035,0.0092 -0.0073,0.01832 -0.01126,0.02698 -0.02892,0.06412 -0.07152,0.112437 -0.1281,0.145127 -0.05658,0.03269 -0.125748,0.04899 -0.207473,0.04899 -0.153393,0 -0.269722,-0.04658 -0.348933,-0.139626 -0.07795,-0.09304 -0.116835,-0.231379 -0.116835,-0.414947 0,-0.215001 0.05203,-0.377077 0.156391,-0.486463 0.105614,-0.109387 0.261664,-0.163988 0.467864,-0.163988 h 0.18835 v -0.241529 c 0,-0.06538 -0.01745,-0.115685 -0.05265,-0.15089 -0.03521,-0.03646 -0.08494,-0.05475 -0.149056,-0.05475 -0.05532,0 -0.09877,0.01829 -0.130195,0.05475 -0.03018,0.03521 -0.04506,0.08551 -0.04506,0.15089 h -0.396086 c 0,-0.182311 0.0503,-0.323217 0.15089,-0.422545 0.101842,-0.100577 0.244485,-0.150628 0.428045,-0.150628 z m 5.640824,0 v 0.426212 h -0.03956 -0.05265 c -0.128246,0 -0.228855,0.03458 -0.30178,0.103737 -0.07167,0.0679 -0.108243,0.161378 -0.1095,0.280823 v 1.180662 h -0.411018 v -1.957641 h 0.411018 v 0.271655 c 0.05345,-0.08513 0.117714,-0.153759 0.192542,-0.20564 0.0943,-0.06664 0.19779,-0.09981 0.310949,-0.09981 z m 0.882811,0 c 0.124474,0 0.230536,0.02259 0.318545,0.06785 0.08801,0.04401 0.154876,0.109193 0.200139,0.195948 0.04652,0.0855 0.06968,0.188675 0.06968,0.309377 v 1.418261 h -0.39425 V 17.32718 c -0.0035,0.0092 -0.0073,0.01832 -0.01127,0.02698 -0.02892,0.06412 -0.07152,0.112437 -0.128099,0.145127 -0.05658,0.03269 -0.125748,0.04899 -0.207474,0.04899 -0.153392,0 -0.269722,-0.04658 -0.348933,-0.139626 -0.07795,-0.09304 -0.117097,-0.231379 -0.117097,-0.414947 0,-0.215001 0.0523,-0.377077 0.156653,-0.486463 0.105615,-0.109387 0.261402,-0.163988 0.467602,-0.163988 h 0.188613 v -0.241529 c 0,-0.06538 -0.01745,-0.115685 -0.05266,-0.15089 -0.0352,-0.03646 -0.08493,-0.05475 -0.149056,-0.05475 -0.05532,0 -0.09876,0.01829 -0.130195,0.05475 -0.03018,0.03521 -0.04532,0.08551 -0.04532,0.15089 H 33.40013 c 0,-0.182311 0.05004,-0.323217 0.150628,-0.422545 0.101843,-0.100582 0.24474,-0.150628 0.428308,-0.150628 z m 3.091149,0 c 0.125732,0 0.233206,0.02431 0.322475,0.07335 0.08927,0.04903 0.157024,0.120772 0.203544,0.21507 0.04778,0.0943 0.07178,0.208061 0.07178,0.341337 v 0.533878 H 36.87585 v 0.2431 c 0,0.07544 0.01771,0.134023 0.05292,0.175515 0.03646,0.04023 0.0885,0.06025 0.156391,0.06025 0.06161,0 0.108769,-0.01572 0.141459,-0.04715 0.03395,-0.03143 0.05108,-0.0766 0.05108,-0.135697 v -0.03956 l 0.395824,0.0018 v 0.03379 c 0,0.179796 -0.05146,0.318973 -0.154557,0.417043 -0.1031,0.09807 -0.247727,0.146961 -0.433809,0.146961 -0.128246,0 -0.237449,-0.02458 -0.327976,-0.07361 -0.09053,-0.04904 -0.159696,-0.119934 -0.207474,-0.212975 -0.04778,-0.0943 -0.07178,-0.207485 -0.07178,-0.339503 V 16.19049 c 0,-0.139562 0.02316,-0.259036 0.06968,-0.358364 0.04652,-0.09933 0.113961,-0.174785 0.201973,-0.226335 0.08927,-0.05155 0.196167,-0.07728 0.320641,-0.07728 z m 1.45022,0 c 0.114417,0 0.213873,0.02259 0.298113,0.06785 0.08424,0.04526 0.149427,0.110712 0.195947,0.19621 0.04652,0.08424 0.06994,0.182858 0.06994,0.296017 v 0.02253 l -0.394252,0.0018 v -0.0262 c 0,-0.05909 -0.01514,-0.105678 -0.04532,-0.139626 -0.03017,-0.03395 -0.07162,-0.05082 -0.124432,-0.05082 -0.05155,0 -0.09242,0.01886 -0.122598,0.05658 -0.03017,0.03646 -0.04532,0.08677 -0.04532,0.15089 0,0.05029 0.012,0.09232 0.03589,0.126266 0.02515,0.03269 0.05716,0.05842 0.09614,0.07728 0.03898,0.01886 0.08986,0.03888 0.152723,0.06025 0.0025,0.0012 0.0051,0.0027 0.0076,0.0039 0.0025,0 0.0051,5.84e-4 0.0076,0.0018 0.0025,0.0013 0.0051,0.0024 0.0076,0.0037 0.0025,0 0.0042,5.83e-4 0.0055,0.0018 0.09807,0.03269 0.178663,0.06811 0.241529,0.105833 0.06412,0.03646 0.118148,0.09363 0.162154,0.171585 0.04526,0.0767 0.06785,0.18045 0.06785,0.311211 0,0.11693 -0.02458,0.219268 -0.07361,0.307281 -0.04904,0.08801 -0.118781,0.156028 -0.209307,0.203806 -0.09053,0.04652 -0.196586,0.06968 -0.318546,0.06968 -0.120702,0 -0.226447,-0.02374 -0.316973,-0.07152 -0.09053,-0.04903 -0.160849,-0.118204 -0.211142,-0.207474 -0.04904,-0.08927 -0.07361,-0.193861 -0.07361,-0.313306 v -0.02253 l 0.392157,-0.0018 v 0.02253 c 0,0.06915 0.01886,0.124593 0.05658,0.166084 0.03772,0.04023 0.08886,0.06025 0.152985,0.06025 0.06412,0 0.114428,-0.01944 0.15089,-0.05842 0.03772,-0.03898 0.05658,-0.09043 0.05658,-0.154557 0,-0.04778 -0.012,-0.0875 -0.03589,-0.118931 -0.02389,-0.03143 -0.05418,-0.05659 -0.09064,-0.07545 -0.03646,-0.01886 -0.08792,-0.04087 -0.154557,-0.06602 -0.0075,-0.0025 -0.01582,-0.0051 -0.02462,-0.0076 -0.0075,-0.0038 -0.01556,-0.0069 -0.02436,-0.0094 -0.0025,-0.0012 -0.0056,-0.0024 -0.0094,-0.0037 -0.0038,-0.0013 -0.0069,-0.0024 -0.0094,-0.0037 -0.0855,-0.0352 -0.159225,-0.07351 -0.220834,-0.115001 -0.06161,-0.04275 -0.113066,-0.101333 -0.154557,-0.175515 -0.04023,-0.07544 -0.06025,-0.170336 -0.06025,-0.284752 0,-0.115673 0.02258,-0.217436 0.06785,-0.305448 0.04652,-0.08801 0.111707,-0.155451 0.195947,-0.201972 0.0855,-0.04778 0.184954,-0.07152 0.298112,-0.07152 z m -19.063483,0.03379 h 0.41128 v 1.957641 h -0.41128 z m -0.939133,0.335835 c -0.06287,0 -0.111441,0.02374 -0.145389,0.07152 -0.03269,0.04652 -0.04899,0.113122 -0.04899,0.199877 v 0.20564 h 0.396087 V 16.15071 c 0,-0.08047 -0.01745,-0.142511 -0.05265,-0.186517 -0.03521,-0.04401 -0.08493,-0.06602 -0.149056,-0.06602 z m 18.552396,0 c -0.06287,0 -0.111441,0.02374 -0.145389,0.07152 -0.03269,0.04652 -0.04899,0.113122 -0.04899,0.199877 v 0.20564 h 0.396087 V 16.15071 c 0,-0.08047 -0.01771,-0.142511 -0.05292,-0.186517 -0.0352,-0.04401 -0.08467,-0.06602 -0.148794,-0.06602 z m -1.548456,0.0094 c -0.06035,0 -0.107514,0.02059 -0.141459,0.06208 -0.03395,0.04149 -0.05082,0.100078 -0.05082,0.175514 v 0.808938 c 0,0.06915 0.01687,0.123178 0.05082,0.162155 0.03395,0.03772 0.08111,0.05658 0.141459,0.05658 0.04023,0 0.07424,-0.0086 0.101903,-0.0262 0.02766,-0.0176 0.04883,-0.04359 0.06392,-0.07754 0.01509,-0.03395 0.02279,-0.0754 0.02279,-0.124432 v -0.803437 c 0,-0.04903 -0.0077,-0.09106 -0.02279,-0.126266 -0.01509,-0.0352 -0.03626,-0.06151 -0.06392,-0.07911 -0.02766,-0.01886 -0.06167,-0.02829 -0.101903,-0.02829 z m -11.34216,0.0037 c -0.05029,0 -0.09059,0.0163 -0.120764,0.04899 -0.02892,0.03269 -0.04349,0.07812 -0.04349,0.135959 v 0.878619 c 0,0.06035 0.01457,0.106936 0.04349,0.139626 0.02892,0.03269 0.06921,0.04899 0.120764,0.04899 0.05281,0 0.09284,-0.01572 0.120503,-0.04715 0.02892,-0.03269 0.04349,-0.07985 0.04349,-0.14146 V 16.09623 c 0,-0.05909 -0.01457,-0.104526 -0.04349,-0.135959 -0.02766,-0.03269 -0.0677,-0.04899 -0.120503,-0.04899 z m 3.294694,0.776978 c -0.08173,0 -0.143454,0.02573 -0.184945,0.07728 -0.04149,0.05155 -0.06208,0.127583 -0.06208,0.228169 0,0.06664 0.01572,0.116942 0.04715,0.15089 0.03143,0.03269 0.07803,0.04925 0.139625,0.04925 0.0767,0 0.135019,-0.02143 0.175253,-0.06418 0.04023,-0.04275 0.06025,-0.106206 0.06025,-0.190446 v -0.25096 z m 6.523634,0 c -0.08173,0 -0.143453,0.02573 -0.184945,0.07728 -0.04149,0.05155 -0.06208,0.127583 -0.06208,0.228169 0,0.06664 0.01572,0.116942 0.04715,0.15089 0.03143,0.03269 0.07776,0.04925 0.139364,0.04925 0.0767,0 0.13528,-0.02143 0.175514,-0.06418 0.04023,-0.04275 0.06025,-0.106206 0.06025,-0.190446 v -0.25096 z"
               sodipodi:nodetypes="ccccccccccccccccccccccccccccccscsccscsssccccccscsccccccccccssccccscsccssscccscsccsscccccccccccccccccsccssccsscccccccccccccscsccscsccccccccsccscscsccscsccssscccssccsscssccssccsscccsccccsscscscscscccccccccsccccccccscsccsccccsscscscscsccccsscccsccscscsccsssccsssccccscsccscscscscccccccsccsccsccscscssscccscccscccccccccccsccscccccsccsccccssscsssssscccccsssscssccccsscscsccssscssscs" />
          </g>
        </g>
        <g
           id="g1113"
           transform="matrix(0.42033616,0,0,0.42033616,-1.77926,-133.23768)"
           style="display:inline">
          <g
             id="g1109">
            <path
               id="path1107"
               style="fill:#000000;stroke:none;stroke-width:0.0846667"
               d="m 74.949762,225.55615 c -3.918129,-0.16672 -7.573535,2.93329 -8.193575,6.77861 -0.769335,3.84875 1.647593,8.00091 5.376434,9.23136 3.088371,1.14531 6.79335,0.17578 8.937284,-2.32702 0.509187,-0.38562 0.627874,-1.33337 1.414964,-1.09319 2.487319,-0.0176 4.975355,0.0116 7.462653,0.0192 -0.345887,-0.69393 -1.284672,-2.22727 0.181132,-1.37661 1.253168,0.40234 2.463914,1.01188 3.727065,1.32547 1.394105,0.022 2.934166,0.0173 4.019008,-1.00582 2.026728,-1.59854 1.94692,-5.05545 -0.168347,-6.54847 -0.724641,-0.52108 -1.576748,-0.96122 -2.491103,-0.84599 -4.388626,-0.0172 -8.778613,-0.0336 -13.167257,-0.0512 -1.458869,-2.46633 -4.195765,-4.18078 -7.098258,-4.10637 z m -0.505039,1.01647 v 1.68986 1.68772 l -0.456028,-0.0106 c -0.251169,-0.006 -0.544181,-0.0282 -0.649945,-0.049 -0.105762,-0.0208 -0.548235,-0.10822 -0.984508,-0.19392 -0.436241,-0.0856 -0.794851,-0.17511 -0.794851,-0.20031 0,-0.0252 0.161423,-0.35258 0.358003,-0.72666 0.550043,-1.0468 1.646702,-1.92474 2.527329,-2.19703 z m 0.673386,0 c 0.568383,0.16673 1.284514,0.55452 1.749525,1.05696 0.463114,0.50038 1.133676,1.57819 1.133676,1.82198 0,0.0545 -0.292767,0.16599 -0.649946,0.24719 -0.35717,0.0812 -1.004514,0.1768 -1.440535,0.2131 l -0.79272,0.0661 v -1.70265 z m -2.959916,0.49438 c 0.03885,-6.2e-4 -0.09862,0.22347 -0.306859,0.49865 -0.208259,0.27515 -0.51718,0.77298 -0.686172,1.10597 -0.169012,0.33298 -0.332636,0.60394 -0.364396,0.60094 -0.120691,-0.0122 -1.067854,-0.51714 -1.063354,-0.56684 0.01773,-0.1983 2.138601,-1.63472 2.420781,-1.63872 z m 5.269886,0.0405 c 0.0026,-7.4e-4 0.0063,-4.6e-4 0.01065,0 0.06078,0.006 0.322697,0.1255 0.635029,0.28981 0.69896,0.36773 1.753787,1.15068 1.753787,1.30203 0,0.051 -0.161844,0.17482 -0.360133,0.27489 -0.708249,0.35734 -0.718756,0.35411 -1.007949,-0.26637 -0.144733,-0.31056 -0.435607,-0.78425 -0.647814,-1.0527 -0.212205,-0.26835 -0.387837,-0.5125 -0.387837,-0.5434 0,-0.001 0.0016,-0.004 0.0043,-0.004 z m -8.199968,2.17785 1.370213,0.70748 c -0.107529,0.41829 -0.416985,1.94452 -0.449635,2.43357 l -0.05967,0.88861 h -1.199735 -1.199736 l 0.06393,-0.57323 c 0.11266,-0.99563 0.925876,-2.79867 1.474631,-3.45643 z m 11.130051,0.0128 0.215228,0.25358 c 0.56069,0.66029 1.144021,2.14962 1.314807,3.35628 l 0.05754,0.40701 h -1.184819 -1.184819 l -0.117203,-0.9845 c -0.06362,-0.54205 -0.195534,-1.29648 -0.294074,-1.67708 l -0.179001,-0.69256 0.686172,-0.33243 z m -9.069404,0.87583 0.735184,0.17687 c 0.405211,0.0977 1.116347,0.2068 1.579048,0.2408 l 0.841733,0.0618 v 2.66158 h -1.826241 -1.828371 l 0.0021,-0.40701 c 9.25e-4,-0.52061 0.305381,-2.04295 0.496516,-2.73403 z m 7.017281,0 0.08524,0.21949 c 0.101831,0.26782 0.343555,1.60687 0.428325,2.36963 l 0.0618,0.55192 H 76.995497 75.11172 l 0.05327,-2.6424 0.873698,-0.0724 c 0.480185,-0.0398 1.186969,-0.15202 1.570524,-0.24932 z m 17.26511,1.83902 0.129989,0.44751 c 0.0711,0.24695 0.191933,0.70686 0.270633,1.02286 0.0787,0.316 0.160362,0.55997 0.179002,0.54127 0.0186,-0.0186 0.155501,-0.46711 0.306859,-0.9973 l 0.277026,-0.96533 0.313253,-0.0256 c 0.173148,-0.0144 0.315383,0.007 0.315383,0.049 0,0.0699 -0.226394,0.8635 -0.72666,2.53798 l -0.210966,0.69896 h -0.326039 -0.326038 l -0.174739,-0.65634 c -0.096,-0.36089 -0.221376,-0.84118 -0.277026,-1.06762 -0.12344,-0.50213 -0.151072,-0.4568 -0.46029,0.77141 l -0.238668,0.95255 h -0.319645 c -0.17507,0 -0.337506,-0.0354 -0.364396,-0.0789 -0.0592,-0.0958 -0.977915,-3.06789 -0.978115,-3.16449 -8e-5,-0.0379 0.177401,-0.0547 0.394229,-0.0405 l 0.39423,0.0234 0.283419,0.96746 c 0.155488,0.53143 0.295642,0.9797 0.313252,0.9973 0.0176,0.0176 0.142957,-0.41629 0.279157,-0.96533 l 0.249323,-0.99943 0.349479,-0.0234 z m -9.644765,0.006 c 0.006,-1e-5 0.01278,0.001 0.01918,0.002 0.0474,0.002 0.106443,0.01 0.181133,0.0149 l 0.35161,0.0277 0.268502,1.01434 c 0.147406,0.5588 0.289133,0.96064 0.315383,0.89074 0.0263,-0.0699 0.162677,-0.52065 0.300467,-1.00155 0.13779,-0.48091 0.267031,-0.89352 0.289811,-0.91632 0.0228,-0.0225 0.171541,-0.0297 0.330301,-0.0149 l 0.289811,0.0277 -0.475206,1.60675 -0.475206,1.60888 h -0.334562 -0.334562 l -0.272764,-1.00582 c -0.15046,-0.55405 -0.28883,-1.02404 -0.30686,-1.04204 -0.018,-0.018 -0.115748,0.30266 -0.217358,0.71174 -0.37416,1.50646 -0.312557,1.37874 -0.684041,1.37874 -0.18172,0 -0.344389,-0.0269 -0.364396,-0.0618 -0.01443,-0.0252 -0.202306,-0.62027 -0.414167,-1.30371 -0.203707,-0.65712 -0.429585,-1.39592 -0.544769,-1.78833 -0.03716,-0.12661 0.01582,-0.14711 0.364396,-0.14703 H 84.6201 l 0.289811,1.01434 c 0.159268,0.55857 0.306979,1.00147 0.326039,0.98237 0.0191,-0.0191 0.110322,-0.33402 0.202442,-0.69895 0.288636,-1.14338 0.300722,-1.29948 0.487992,-1.29989 z m 4.566666,0.002 v 0.002 0.002 0.002 c 0.0126,-4.8e-4 0.02589,-2.9e-4 0.04049,0 0.0437,8.6e-4 0.09692,-0.002 0.161953,0.002 l 0.347348,0.0277 0.253585,0.99303 c 0.139568,0.54666 0.271683,0.97924 0.291943,0.95894 0.0203,-0.0203 0.160272,-0.46876 0.311122,-0.99516 l 0.274895,-0.95681 0.306859,-0.0277 c 0.21275,-0.0181 0.30906,0.009 0.30686,0.0852 -0.002,0.061 -0.206677,0.79628 -0.453897,1.63445 l -0.447503,1.52578 -0.340955,0.0213 -0.338824,0.0256 -0.187526,-0.74371 c -0.341217,-1.37382 -0.356923,-1.42497 -0.426193,-1.2935 -0.0358,0.0679 -0.170166,0.55226 -0.298336,1.07614 l -0.232276,0.95254 h -0.323907 c -0.17819,0 -0.341485,-0.0269 -0.362265,-0.0618 -0.047,-0.0789 -0.986638,-3.12143 -0.986638,-3.19433 0,-0.0294 0.17795,-0.0419 0.39636,-0.0277 l 0.39636,0.0277 0.266371,0.88862 c 0.14609,0.48895 0.28358,0.94524 0.30686,1.01434 0.0374,0.11082 0.133275,-0.19606 0.494385,-1.5897 0.0703,-0.27148 0.09127,-0.34248 0.24293,-0.34948 z m -22.803499,2.06277 h 1.214652 1.212522 v 0.52635 c 0,0.45786 0.258772,2.00163 0.438979,2.61896 0.05413,0.18545 -0.01747,0.24702 -0.596671,0.52209 -0.36233,0.17206 -0.680332,0.32689 -0.707482,0.34309 -0.05941,0.0355 -0.569843,-0.73421 -0.841732,-1.27006 -0.300057,-0.59122 -0.584329,-1.52859 -0.656339,-2.16506 z m 3.10056,0 h 1.828371 1.826241 v 2.69355 l -0.554052,0.002 c -0.304069,0.002 -0.875589,0.0651 -1.272189,0.13851 -0.396601,0.0734 -0.856892,0.16228 -1.022865,0.19818 -0.279514,0.0605 -0.311251,0.041 -0.411277,-0.26211 -0.158745,-0.48105 -0.394038,-1.89019 -0.394229,-2.36111 z m 4.321605,0 H 76.9891 c 1.43952,0 1.877452,0.0294 1.875252,0.12147 -0.009,0.36483 -0.208399,1.65494 -0.349479,2.25883 -0.183589,0.78591 -0.163855,0.77558 -1.088925,0.54126 -0.290837,-0.0737 -0.919875,-0.16507 -1.395784,-0.20457 l -0.865174,-0.0724 z m 4.46438,0 h 1.184819 1.184819 l -0.05754,0.40915 c -0.120693,0.83317 -0.352321,1.58288 -0.716005,2.33128 -0.205558,0.42304 -0.473069,0.88685 -0.594541,1.02926 l -0.219489,0.25785 c -0.455262,-0.23528 -0.909489,-0.47255 -1.36382,-0.70962 l 0.172608,-0.67338 c 0.0959,-0.37018 0.228013,-1.11585 0.291943,-1.6579 z m -5.131373,3.3371 c 0,0 -0.01023,3.39237 -0.02344,3.39037 -0.591621,-0.10388 -1.410146,-0.65357 -1.915741,-1.2871 -0.324581,-0.40671 -0.94615,-1.47735 -0.94615,-1.63019 0,-0.0864 1.391573,-0.35874 2.128838,-0.41554 z m 0.673386,0 0.756494,0.0575 c 0.931852,0.0719 2.126707,0.33731 2.126707,0.47094 0,0.21846 -0.640791,1.28216 -1.039913,1.72609 -0.233468,0.2597 -0.603929,0.57564 -0.822554,0.70322 -0.503396,0.29383 -0.888658,0.44102 -0.963198,0.36652 -0.03187,-0.0319 -0.05754,-3.32431 -0.05754,-3.32431 z m -4.28751,0.70109 c 0.02817,0 0.161538,0.23719 0.298336,0.52635 0.136799,0.28917 0.442848,0.78699 0.677648,1.10597 0.234812,0.31898 0.415863,0.5785 0.402753,0.5775 -0.323111,-0.0286 -1.794542,-0.96871 -2.220469,-1.41923 l -0.270633,-0.28768 0.530611,-0.25145 c 0.291851,-0.13806 0.553594,-0.25146 0.581754,-0.25146 z m 7.997527,0.0469 c 0.02598,-0.001 -0.03089,-0.009 0,0 0.354208,0.10922 0.999424,0.43622 0.999424,0.52422 0,0.0475 -0.247863,0.28433 -0.551921,0.52635 -0.519639,0.41361 -1.851812,1.1863 -1.851812,1.07401 0,-0.0283 0.173201,-0.27829 0.383575,-0.55618 0.210376,-0.27795 0.500951,-0.75646 0.645683,-1.06123 0.180027,-0.37908 0.262421,-0.50217 0.375051,-0.50717 z M 91.168567,238.31 c -0.0056,0 0.002,0.005 0.01705,0.0128 -0.0075,-0.008 -0.01282,-0.0128 -0.01705,-0.0128 z m 0.01705,0.0128 c 0.204175,0.21418 1.583228,3.24985 2.02229,4.04458 0.112116,0.20297 0.232531,0.36077 0.266371,0.34948 0.0339,-0.0113 0.439158,-0.95333 0.571099,-1.29563 0.0165,-0.0165 1.15436,0.89836 1.555608,1.25088 0.036,0 0.307949,-0.37115 0.415539,-0.50504 -0.37938,-0.30721 -1.444797,-1.2799 -1.444797,-1.31694 0.340276,-0.18252 1.228223,-0.73495 1.216783,-0.76928 -0.02058,-0.0618 -4.300738,-1.61138 -4.602893,-1.75805 z"
               sodipodi:nodetypes="ccccccccccccccsccscssccsssscccsssccssscsssssscccccccccssccccccccccscccccccccccccsscccsscccscccccsccssscccsccccscccccsccccccccssssssccssssccccscssscccccccccsccssscccssccccssssscccccccssccccscsscccccccsccccccccssccccsssscsssccccsccssssscccscssccscsccsccccsc" />
          </g>
          <g
             id="g1111"
             transform="translate(-27.764365,-18.010781)" />
        </g>
        <path
           style="color:#000000;fill:#000000;stroke-linejoin:round;-inkscape-stroke:none"
           d="m 18.959932,-31.923074 v 6.455078 h 1.58789 v -6.455078 z"
           id="path1115" />
        <path
           style="font-variation-settings:'wght' 700;fill:none;fill-opacity:1;stroke:#000000;stroke-width:1.74261;stroke-linejoin:round"
           d="m 34.128568,-25.468109 v -7.777476"
           id="path1117"
           sodipodi:nodetypes="cc" />
        <path
           style="font-variation-settings:'wght' 700;fill:none;fill-opacity:1;stroke:#000000;stroke-width:1.5875;stroke-linejoin:round"
           d="m 48.503214,-25.468109 v -6.454559"
           id="path1119" />
        <path
           style="color:#000000;fill:#000000;stroke-linejoin:round;-inkscape-stroke:none"
           d="m 62.084932,-31.923074 v 6.455078 h 1.585937 v -5.987356 c -0.586376,0.0029 -1.085516,-0.234196 -1.585937,-0.467722 z"
           id="path1121"
           sodipodi:nodetypes="ccccc" />
      </g>
    </g>
  </g>
</svg>
