<?xml version="1.0" encoding="UTF-8" standalone="no"?>
<!-- Created with Inkscape (http://www.inkscape.org/) -->

<svg
   width="230"
   height="110"
   viewBox="0 0 60.854165 29.104167"
   version="1.1"
   id="svg328"
   inkscape:version="1.2.2 (732a01da63, 2022-12-09)"
   sodipodi:docname="koatCar.svg"
   xml:space="preserve"
   xmlns:inkscape="http://www.inkscape.org/namespaces/inkscape"
   xmlns:sodipodi="http://sodipodi.sourceforge.net/DTD/sodipodi-0.dtd"
   xmlns="http://www.w3.org/2000/svg"
   xmlns:svg="http://www.w3.org/2000/svg"><sodipodi:namedview
     id="namedview330"
     pagecolor="#ffffff"
     bordercolor="#000000"
     borderopacity="0.25"
     inkscape:showpageshadow="2"
     inkscape:pageopacity="0.0"
     inkscape:pagecheckerboard="0"
     inkscape:deskcolor="#d1d1d1"
     inkscape:document-units="mm"
     showgrid="true"
     inkscape:zoom="1.4716891"
     inkscape:cx="90.712094"
     inkscape:cy="55.71829"
     inkscape:window-width="1366"
     inkscape:window-height="715"
     inkscape:window-x="-8"
     inkscape:window-y="-8"
     inkscape:window-maximized="1"
     inkscape:current-layer="layer1"
     inkscape:lockguides="false"
     showguides="true" /><defs
     id="defs325" /><g
     inkscape:label="Layer 1"
     inkscape:groupmode="layer"
     id="layer1"><g
       id="g584"
       transform="translate(68.279033,40.809321)"
       style="display:inline"><path
         d="m -62.013076,-40.673118 c -0.88377,0 -1.68047,0.0181 -2.17578,0.0879 -0.30629,0.0432 -0.60522,0.0689 -0.92383,0.28906 -0.31861,0.22013 -0.44475,0.46536 -0.6289,0.75976 -0.12471,0.19938 -0.18531,0.42975 -0.28516,0.64844 -0.16293,0.006 -0.27456,0.0252 -0.33984,0.0312 -0.44893,0.0417 -0.92788,0.16598 -1.16602,0.74219 -0.11907,0.28811 -0.0701,0.68871 0.0977,0.93555 0.14112,0.20761 0.32652,0.29864 0.50781,0.38086 -0.0763,0.18011 -0.18473,0.32568 -0.20117,0.52148 -0.0297,0.35324 -0.0245,0.80655 -0.0117,1.61523 0.0124,0.78278 0.0222,1.23774 0.0606,1.58203 0.0192,0.17215 0.0437,0.32265 0.11328,0.49805 0.0696,0.1754 0.22235,0.37499 0.36133,0.47851 0.27203,0.20265 0.44842,0.21155 0.64258,0.24024 0.19416,0.0287 0.39537,0.0358 0.60547,0.0234 0.24559,-0.0144 0.4498,-0.0209 0.71875,-0.13477 0.10887,-0.0461 0.15261,-0.15995 0.24609,-0.24805 0.016,-0.004 0.0993,-0.023 0.20703,-0.0371 0.21739,-0.0285 0.54006,-0.0496 0.86133,-0.0645 0.64157,-0.0296 1.27931,-0.0312 1.28125,-0.0312 0,0 0.58171,2.9e-4 1.20117,0.0254 0.26194,0.0106 0.51449,0.0289 0.73828,0.0488 v 3.90235 c -3.20787,0.82749 -5.61719,3.66039 -5.61719,7.11718 v 1.98047 c 0,4.09749 3.33981,7.43946 7.4375,7.43946 h 40.90625 c 4.09771,0 7.4375005,-3.34197 7.4375005,-7.43946 v -1.98047 c 0,-3.35682 -2.2342005,-6.20729 -5.3027305,-7.12695 l -0.0449,-0.0137 -1.66211,-0.29102 -0.0742,0.002 -39.9043,-0.006 v -4.69726 c 0.0193,-0.30777 0.0317,-0.67803 0.041,-1.26758 0.0129,-0.80885 0.0181,-1.26203 -0.0117,-1.61523 -0.0165,-0.19603 -0.12308,-0.34168 -0.19922,-0.52149 0.18094,-0.0822 0.36506,-0.17542 0.50586,-0.38281 0.16777,-0.24711 0.21889,-0.64571 0.0996,-0.93359 -0.23856,-0.57578 -0.71907,-0.70048 -1.16797,-0.7422 -0.0654,-0.006 -0.17685,-0.0254 -0.33984,-0.0312 -0.0999,-0.21869 -0.1605,-0.44913 -0.28516,-0.64844 -0.18425,-0.29456 -0.31022,-0.54177 -0.6289,-0.76171 -0.31869,-0.21995 -0.6176,-0.24393 -0.92383,-0.28711 -0.49513,-0.0698 -1.29201,-0.0879 -2.17578,-0.0879 z m -2.01758,8.08592 c -0.11443,0.26088 -0.25247,0.31111 -0.30664,0.33985 -0.0519,0.0276 -0.0604,0.0253 -0.0547,0.0234 0.13694,-0.12932 0.30938,-0.24484 0.36133,-0.36328 z"
         style="color:#000000;fill:#ffffff;stroke:none;-inkscape-stroke:none"
         id="path3092" /><g
         id="g573"
         transform="translate(3.5607134,-30.413569)"><path
           id="path552"
           style="display:inline;fill:#000000;stroke:none;stroke-width:0.107844"
           d="m -67.634425,-9.3867632 c -0.600635,0.084683 -0.625826,0.1022515 -0.989254,0.683239 -0.205108,0.32792 -0.429998,0.8343646 -0.499824,1.1254153 -0.03618,0.1507796 -0.05299,0.24042 -0.06025,0.2919341 -0.0036,-0.012886 -0.01452,-0.023037 -0.03049,-0.023231 -0.102481,-6.91e-4 -0.02468,-0.2229448 -0.0928,-0.2933631 -0.125954,-0.1302531 -0.304843,-0.072826 -0.541215,-0.05089 -0.560829,0.052124 -0.706638,0.427627 -0.257039,0.5985675 0.149004,0.056673 0.37929,0.2062976 0.446914,0.3326981 0.100061,0.1868405 0.08615,0.2708074 -0.07429,0.4489618 -0.177135,0.1967402 -0.194497,0.4026238 -0.168968,2.01323 0.02468,1.5573377 0.05324,1.81237 0.215792,1.9334542 0.111193,0.082832 0.406248,0.1265336 0.726541,0.1077325 0.439182,-0.025796 0.558942,-0.076613 0.645633,-0.2742473 0.105386,-0.2402494 2.71623,-0.2426486 2.71623,-0.2426486 0,0 2.668364,0.00278 2.773713,0.2426486 0.08675,0.1976319 0.206463,0.2484806 0.645645,0.2742473 0.320294,0.018815 0.615227,-0.024901 0.726517,-0.1077325 0.162615,-0.1210889 0.191182,-0.3761165 0.215792,-1.9334542 0.02565,-1.6106062 0.0073,-1.8164898 -0.168968,-2.01323 -0.160437,-0.1781494 -0.17423,-0.2621213 -0.07417,-0.4489618 0.06764,-0.1263885 0.297934,-0.2760488 0.446913,-0.3326981 0.449599,-0.1709442 0.303814,-0.5464413 -0.257026,-0.5985675 -0.236385,-0.021997 -0.415262,-0.079384 -0.541216,0.05089 -0.068,0.070419 0.01089,0.2923492 -0.0928,0.2933631 -0.01633,1.584e-4 -0.02577,0.010289 -0.03049,0.023231 -0.0073,-0.051507 -0.02396,-0.1411619 -0.06025,-0.2919343 -0.06969,-0.2910507 -0.294716,-0.7974953 -0.499812,-1.1254153 -0.363428,-0.5809996 -0.388643,-0.5985472 -0.989254,-0.683239 -0.370688,-0.052245 -1.198428,-0.078815 -2.065841,-0.078815 -0.867426,0 -1.695142,0.026546 -2.065829,0.078815 z m 2.754137,0.2123253 c 2.183205,0.055717 2.051032,0.055439 2.416529,1.0124668 0.324044,0.8484845 0.536291,0.7960883 -3.076076,0.7638074 v -6.16e-4 c -0.01089,9.68e-5 -0.01815,2.686e-4 -0.0288,3.049e-4 -0.01089,-9.54e-5 -0.01815,-2.697e-4 -0.0288,-3.049e-4 v 6.16e-4 c -3.612392,0.032268 -3.400121,0.084683 -3.076076,-0.7638074 0.365497,-0.9570494 0.233299,-0.9567215 2.416541,-1.0124668 l 0.688283,-0.00907 c 0.230105,0 0.462339,0.00339 0.688307,0.00907 m -0.688307,-0.00907 c 0.225967,-0.00545 -0.230093,7.3e-6 0,0 z m -3.390611,1.819317 c 0.0036,-3.024e-4 0.0072,-1.899e-4 0.01089,1.597e-4 0.02105,0.00207 0.05275,0.012705 0.09486,0.028893 0.09982,0.038258 0.201913,0.069656 0.226705,0.069656 0.02493,0 0.04501,0.089801 0.04501,0.1995205 0,0.1097289 0.145918,0.4009093 0.324153,0.6470691 0.07598,0.1050589 0.05106,0.1525582 -0.0048,0.1728125 -0.02141,-0.023714 -0.04464,-0.048869 -0.07005,-0.075657 -0.182906,-0.1927719 -0.415734,-0.5153198 -0.517332,-0.7167375 -0.121054,-0.2397593 -0.156989,-0.3211529 -0.109015,-0.3257469 z m 6.78122,0 c 0.04791,0.00472 0.01089,0.08599 -0.109136,0.3257469 -0.101635,0.2014177 -0.334426,0.5239583 -0.517368,0.7167299 -0.02541,0.026824 -0.04864,0.051906 -0.07005,0.075657 -0.05638,-0.020254 -0.08131,-0.067769 -0.0048,-0.1728306 0.178405,-0.2461587 0.324178,-0.5373317 0.324178,-0.6470667 0,-0.109729 0.02033,-0.1995206 0.04525,-0.1995206 0.02468,0 0.126861,-0.031361 0.226693,-0.069656 0.04235,-0.016152 0.07393,-0.027042 0.09498,-0.028893 0.0036,-3.038e-4 0.0072,-6.135e-4 0.01089,-1.597e-4 z m -6.926872,0.861282 c 0.18149,-0.00134 0.404541,0.088192 0.611198,0.2620801 -0.0392,0 0.5047,0.3657292 0.611053,0.4832477 0.158259,0.1748464 0.168604,0.2433578 0.05735,0.3773979 -0.185749,0.2238039 -0.392854,0.2014843 -1.041221,-0.1123182 -0.566709,-0.2742908 -0.734406,-0.5267437 -0.558602,-0.8409018 0.06316,-0.1130078 0.17913,-0.1686018 0.320221,-0.1695094 z m 7.072536,0 c 0.141018,6.896e-4 0.256954,0.056468 0.320197,0.1695105 0.175864,0.314157 0.0073,0.566611 -0.558578,0.8408995 -0.648392,0.3138036 -0.855484,0.3361232 -1.041221,0.112318 -0.111314,-0.1340473 -0.100908,-0.2025477 0.05735,-0.377399 0.106353,-0.1175088 0.650255,-0.4832489 0.611041,-0.4832489 0.206669,-0.1739013 0.429793,-0.2632441 0.611211,-0.2620801 z m -3.219235,0.855116 c 0,0.052814 -0.139747,0.117642 -0.318842,0.1266608 -0.17913,-0.00907 -0.315272,-0.07383 -0.315272,-0.1266608 0,-0.055971 0.127394,-0.1124633 0.317051,-0.1124633 0.189621,0 0.317063,0.056528 0.317063,0.1124633 z m -0.345811,1.5333036 c -1.897165,0.031991 -2.218922,-0.00968 -2.379723,-0.2717136 -0.09982,-0.1624857 -0.05312,-0.2556107 0.283391,-0.5661876 0.43917,-0.3226301 0.702706,-0.3342685 1.040604,-0.3352545 0.262773,-6.074e-4 0.570544,-0.014882 1.084476,-0.014882 0.513955,-7.3e-6 0.821714,0.00689 1.084524,0.00774 0.337874,6.886e-4 0.60141,0.019783 1.040555,0.3424054 0.336592,0.3105768 0.383162,0.4036993 0.28344,0.5661802 -0.160801,0.2619569 -0.540079,0.3037043 -2.437267,0.2717209 m 0.02868,0.5399525 h 1.69e-4 c 1.21e-4,0 1.82e-4,9.7e-6 3.03e-4,0 l 2.204052,0.02985 -0.242641,0.2426473 c -0.230008,0.23004 -0.348037,0.2425278 -1.956196,0.2426512 -1.580113,-2.807e-4 -1.738639,-0.013975 -1.967244,-0.2426475 l -0.242664,-0.242749 z"
           sodipodi:nodetypes="sssccssssccccccccccsssscsccsscsccccccsscccccssssscccscssscsssccccssssccssscccscscscscsccsccssscccccccsc" /><g
           id="g562"
           transform="translate(-70.489604,17.778241)"><path
             style="color:#000000;fill:#000000;stroke-width:0.969219;stroke-linejoin:round;-inkscape-stroke:none"
             d="m 8.3509082,-15.265217 c -3.528706,0.157436 -6.344315,3.071524 -6.344315,6.63887 v 1.980241 C 2.0065932,-2.977994 4.9830502,0 8.6511482,0 H 49.55718 c 3.66811,0 6.64456,-2.977995 6.64456,-6.646106 v -1.980241 c 0,-3.004931 -1.99831,-5.545158 -4.73718,-6.366019 l -1.55241,-0.272329 c 0.0287,7.88e-4 0.0558,0.0021 -0.002,0.0021 l -13.14597,-0.0093 -1.26607,-9.2e-5 H 21.058136 l -1.265555,-5.18e-4 H 10.03762 Z"
             id="path554"
             sodipodi:nodetypes="cssssssccccccccc" /><path
             id="path556"
             style="color:#000000;fill:#aa072d;fill-opacity:1;stroke-width:0.969219;stroke-linejoin:round;-inkscape-stroke:none"
             d="m 8.6501179,-13.722185 c -2.8364832,0 -5.093746,2.259322 -5.093746,5.095812 v 1.980241 c 0,2.836491 2.2572628,5.095813 5.093746,5.095813 H 49.556148 c 2.836483,0 5.095813,-2.259322 5.095813,-5.095813 v -1.980241 c 0,-2.83649 -2.25933,-5.095813 -5.095813,-5.095813 z" /><g
             id="g560"
             transform="matrix(1.7905009,0,0,1.7905009,-24.119565,-36.721326)"
             style="fill:#ffffff"><path
               id="path558"
               style="fill:#ffffff;stroke-width:0.865405;stroke-linejoin:round"
               d="m 41.203211,14.730877 h 0.790862 v 1.121458 h 1.121459 v 0.783528 h -1.121459 v 1.121458 h -0.790862 v -1.121458 h -1.121459 v -0.783528 h 1.121459 z m -24.867523,0.04689 h 0.41128 v 1.293567 l 0.541213,-1.293567 h 0.458172 l -0.534926,1.101549 0.621635,1.640667 h -0.458171 l -0.389537,-1.175685 -0.238386,0.490655 v 0.68503 h -0.41128 z m 4.922524,0 h 0.411018 v 1.03082 c 0.0367,-0.07758 0.08319,-0.139731 0.139626,-0.185993 0.0767,-0.06287 0.162738,-0.09405 0.258294,-0.09405 0.130761,0 0.230794,0.04376 0.299947,0.131767 0.07041,0.08801 0.10557,0.215189 0.10557,0.381155 v 1.478512 h -0.411018 v -1.365345 c 0,-0.08172 -0.01656,-0.142877 -0.04925,-0.183111 -0.03269,-0.04149 -0.08158,-0.06208 -0.14696,-0.06208 -0.06538,0 -0.114532,0.02059 -0.147223,0.06208 -0.03269,0.04149 -0.04899,0.103796 -0.04899,0.186779 v 1.361677 h -0.411018 z m 4.382883,0 h 0.239433 v 0.388489 h -0.198043 c -0.04149,0 -0.07351,0.01457 -0.09614,0.04349 -0.02138,0.02892 -0.03196,0.06665 -0.03196,0.113167 v 0.239433 h 0.326142 v 0.367795 h -0.326142 v 1.589846 h -0.41128 v -1.589846 h -0.184683 v -0.367795 h 0.184683 v -0.265891 c 0,-0.172252 0.04087,-0.301734 0.122598,-0.388489 0.08173,-0.08676 0.206911,-0.130195 0.375391,-0.130195 z m 2.7988,0 h 0.41128 v 2.185809 c 0,0.05029 0.01116,0.08944 0.03379,0.117097 0.02389,0.0264 0.05732,0.03956 0.100069,0.03956 h 0.08278 v 0.399754 h -0.16032 c -0.148364,0 -0.263278,-0.04517 -0.345004,-0.135696 -0.08173,-0.09053 -0.122598,-0.218286 -0.122598,-0.382988 z m 0.89198,0 h 0.41128 v 2.185809 c 0,0.05029 0.01116,0.08944 0.03379,0.117097 0.02389,0.0264 0.05732,0.03956 0.100069,0.03956 h 0.08304 v 0.399754 h -0.160321 c -0.148356,0 -0.263539,-0.04517 -0.345265,-0.135696 -0.08173,-0.09053 -0.122598,-0.218287 -0.122598,-0.382988 z m 1.461747,0 h 1.350413 v 0.394252 h -0.469698 v 2.347964 H 31.263319 V 15.17202 h -0.469697 z m 4.91676,0 H 36.1214 v 2.742216 H 35.710382 V 17.28317 c -0.03261,0.07488 -0.07594,0.135558 -0.130195,0.182064 -0.07041,0.05909 -0.153307,0.08881 -0.248863,0.08881 -0.0855,0 -0.159226,-0.02201 -0.220834,-0.06601 -0.06035,-0.04401 -0.106673,-0.107464 -0.139364,-0.190447 -0.03143,-0.08424 -0.04715,-0.185687 -0.04715,-0.303875 v -0.895648 c 0,-0.119445 0.01572,-0.222045 0.04715,-0.307543 0.03269,-0.0855 0.07901,-0.150108 0.139364,-0.194114 0.06161,-0.04526 0.135336,-0.06785 0.220834,-0.06785 0.08801,0 0.168344,0.0306 0.241266,0.09221 0.05324,0.04498 0.09929,0.103084 0.137792,0.174205 z m -16.253419,0.01336 h 0.41128 v 0.409184 h -0.41128 z m 0.820464,0.201711 h 0.411018 v 0.569504 h 0.267987 v 0.382989 h -0.267987 v 1.027676 c 0,0.05029 0.01142,0.08944 0.03405,0.117097 0.02263,0.0264 0.05465,0.03956 0.09614,0.03956 h 0.137792 v 0.399754 h -0.194375 c -0.167223,0 -0.289841,-0.04345 -0.367795,-0.130195 -0.07795,-0.08676 -0.116835,-0.216238 -0.116835,-0.38849 v -1.065398 h -0.184945 v -0.382989 h 0.184945 z M 18.51783,15.52855 c 0.125732,0 0.233206,0.02431 0.322475,0.07335 0.08927,0.04903 0.157024,0.120772 0.203544,0.21507 0.04778,0.0943 0.07178,0.208061 0.07178,0.341337 v 0.533878 h -0.792173 v 0.2431 c 0,0.07544 0.01771,0.134023 0.05292,0.175515 0.03646,0.04023 0.0885,0.06025 0.156391,0.06025 0.06161,0 0.108769,-0.01572 0.141459,-0.04715 0.03395,-0.03143 0.05108,-0.0766 0.05108,-0.135697 v -0.03956 l 0.396086,0.0018 v 0.03379 c 0,0.179796 -0.05173,0.318973 -0.154819,0.417043 -0.1031,0.09807 -0.247726,0.146961 -0.433809,0.146961 -0.128246,0 -0.23745,-0.02459 -0.327976,-0.07361 -0.09053,-0.04904 -0.159696,-0.119934 -0.207474,-0.212975 -0.04778,-0.0943 -0.07178,-0.207485 -0.07178,-0.339503 V 16.19049 c 0,-0.139562 0.02342,-0.259036 0.06994,-0.358364 0.04652,-0.09933 0.113699,-0.174785 0.201711,-0.226335 0.08927,-0.05155 0.196167,-0.07728 0.320641,-0.07728 z m 5.641085,0 c 0.0074,-1.67e-4 0.01498,0 0.02253,0 0.120702,0 0.223617,0.02117 0.309115,0.06392 0.0855,0.04149 0.15037,0.10322 0.194376,0.184945 0.04525,0.08047 0.06785,0.177944 0.06785,0.292349 v 0.93337 c 0,0.114416 -0.0226,0.21272 -0.06785,0.294445 -0.04401,0.08173 -0.108879,0.143768 -0.194376,0.186517 -0.0855,0.04275 -0.188413,0.06418 -0.309115,0.06418 -0.120703,0 -0.224456,-0.02143 -0.311211,-0.06418 -0.0855,-0.04401 -0.150946,-0.106887 -0.196209,-0.188612 -0.04526,-0.08298 -0.06785,-0.182178 -0.06785,-0.297851 v -0.927869 c 0,-0.114405 0.02258,-0.21188 0.06785,-0.292349 0.04526,-0.08173 0.110712,-0.143453 0.196209,-0.184945 0.08133,-0.04008 0.177513,-0.06141 0.288682,-0.06392 z m 3.296527,0 c 0.124475,0 0.230796,0.02259 0.318808,0.06785 0.08801,0.04401 0.154613,0.109193 0.199877,0.195948 0.04652,0.0855 0.06968,0.188675 0.06968,0.309377 v 1.418261 H 27.649556 V 17.32718 c -0.0035,0.0092 -0.0073,0.01832 -0.01126,0.02698 -0.02892,0.06412 -0.07152,0.112437 -0.1281,0.145127 -0.05658,0.03269 -0.125748,0.04899 -0.207473,0.04899 -0.153393,0 -0.269722,-0.04658 -0.348933,-0.139626 -0.07795,-0.09304 -0.116835,-0.231379 -0.116835,-0.414947 0,-0.215001 0.05203,-0.377077 0.156391,-0.486463 0.105614,-0.109387 0.261664,-0.163988 0.467864,-0.163988 h 0.18835 v -0.241529 c 0,-0.06538 -0.01745,-0.115685 -0.05265,-0.15089 -0.03521,-0.03646 -0.08494,-0.05475 -0.149056,-0.05475 -0.05532,0 -0.09877,0.01829 -0.130195,0.05475 -0.03018,0.03521 -0.04506,0.08551 -0.04506,0.15089 h -0.396086 c 0,-0.182311 0.0503,-0.323217 0.15089,-0.422545 0.101842,-0.100577 0.244485,-0.150628 0.428045,-0.150628 z m 5.640824,0 v 0.426212 h -0.03956 -0.05265 c -0.128246,0 -0.228855,0.03458 -0.30178,0.103737 -0.07167,0.0679 -0.108243,0.161378 -0.1095,0.280823 v 1.180662 h -0.411018 v -1.957641 h 0.411018 v 0.271655 c 0.05345,-0.08513 0.117714,-0.153759 0.192542,-0.20564 0.0943,-0.06664 0.19779,-0.09981 0.310949,-0.09981 z m 0.882811,0 c 0.124474,0 0.230536,0.02259 0.318545,0.06785 0.08801,0.04401 0.154876,0.109193 0.200139,0.195948 0.04652,0.0855 0.06968,0.188675 0.06968,0.309377 v 1.418261 h -0.39425 V 17.32718 c -0.0035,0.0092 -0.0073,0.01832 -0.01127,0.02698 -0.02892,0.06412 -0.07152,0.112437 -0.128099,0.145127 -0.05658,0.03269 -0.125748,0.04899 -0.207474,0.04899 -0.153392,0 -0.269722,-0.04658 -0.348933,-0.139626 -0.07795,-0.09304 -0.117097,-0.231379 -0.117097,-0.414947 0,-0.215001 0.0523,-0.377077 0.156653,-0.486463 0.105615,-0.109387 0.261402,-0.163988 0.467602,-0.163988 h 0.188613 v -0.241529 c 0,-0.06538 -0.01745,-0.115685 -0.05266,-0.15089 -0.0352,-0.03646 -0.08493,-0.05475 -0.149056,-0.05475 -0.05532,0 -0.09876,0.01829 -0.130195,0.05475 -0.03018,0.03521 -0.04532,0.08551 -0.04532,0.15089 H 33.40013 c 0,-0.182311 0.05004,-0.323217 0.150628,-0.422545 0.101843,-0.100582 0.24474,-0.150628 0.428308,-0.150628 z m 3.091149,0 c 0.125732,0 0.233206,0.02431 0.322475,0.07335 0.08927,0.04903 0.157024,0.120772 0.203544,0.21507 0.04778,0.0943 0.07178,0.208061 0.07178,0.341337 v 0.533878 H 36.87585 v 0.2431 c 0,0.07544 0.01771,0.134023 0.05292,0.175515 0.03646,0.04023 0.0885,0.06025 0.156391,0.06025 0.06161,0 0.108769,-0.01572 0.141459,-0.04715 0.03395,-0.03143 0.05108,-0.0766 0.05108,-0.135697 v -0.03956 l 0.395824,0.0018 v 0.03379 c 0,0.179796 -0.05146,0.318973 -0.154557,0.417043 -0.1031,0.09807 -0.247727,0.146961 -0.433809,0.146961 -0.128246,0 -0.237449,-0.02458 -0.327976,-0.07361 -0.09053,-0.04904 -0.159696,-0.119934 -0.207474,-0.212975 -0.04778,-0.0943 -0.07178,-0.207485 -0.07178,-0.339503 V 16.19049 c 0,-0.139562 0.02316,-0.259036 0.06968,-0.358364 0.04652,-0.09933 0.113961,-0.174785 0.201973,-0.226335 0.08927,-0.05155 0.196167,-0.07728 0.320641,-0.07728 z m 1.45022,0 c 0.114417,0 0.213873,0.02259 0.298113,0.06785 0.08424,0.04526 0.149427,0.110712 0.195947,0.19621 0.04652,0.08424 0.06994,0.182858 0.06994,0.296017 v 0.02253 l -0.394252,0.0018 v -0.0262 c 0,-0.05909 -0.01514,-0.105678 -0.04532,-0.139626 -0.03017,-0.03395 -0.07162,-0.05082 -0.124432,-0.05082 -0.05155,0 -0.09242,0.01886 -0.122598,0.05658 -0.03017,0.03646 -0.04532,0.08677 -0.04532,0.15089 0,0.05029 0.012,0.09232 0.03589,0.126266 0.02515,0.03269 0.05716,0.05842 0.09614,0.07728 0.03898,0.01886 0.08986,0.03888 0.152723,0.06025 0.0025,0.0012 0.0051,0.0027 0.0076,0.0039 0.0025,0 0.0051,5.84e-4 0.0076,0.0018 0.0025,0.0013 0.0051,0.0024 0.0076,0.0037 0.0025,0 0.0042,5.83e-4 0.0055,0.0018 0.09807,0.03269 0.178663,0.06811 0.241529,0.105833 0.06412,0.03646 0.118148,0.09363 0.162154,0.171585 0.04526,0.0767 0.06785,0.18045 0.06785,0.311211 0,0.11693 -0.02458,0.219268 -0.07361,0.307281 -0.04904,0.08801 -0.118781,0.156028 -0.209307,0.203806 -0.09053,0.04652 -0.196586,0.06968 -0.318546,0.06968 -0.120702,0 -0.226447,-0.02374 -0.316973,-0.07152 -0.09053,-0.04903 -0.160849,-0.118204 -0.211142,-0.207474 -0.04904,-0.08927 -0.07361,-0.193861 -0.07361,-0.313306 v -0.02253 l 0.392157,-0.0018 v 0.02253 c 0,0.06915 0.01886,0.124593 0.05658,0.166084 0.03772,0.04023 0.08886,0.06025 0.152985,0.06025 0.06412,0 0.114428,-0.01944 0.15089,-0.05842 0.03772,-0.03898 0.05658,-0.09043 0.05658,-0.154557 0,-0.04778 -0.012,-0.0875 -0.03589,-0.118931 -0.02389,-0.03143 -0.05418,-0.05659 -0.09064,-0.07545 -0.03646,-0.01886 -0.08792,-0.04087 -0.154557,-0.06602 -0.0075,-0.0025 -0.01582,-0.0051 -0.02462,-0.0076 -0.0075,-0.0038 -0.01556,-0.0069 -0.02436,-0.0094 -0.0025,-0.0012 -0.0056,-0.0024 -0.0094,-0.0037 -0.0038,-0.0013 -0.0069,-0.0024 -0.0094,-0.0037 -0.0855,-0.0352 -0.159225,-0.07351 -0.220834,-0.115001 -0.06161,-0.04275 -0.113066,-0.101333 -0.154557,-0.175515 -0.04023,-0.07544 -0.06025,-0.170336 -0.06025,-0.284752 0,-0.115673 0.02258,-0.217436 0.06785,-0.305448 0.04652,-0.08801 0.111707,-0.155451 0.195947,-0.201972 0.0855,-0.04778 0.184954,-0.07152 0.298112,-0.07152 z m -19.063483,0.03379 h 0.41128 v 1.957641 h -0.41128 z m -0.939133,0.335835 c -0.06287,0 -0.111441,0.02374 -0.145389,0.07152 -0.03269,0.04652 -0.04899,0.113122 -0.04899,0.199877 v 0.20564 h 0.396087 V 16.15071 c 0,-0.08047 -0.01745,-0.142511 -0.05265,-0.186517 -0.03521,-0.04401 -0.08493,-0.06602 -0.149056,-0.06602 z m 18.552396,0 c -0.06287,0 -0.111441,0.02374 -0.145389,0.07152 -0.03269,0.04652 -0.04899,0.113122 -0.04899,0.199877 v 0.20564 h 0.396087 V 16.15071 c 0,-0.08047 -0.01771,-0.142511 -0.05292,-0.186517 -0.0352,-0.04401 -0.08467,-0.06602 -0.148794,-0.06602 z m -1.548456,0.0094 c -0.06035,0 -0.107514,0.02059 -0.141459,0.06208 -0.03395,0.04149 -0.05082,0.100078 -0.05082,0.175514 v 0.808938 c 0,0.06915 0.01687,0.123178 0.05082,0.162155 0.03395,0.03772 0.08111,0.05658 0.141459,0.05658 0.04023,0 0.07424,-0.0086 0.101903,-0.0262 0.02766,-0.0176 0.04883,-0.04359 0.06392,-0.07754 0.01509,-0.03395 0.02279,-0.0754 0.02279,-0.124432 v -0.803437 c 0,-0.04903 -0.0077,-0.09106 -0.02279,-0.126266 -0.01509,-0.0352 -0.03626,-0.06151 -0.06392,-0.07911 -0.02766,-0.01886 -0.06167,-0.02829 -0.101903,-0.02829 z m -11.34216,0.0037 c -0.05029,0 -0.09059,0.0163 -0.120764,0.04899 -0.02892,0.03269 -0.04349,0.07812 -0.04349,0.135959 v 0.878619 c 0,0.06035 0.01457,0.106936 0.04349,0.139626 0.02892,0.03269 0.06921,0.04899 0.120764,0.04899 0.05281,0 0.09284,-0.01572 0.120503,-0.04715 0.02892,-0.03269 0.04349,-0.07985 0.04349,-0.14146 V 16.09623 c 0,-0.05909 -0.01457,-0.104526 -0.04349,-0.135959 -0.02766,-0.03269 -0.0677,-0.04899 -0.120503,-0.04899 z m 3.294694,0.776978 c -0.08173,0 -0.143454,0.02573 -0.184945,0.07728 -0.04149,0.05155 -0.06208,0.127583 -0.06208,0.228169 0,0.06664 0.01572,0.116942 0.04715,0.15089 0.03143,0.03269 0.07803,0.04925 0.139625,0.04925 0.0767,0 0.135019,-0.02143 0.175253,-0.06418 0.04023,-0.04275 0.06025,-0.106206 0.06025,-0.190446 v -0.25096 z m 6.523634,0 c -0.08173,0 -0.143453,0.02573 -0.184945,0.07728 -0.04149,0.05155 -0.06208,0.127583 -0.06208,0.228169 0,0.06664 0.01572,0.116942 0.04715,0.15089 0.03143,0.03269 0.07776,0.04925 0.139364,0.04925 0.0767,0 0.13528,-0.02143 0.175514,-0.06418 0.04023,-0.04275 0.06025,-0.106206 0.06025,-0.190446 v -0.25096 z"
               sodipodi:nodetypes="ccccccccccccccccccccccccccccccscsccscsssccccccscsccccccccccssccccscsccssscccscsccsscccccccccccccccccsccssccsscccccccccccccscsccscsccccccccsccscscsccscsccssscccssccsscssccssccsscccsccccsscscscscscccccccccsccccccccscsccsccccsscscscscsccccsscccsccscscsccsssccsssccccscsccscscscscccccccsccsccsccscscssscccscccscccccccccccsccscccccsccsccccssscsssssscccccsssscssccccsscscsccssscssscs" /></g></g><path
           style="color:#000000;fill:#000000;stroke-linejoin:round;-inkscape-stroke:none"
           d="m -62.864604,-2.9181081 v 6.4550783 h 1.587891 v -6.4550783 z"
           id="path564" /></g></g></g></svg>
