<svg xmlns="http://www.w3.org/2000/svg" width="230" height="110" viewBox="0 0 60.854 29.104" xmlns:v="https://vecta.io/nano"><path d="M43.1.187h-7.073a1.6 1.6 0 0 0-1.585 1.585v5.442A1.6 1.6 0 0 0 36.027 8.8h.891l.054 3.266-27.298-.002-.035.001c-3.946.176-7.103 3.447-7.103 7.432v1.981c0 4.097 3.341 7.44 7.438 7.44H50.88c4.098 0 7.438-3.342 7.438-7.44v-1.981a7.45 7.45 0 0 0-5.303-7.126.8.8 0 0 0-.091-.022l-1.542-.27a.79.79 0 0 0-.15-.012l-11.135-.001-.015-3.267H43.1a1.6 1.6 0 0 0 1.585-1.585v-.193l.745.419-.058-.036a1.52 1.52 0 0 0 .365.193.94.94 0 0 0 .706-.005c.517-.19.573-.966.573-1.082l-.038-4.165c.002-.152.006-.307-.094-.535a1.07 1.07 0 0 0-.754-.546.86.86 0 0 0-.131-.001c-.278.016-.41.106-.53.177l-.784.451v-.119A1.6 1.6 0 0 0 43.1.187z" fill="#fff" stroke="none"/><path d="M36.027.981a.79.79 0 0 0-.792.792v5.441a.79.79 0 0 0 .792.792H43.1a.79.79 0 0 0 .792-.792V5.57 3.361 1.773A.79.79 0 0 0 43.1.981zm2.304.935h.023c.168.003.361.055.575.179l2.812 1.642c.391.226.871.943.02 1.51l-.462.288.397.532-.589-.424-1.857-1.318-2.358 1.647.648-.752.031-2.555c-.003-.311.271-.743.76-.749zm-.4 2.007v1.035l.539-.415v-.619zm1.319.777l1.533 1.089-2.125 1.229c-.422.191-1.04-.156-1.102-.646 0 0-.025.068-.02-.47zm-.397.521v.326h.326V5.22zm.389 0v.326h.326V5.22zm-.389.381v.326h.326v-.326zm.389 0v.326h.326v-.326zm6.805-3.546a.41.41 0 0 0-.17.066l-1.52.874-.013 2.923 1.476.83c.275.188.447.181.403-.231l-.038-4.185c.003-.187-.037-.271-.118-.278zM9.674 12.859a6.65 6.65 0 0 0-6.344 6.639v1.98a6.65 6.65 0 0 0 6.645 6.646H50.88a6.65 6.65 0 0 0 6.645-6.646v-1.98c0-3.005-1.998-5.545-4.737-6.366l-1.552-.272c.029.001.056.002-.002.002l-13.146-.009h-1.266-14.44l-1.266-.001h-9.755z"/><path d="M9.973 14.402c-2.836 0-5.094 2.259-5.094 5.096v1.98c0 2.836 2.257 5.096 5.094 5.096h40.906c2.836 0 5.096-2.259 5.096-5.096v-1.98c0-2.836-2.259-5.096-5.096-5.096z" fill="#aa072d"/><path d="M50.978 17.778h1.416v2.008h2.008v1.403h-2.008v2.008h-1.416v-2.008H48.97v-1.403h2.008zm-44.525.084h.736v2.316l.969-2.316h.82l-.958 1.972 1.113 2.938h-.82l-.697-2.105-.427.879v1.227h-.736zm8.814 0h.736v1.846c.066-.139.149-.25.25-.333a.71.71 0 0 1 .462-.168c.234 0 .413.078.537.236s.189.385.189.682v2.647h-.736v-2.445c0-.146-.03-.256-.088-.328s-.146-.111-.263-.111-.205.037-.264.111-.088.186-.088.334v2.438h-.736zm7.848 0h.429v.696h-.355c-.074 0-.132.026-.172.078s-.057.119-.057.203v.429h.584v.659h-.584v2.847h-.736v-2.847h-.331v-.659h.331v-.476c0-.308.073-.54.22-.696s.37-.233.672-.233zm5.011 0h.736v3.914c0 .09.02.16.061.21s.103.071.179.071h.148v.716h-.287c-.266 0-.471-.081-.618-.243s-.22-.391-.22-.686zm1.597 0h.736v3.914c0 .09.02.16.061.21s.103.071.179.071h.149v.716h-.287c-.266 0-.472-.081-.618-.243s-.22-.391-.22-.686zm2.617 0h2.418v.706h-.841v4.204h-.736v-4.204h-.841zm8.803 0h.736v4.91h-.736v-.424c-.058.134-.136.243-.233.326a.67.67 0 0 1-.446.159c-.153 0-.285-.039-.395-.118s-.191-.192-.25-.341a1.56 1.56 0 0 1-.084-.544v-1.604a1.6 1.6 0 0 1 .084-.551c.059-.153.141-.269.25-.348a.65.65 0 0 1 .395-.121c.158 0 .301.055.432.165.095.081.178.185.247.312zm-29.102.024h.736v.733h-.736zm1.469.361h.736v1.02h.48v.686h-.48v1.84c0 .09.02.16.061.21s.098.071.172.071h.247v.716h-.348c-.299 0-.519-.078-.659-.233s-.209-.387-.209-.696v-1.908h-.331v-.686h.331zm-3.151.959c.225 0 .418.044.577.131s.281.216.364.385.129.373.129.611v.956h-1.418v.435c0 .135.032.24.095.314s.158.108.28.108c.11 0 .195-.028.253-.084s.091-.137.091-.243v-.071l.709.003v.061c0 .322-.093.571-.277.747s-.444.263-.777.263c-.23 0-.425-.044-.587-.132a.88.88 0 0 1-.371-.381c-.086-.169-.129-.372-.129-.608v-1.31c0-.25.042-.464.125-.642s.204-.313.361-.405a1.13 1.13 0 0 1 .574-.138zm10.1 0h.04c.216 0 .4.038.553.114s.269.185.348.331.121.319.121.523v1.671c0 .205-.04.381-.121.527a.78.78 0 0 1-.348.334c-.153.077-.337.115-.553.115a1.25 1.25 0 0 1-.557-.115.82.82 0 0 1-.351-.338c-.081-.149-.121-.326-.121-.533v-1.661c0-.205.04-.379.121-.523a.78.78 0 0 1 .351-.331 1.22 1.22 0 0 1 .517-.114zm5.902 0c.223 0 .413.04.571.121s.277.196.358.351.125.338.125.554v2.539h-.706v-.345l-.02.048a.55.55 0 0 1-.229.26c-.101.059-.225.088-.371.088-.275 0-.483-.083-.625-.25s-.209-.414-.209-.743c0-.385.093-.675.28-.871s.469-.294.838-.294h.337v-.432c0-.117-.031-.207-.094-.27s-.152-.098-.267-.098c-.099 0-.177.033-.233.098s-.081.153-.081.27h-.709c0-.326.09-.579.27-.757s.438-.27.766-.27zm10.1 0v.763h-.071-.094c-.23 0-.41.062-.54.186s-.194.289-.196.503v2.114h-.736v-3.505h.736v.486c.096-.152.211-.275.345-.368.169-.119.354-.179.557-.179zm1.581 0c.223 0 .413.04.57.121s.277.196.358.351.125.338.125.554v2.539h-.706v-.345l-.02.048a.55.55 0 0 1-.229.26c-.101.059-.225.088-.371.088-.275 0-.483-.083-.625-.25s-.21-.414-.21-.743c0-.385.094-.675.28-.871s.468-.294.837-.294h.338v-.432c0-.117-.031-.207-.094-.27s-.152-.098-.267-.098c-.099 0-.177.033-.233.098s-.081.153-.081.27h-.709c0-.326.09-.579.27-.757s.438-.27.767-.27zm5.535 0c.225 0 .418.044.577.131s.281.216.364.385.129.373.129.611v.956H43.23v.435c0 .135.032.24.095.314s.158.108.28.108c.11 0 .195-.028.253-.084s.091-.137.091-.243v-.071l.709.003v.061c0 .322-.092.571-.277.747s-.444.263-.777.263c-.23 0-.425-.044-.587-.132a.88.88 0 0 1-.371-.381c-.086-.169-.129-.372-.129-.608v-1.31c0-.25.041-.464.125-.642s.204-.313.362-.405a1.13 1.13 0 0 1 .574-.138zm2.597 0c.205 0 .383.04.534.121a.85.85 0 0 1 .351.351 1.08 1.08 0 0 1 .125.53v.04l-.706.003v-.047c0-.106-.027-.189-.081-.25s-.128-.091-.223-.091-.165.034-.22.101-.081.155-.081.27c0 .09.021.165.064.226s.102.105.172.138.161.07.273.108l.027.01.023.01c.176.059.32.122.432.189s.212.168.29.307.121.323.121.557c0 .209-.044.393-.132.55a.9.9 0 0 1-.375.365c-.162.083-.352.125-.57.125a1.2 1.2 0 0 1-.568-.128.94.94 0 0 1-.378-.371c-.088-.16-.132-.347-.132-.561v-.04l.702-.003v.04c0 .124.034.223.101.297s.159.108.274.108.205-.035.27-.105a.38.38 0 0 0 .101-.277c0-.086-.021-.157-.064-.213s-.097-.101-.162-.135a2.73 2.73 0 0 0-.277-.118l-.044-.014c-.013-.007-.028-.012-.044-.017l-.034-.013c-.153-.063-.285-.132-.395-.206a.92.92 0 0 1-.277-.314c-.072-.135-.108-.305-.108-.51a1.18 1.18 0 0 1 .121-.547c.083-.158.2-.278.351-.362s.331-.128.534-.128zm-34.133.061h.736v3.505h-.736zm-1.682.601a.3.3 0 0 0-.26.128c-.059.083-.088.203-.088.358v.368h.709v-.402c0-.144-.031-.255-.094-.334s-.152-.118-.267-.118zm33.218 0a.3.3 0 0 0-.26.128c-.059.083-.088.203-.088.358v.368h.709v-.402c0-.144-.032-.255-.095-.334s-.152-.118-.266-.118zm-2.773.017c-.108 0-.193.037-.253.111s-.091.179-.091.314v1.448c0 .124.03.221.091.29s.145.101.253.101c.072 0 .133-.015.182-.047s.087-.078.114-.139.041-.135.041-.223v-1.439a.57.57 0 0 0-.041-.226c-.027-.063-.065-.11-.114-.142s-.11-.051-.182-.051zm-20.308.007a.28.28 0 0 0-.216.088c-.052.059-.078.14-.078.243v1.573c0 .108.026.191.078.25s.124.088.216.088.166-.028.216-.084.078-.143.078-.253v-1.573c0-.106-.026-.187-.078-.243s-.121-.088-.216-.088zm5.899 1.391c-.146 0-.257.046-.331.138s-.111.228-.111.409c0 .119.028.209.084.27s.14.088.25.088c.137 0 .242-.038.314-.115s.108-.19.108-.341v-.449zm11.681 0c-.146 0-.257.046-.331.138s-.111.228-.111.409c0 .119.028.209.084.27s.139.088.25.088c.137 0 .242-.038.314-.115s.108-.19.108-.341v-.449z" fill="#fff"/><path d="M38.491 13.882V7.428" fill="none" stroke="#000" stroke-width="1.588" stroke-linejoin="round"/></svg>