<svg xmlns="http://www.w3.org/2000/svg" width="230" height="110" viewBox="0 0 60.854 29.104" xmlns:v="https://vecta.io/nano"><path d="M6.266.136L4.09.224c-.306.043-.605.069-.924.289s-.445.465-.629.76c-.125.199-.185.43-.285.648-.163.006-.275.025-.34.031-.449.042-.928.166-1.166.742-.119.288-.07.689.098.936.141.208.327.299.508.381-.076.18-.185.326-.201.521-.03.353-.025.807-.012 1.615L1.2 7.73c.019.172.044.323.113.498s.222.375.361.479c.272.203.448.212.643.24s.395.036.605.023c.246-.014.45-.021.719-.135.109-.046.153-.16.246-.248a2.11 2.11 0 0 1 .207-.037c.217-.029.54-.05.861-.065l1.281-.031 1.201.025.738.049v3.902c-3.208.827-5.617 3.66-5.617 7.117v1.98c0 4.097 3.34 7.439 7.438 7.439h40.906c4.098 0 7.438-3.342 7.438-7.439v-1.98a7.45 7.45 0 0 0-5.303-7.127l-.045-.014-1.662-.291-.074.002-39.904-.006V7.415a27.29 27.29 0 0 0 .041-1.268c.013-.809.018-1.262-.012-1.615-.017-.196-.123-.342-.199-.521.181-.082.365-.175.506-.383a1.07 1.07 0 0 0 .1-.934c-.239-.576-.719-.7-1.168-.742-.065-.006-.177-.025-.34-.031-.1-.219-.16-.449-.285-.648-.184-.295-.31-.542-.629-.762S8.748.267 8.442.224C7.947.154 7.15.136 6.266.136zM4.248 8.222c-.114.261-.252.311-.307.34s-.06.025-.055.023c.137-.129.309-.245.361-.363z" fill="#fff"/><path d="M4.206 1.008c-.601.085-.626.102-.989.683a4.66 4.66 0 0 0-.5 1.125l-.06.292c-.004-.013-.015-.023-.03-.023-.102-.001-.025-.223-.093-.293-.126-.13-.305-.073-.541-.051-.561.052-.707.428-.257.599.149.057.379.206.447.333.1.187.086.271-.074.449-.177.197-.194.403-.169 2.013.025 1.557.053 1.812.216 1.933.111.083.406.127.727.108.439-.026.559-.077.646-.274.105-.24 2.716-.243 2.716-.243s2.668.003 2.774.243c.087.198.206.248.646.274.32.019.615-.025.727-.108.163-.121.191-.376.216-1.933.026-1.611.007-1.816-.169-2.013-.16-.178-.174-.262-.074-.449.068-.126.298-.276.447-.333.45-.171.304-.546-.257-.599-.236-.022-.415-.079-.541.051-.068.07.011.292-.093.293-.016 0-.026.01-.03.023a3.32 3.32 0 0 0-.06-.292c-.07-.291-.295-.797-.5-1.125-.363-.581-.389-.599-.989-.683C7.966.956 7.139.929 6.271.929l-2.066.079zm2.754.212c2.183.056 2.051.055 2.417 1.012.324.848.536.796-3.076.764v-.001h-.029-.029v.001c-3.612.032-3.4.085-3.076-.764.365-.957.233-.957 2.417-1.012l.688-.009.688.009m-.688-.009c.226-.005-.23 0 0 0zm-3.391 1.82a.37.37 0 0 1 .106.029c.1.038.202.07.227.07s.045.09.045.2.146.401.324.647c.076.105.051.153-.005.173l-.07-.076a3.68 3.68 0 0 1-.517-.717c-.121-.24-.157-.321-.109-.326zm6.781 0c.048.005.011.086-.109.326a3.68 3.68 0 0 1-.517.717l-.07.076c-.056-.02-.081-.068-.005-.173.178-.246.324-.537.324-.647s.02-.2.045-.2.127-.031.227-.07a.44.44 0 0 1 .095-.029zm-6.927.861c.181-.001.405.088.611.262-.039 0 .505.366.611.483.158.175.169.243.057.377-.186.224-.393.201-1.041-.112-.567-.274-.734-.527-.559-.841.063-.113.179-.169.32-.17zm7.073 0c.141.001.257.056.32.17.176.314.007.567-.559.841-.648.314-.855.336-1.041.112-.111-.134-.101-.203.057-.377.106-.118.65-.483.611-.483.207-.174.43-.263.611-.262zm-3.219.855c0 .053-.14.118-.319.127-.179-.009-.315-.074-.315-.127s.127-.112.317-.112.317.057.317.112zM6.243 6.28c-1.897.032-2.219-.01-2.38-.272-.1-.162-.053-.256.283-.566a1.47 1.47 0 0 1 1.041-.335l1.084-.015 1.085.008c.338.001.601.02 1.041.342.337.311.383.404.283.566-.161.262-.54.304-2.437.272m.029.54h0l2.204.03-.243.243c-.23.23-.348.243-1.956.243-1.58 0-1.739-.014-1.967-.243l-.243-.243zm3.429 6.088a6.65 6.65 0 0 0-6.344 6.639v1.98a6.65 6.65 0 0 0 6.645 6.646h40.906a6.65 6.65 0 0 0 6.645-6.646v-1.98c0-3.005-1.998-5.545-4.737-6.366l-1.552-.272c.029.001.056.002-.002.002l-13.146-.009H36.85 22.41l-1.266-.001h-9.755z"/><path d="M10 14.451c-2.836 0-5.094 2.259-5.094 5.096v1.98c0 2.836 2.257 5.096 5.094 5.096h40.906c2.836 0 5.096-2.259 5.096-5.096v-1.98c0-2.836-2.259-5.096-5.096-5.096z" fill="#aa072d"/><path d="M51.005 17.827h1.416v2.008h2.008v1.403h-2.008v2.008h-1.416v-2.008h-2.008v-1.403h2.008zm-44.525.084h.736v2.316l.969-2.316h.82l-.958 1.972 1.113 2.938h-.82l-.697-2.105-.427.879v1.227H6.48zm8.814 0h.736v1.846c.066-.139.149-.25.25-.333a.71.71 0 0 1 .462-.168c.234 0 .413.078.537.236s.189.385.189.682v2.647h-.736v-2.445c0-.146-.03-.256-.088-.328s-.146-.111-.263-.111-.205.037-.264.111-.088.186-.088.334v2.438h-.736zm7.848 0h.429v.696h-.355c-.074 0-.132.026-.172.078s-.057.119-.057.203v.429h.584v.659h-.584v2.847h-.736v-2.847h-.331v-.659h.331v-.476c0-.308.073-.54.22-.696s.37-.233.672-.233zm5.011 0h.736v3.914c0 .09.02.16.061.21s.103.071.179.071h.148v.716h-.287c-.266 0-.471-.081-.618-.243s-.22-.391-.22-.686zm1.597 0h.736v3.914c0 .09.02.16.061.21s.103.071.179.071h.149v.716h-.287c-.266 0-.472-.081-.618-.243s-.22-.391-.22-.686zm2.617 0h2.418v.706h-.841v4.204h-.736v-4.204h-.841zm8.803 0h.736v4.91h-.736v-.424c-.058.134-.136.243-.233.326a.67.67 0 0 1-.446.159c-.153 0-.285-.039-.395-.118s-.191-.192-.25-.341a1.56 1.56 0 0 1-.084-.544v-1.604a1.6 1.6 0 0 1 .084-.551c.059-.153.141-.269.25-.348a.65.65 0 0 1 .395-.121c.158 0 .301.055.432.165.095.081.178.185.247.312zm-29.102.024h.736v.733h-.736zm1.469.361h.736v1.02h.48v.686h-.48v1.84c0 .09.02.16.061.21s.098.071.172.071h.247v.716h-.348c-.299 0-.519-.078-.659-.233s-.209-.387-.209-.696v-1.908h-.331v-.686h.331zm-3.151.959c.225 0 .418.044.577.131s.281.216.364.385.129.373.129.611v.956h-1.418v.435c0 .135.032.24.095.314s.158.108.28.108c.11 0 .195-.028.253-.084s.091-.137.091-.243v-.071l.709.003v.061c0 .322-.093.571-.277.747s-.444.263-.777.263c-.23 0-.425-.044-.587-.132a.88.88 0 0 1-.371-.381c-.086-.169-.129-.372-.129-.608v-1.31c0-.25.042-.464.125-.642s.204-.313.361-.405a1.13 1.13 0 0 1 .574-.138zm10.1 0h.04c.216 0 .4.038.553.114s.269.185.348.331.121.319.121.523v1.671c0 .205-.04.381-.121.527a.78.78 0 0 1-.348.334c-.153.077-.337.115-.553.115a1.25 1.25 0 0 1-.557-.115.82.82 0 0 1-.351-.338c-.081-.149-.121-.326-.121-.533v-1.661c0-.205.04-.379.121-.523a.78.78 0 0 1 .351-.331 1.22 1.22 0 0 1 .517-.114zm5.902 0c.223 0 .413.04.571.121s.277.196.358.351.125.338.125.554v2.539h-.706v-.345l-.02.048a.55.55 0 0 1-.229.26c-.101.059-.225.088-.371.088-.275 0-.483-.083-.625-.25s-.209-.414-.209-.743c0-.385.093-.675.28-.871s.469-.294.838-.294h.337v-.432c0-.117-.031-.207-.094-.27s-.152-.098-.267-.098c-.099 0-.177.033-.233.098s-.081.153-.081.27h-.709c0-.326.09-.579.27-.757s.438-.27.766-.27zm10.1 0v.763h-.071-.094c-.23 0-.41.062-.54.186s-.194.289-.196.503v2.114h-.736v-3.505h.736v.486c.096-.152.211-.275.345-.368.169-.119.354-.179.557-.179zm1.581 0c.223 0 .413.04.57.121s.277.196.358.351.125.338.125.554v2.539h-.706v-.345l-.02.048a.55.55 0 0 1-.229.26c-.101.059-.225.088-.371.088-.275 0-.483-.083-.625-.25s-.21-.414-.21-.743c0-.385.094-.675.28-.871s.468-.294.837-.294h.338v-.432c0-.117-.031-.207-.094-.27s-.152-.098-.267-.098c-.099 0-.177.033-.233.098s-.081.153-.081.27h-.709c0-.326.09-.579.27-.757s.438-.27.767-.27zm5.535 0c.225 0 .418.044.577.131s.281.216.364.385.129.373.129.611v.956h-1.418v.435c0 .135.032.24.095.314s.158.108.28.108c.11 0 .195-.028.253-.084s.091-.137.091-.243v-.071l.709.003v.061c0 .322-.092.571-.277.747s-.444.263-.777.263c-.23 0-.425-.044-.587-.132a.88.88 0 0 1-.371-.381c-.086-.169-.129-.372-.129-.608v-1.31c0-.25.041-.464.125-.642s.204-.313.362-.405a1.13 1.13 0 0 1 .574-.138zm2.597 0c.205 0 .383.04.534.121a.85.85 0 0 1 .351.351 1.08 1.08 0 0 1 .125.53v.04l-.706.003v-.047c0-.106-.027-.189-.081-.25s-.128-.091-.223-.091-.165.034-.22.101-.081.155-.081.27c0 .09.021.165.064.226s.102.105.172.138.161.07.273.108l.027.01.023.01c.176.059.32.122.432.189s.212.168.29.307.121.323.121.557c0 .209-.044.393-.132.55a.9.9 0 0 1-.375.365c-.162.083-.352.125-.57.125a1.2 1.2 0 0 1-.568-.128.94.94 0 0 1-.378-.371c-.088-.16-.132-.347-.132-.561v-.04l.702-.003v.04c0 .124.034.223.101.297s.159.108.274.108.205-.035.27-.105a.38.38 0 0 0 .101-.277c0-.086-.021-.157-.064-.213s-.097-.101-.162-.135a2.73 2.73 0 0 0-.277-.118l-.044-.014c-.013-.007-.028-.012-.044-.017l-.034-.013c-.153-.063-.285-.132-.395-.206a.92.92 0 0 1-.277-.314c-.072-.135-.108-.305-.108-.51a1.18 1.18 0 0 1 .121-.547c.083-.158.2-.278.351-.362s.331-.128.534-.128zm-34.133.061h.736v3.505h-.736zm-1.682.601a.3.3 0 0 0-.26.128c-.059.083-.088.203-.088.358v.368h.709v-.402c0-.144-.031-.255-.094-.334s-.152-.118-.267-.118zm33.218 0a.3.3 0 0 0-.26.128c-.059.083-.088.203-.088.358v.368h.709v-.402c0-.144-.032-.255-.095-.334s-.152-.118-.266-.118zm-2.773.017c-.108 0-.193.037-.253.111s-.091.179-.091.314v1.448c0 .124.03.221.091.29s.145.101.253.101c.072 0 .133-.015.182-.047s.087-.078.114-.139.041-.135.041-.223v-1.439a.57.57 0 0 0-.041-.226c-.027-.063-.065-.11-.114-.142s-.11-.051-.182-.051zm-20.308.007a.28.28 0 0 0-.216.088c-.052.059-.078.14-.078.243v1.573c0 .108.026.191.078.25s.124.088.216.088.166-.028.216-.084.078-.143.078-.253v-1.573c0-.106-.026-.187-.078-.243s-.121-.088-.216-.088zm5.899 1.391c-.146 0-.257.046-.331.138s-.111.228-.111.409c0 .119.028.209.084.27s.14.088.25.088c.137 0 .242-.038.314-.115s.108-.19.108-.341v-.449zm11.681 0c-.146 0-.257.046-.331.138s-.111.228-.111.409c0 .119.028.209.084.27s.139.088.25.088c.137 0 .242-.038.314-.115s.108-.19.108-.341v-.449z" fill="#fff"/><path d="M8.975 7.477v6.455h1.588V7.477z"/></svg>