<?xml version="1.0" encoding="UTF-8" standalone="no"?>
<!-- Created with Inkscape (http://www.inkscape.org/) -->

<svg
   width="230"
   height="110"
   viewBox="0 0 60.854165 29.104167"
   version="1.1"
   id="svg1633"
   inkscape:version="1.2.2 (732a01da63, 2022-12-09)"
   sodipodi:docname="koatVideo.svg"
   xmlns:inkscape="http://www.inkscape.org/namespaces/inkscape"
   xmlns:sodipodi="http://sodipodi.sourceforge.net/DTD/sodipodi-0.dtd"
   xmlns="http://www.w3.org/2000/svg"
   xmlns:svg="http://www.w3.org/2000/svg">
  <sodipodi:namedview
     id="namedview1635"
     pagecolor="#ffffff"
     bordercolor="#000000"
     borderopacity="0.25"
     inkscape:showpageshadow="2"
     inkscape:pageopacity="0.0"
     inkscape:pagecheckerboard="0"
     inkscape:deskcolor="#d1d1d1"
     inkscape:document-units="mm"
     showgrid="false"
     inkscape:zoom="4.1625654"
     inkscape:cx="106.54487"
     inkscape:cy="71.230112"
     inkscape:window-width="1920"
     inkscape:window-height="1013"
     inkscape:window-x="-9"
     inkscape:window-y="-9"
     inkscape:window-maximized="1"
     inkscape:current-layer="layer1" />
  <defs
     id="defs1630" />
  <g
     inkscape:label="Layer 1"
     inkscape:groupmode="layer"
     id="layer1">
    <g
       id="g1628"
       style="display:inline"
       transform="translate(1.3229159)">
      <g
         id="g637"
         transform="matrix(0.14602013,0,0,0.14602013,110.45104,54.916924)"
         style="stroke:#ffffff;stroke-width:10.8718">
        <g
           id="path631">
          <path
             id="path1414"
             style="color:#000000;fill:#ffffff;stroke:none;stroke-linecap:round;stroke-linejoin:round;-inkscape-stroke:none"
             d="m -470.30681,-374.81232 -48.43821,0.004 c -5.92117,0 -10.85409,4.94071 -10.85409,10.85764 v 37.2656 c 0,5.91692 4.93288,10.85763 10.85409,10.85763 h 6.10123 l 0.37159,22.36644 -186.94734,-0.0106 c -0.0808,2e-4 -0.15997,0.003 -0.24065,0.007 -27.02096,1.20556 -48.64347,23.60363 -48.64347,50.89427 v 13.56496 c 0,28.06108 22.87777,50.9509 50.94027,50.9509 h 280.13967 c 28.06258,0 50.94028,-22.88983 50.94028,-50.9509 v -13.56496 c 0,-22.98874 -15.30282,-42.50454 -36.31716,-48.80272 -0.20394,-0.0616 -0.4131,-0.11138 -0.62286,-0.14864 l -10.55682,-1.84735 c -0.33908,-0.0598 -0.68204,-0.0902 -1.02631,-0.0849 l -76.2547,-0.004 -0.10263,-22.37352 h 20.65711 c 5.92121,0 10.85763,-4.93289 10.85763,-10.85409 v -1.32005 l 5.10323,2.87013 -0.3999,-0.24773 c 0.70035,0.47805 1.43326,0.93723 2.50206,1.32004 1.06882,0.38281 2.76641,0.81972 4.83427,-0.0319 3.54074,-1.29965 3.92084,-6.61311 3.92474,-7.40711 l -0.26188,-28.52429 c 0.016,-1.03855 0.0387,-2.10468 -0.64056,-3.6664 -0.67924,-1.56171 -3.08577,-3.56925 -5.16339,-3.73718 -0.0156,-0.001 -0.034,-0.006 -0.0496,-0.007 -0.30654,-0.0221 -0.57566,-0.017 -0.84936,0 -1.90163,0.11251 -2.81085,0.72592 -3.62746,1.21387 l -5.3722,3.086 v -0.8175 c 0,-5.92121 -4.93646,-10.85764 -10.85763,-10.85764 z" />
        </g>
        <g
           id="g633"
           transform="matrix(0.92043898,0,0,0.92043898,-86.315765,-68.386601)"
           style="fill:#ff0000;stroke-width:11.8115" />
      </g>
      <g
         id="g1608">
        <g
           id="g1595"
           transform="translate(4.0063391,-91.960297)">
          <g
             id="g1532"
             transform="matrix(0.14602013,0,0,0.14602013,29.212718,75.875847)"
             style="display:inline">
            <path
               id="path1526"
               style="fill:#000000;fill-opacity:1;stroke:none;stroke-width:0.973667;stroke-linecap:round;stroke-linejoin:round;stroke-dasharray:none;stroke-opacity:1"
               d="m 10.168888,116.86884 c -3.0035634,0 -5.4208574,2.41832 -5.4208574,5.42189 v 37.26542 c 0,3.00354 2.417294,5.42138 5.4208574,5.42138 h 48.437871 c 3.003554,0 5.420857,-2.41784 5.420857,-5.42138 v -11.25823 -15.12827 -10.87892 c 0,-3.00357 -2.417303,-5.42189 -5.420857,-5.42189 z m 15.779399,6.40374 c 0.0532,-3.6e-4 0.106776,-3.4e-4 0.160714,5.2e-4 1.150022,0.0183 2.468915,0.3785 3.939811,1.22628 7.053705,4.06535 11.37394,6.67643 19.255155,11.24582 2.675279,1.55112 5.963206,6.45952 0.139527,10.34201 -1.0509,0.64379 -3.167249,1.97352 -3.167249,1.97352 l 2.71818,3.64009 -4.034379,-2.90577 -12.719637,-9.02942 c -5.380322,3.76274 -10.75682,7.531 -16.146818,11.27993 l 4.437972,-5.14852 c 0.04041,-5.31229 0.259446,-12.46118 0.213424,-17.49661 -0.01942,-2.12662 1.853884,-5.08818 5.2033,-5.12785 z m -2.741952,13.74438 v 7.08691 l 3.690214,-2.84479 v -4.24212 z m 9.033041,5.31802 10.500134,7.45949 c -5.578858,3.32881 -11.664256,7.10817 -14.5526,8.41499 -2.888335,1.30682 -7.121941,-1.0713 -7.549927,-4.42246 0,0 -0.170616,0.46633 -0.138493,-3.21738 z m -2.71663,3.56619 v 2.23294 h 2.232422 v -2.23294 z m 2.661853,0 v 2.23294 h 2.232938 v -2.23294 z m -2.661853,2.60811 v 2.23191 h 2.232422 v -2.23191 z m 2.661853,0 v 2.23191 h 2.232938 v -2.23191 z" />
            <g
               id="g1528"
               transform="matrix(0.92043898,0,0,0.92043898,-86.315765,-68.386601)"
               style="fill:#ff0000;fill-opacity:1;stroke:#000000;stroke-width:0.143727;stroke-dasharray:none" />
            <path
               style="fill:#000000;fill-opacity:1;stroke:none;stroke-width:0.973667;stroke-linecap:round;stroke-linejoin:round;stroke-dasharray:none;stroke-opacity:1"
               d="m 78.79248,124.23004 c -0.31282,0.0177 -0.70256,0.17784 -1.16686,0.45527 l -10.40867,5.98207 -0.0899,20.01996 10.10532,5.68441 c 1.88416,1.2861 3.06178,1.24273 2.76108,-1.57871 l -0.26304,-28.66079 c 0.0197,-1.28123 -0.25473,-1.85639 -0.80873,-1.90117 -0.0416,-0.003 -0.0845,-0.004 -0.12919,-0.001 z"
               id="path1530" />
          </g>
          <g
             id="g1546"
             transform="translate(-4.006339,120.08371)">
            <path
               style="color:#000000;fill:#000000;stroke-width:0.969219;stroke-linejoin:round;-inkscape-stroke:none"
               d="m 8.3509082,-15.265217 c -3.528706,0.157436 -6.344315,3.071524 -6.344315,6.63887 v 1.980241 C 2.0065932,-2.977994 4.9830502,0 8.6511482,0 H 49.55718 c 3.66811,0 6.64456,-2.977995 6.64456,-6.646106 v -1.980241 c 0,-3.004931 -1.99831,-5.545158 -4.73718,-6.366019 l -1.55241,-0.272329 c 0.0287,7.88e-4 0.0558,0.0021 -0.002,0.0021 l -13.14597,-0.0093 -1.26607,-9.2e-5 H 21.058136 l -1.265555,-5.18e-4 H 10.03762 Z"
               id="path1538"
               sodipodi:nodetypes="cssssssccccccccc" />
            <path
               id="path1540"
               style="color:#000000;fill:#aa072d;fill-opacity:1;stroke-width:0.969219;stroke-linejoin:round;-inkscape-stroke:none"
               d="m 8.6501179,-13.722185 c -2.8364832,0 -5.093746,2.259322 -5.093746,5.095812 v 1.980241 c 0,2.836491 2.2572628,5.095813 5.093746,5.095813 H 49.556148 c 2.836483,0 5.095813,-2.259322 5.095813,-5.095813 v -1.980241 c 0,-2.83649 -2.25933,-5.095813 -5.095813,-5.095813 z" />
            <g
               id="g1544"
               transform="matrix(1.7905009,0,0,1.7905009,-24.119565,-36.721326)"
               style="fill:#ffffff">
              <path
                 id="path1542"
                 style="fill:#ffffff;stroke-width:0.865405;stroke-linejoin:round"
                 d="m 41.203211,14.730877 h 0.790862 v 1.121458 h 1.121459 v 0.783528 h -1.121459 v 1.121458 h -0.790862 v -1.121458 h -1.121459 v -0.783528 h 1.121459 z m -24.867523,0.04689 h 0.41128 v 1.293567 l 0.541213,-1.293567 h 0.458172 l -0.534926,1.101549 0.621635,1.640667 h -0.458171 l -0.389537,-1.175685 -0.238386,0.490655 v 0.68503 h -0.41128 z m 4.922524,0 h 0.411018 v 1.03082 c 0.0367,-0.07758 0.08319,-0.139731 0.139626,-0.185993 0.0767,-0.06287 0.162738,-0.09405 0.258294,-0.09405 0.130761,0 0.230794,0.04376 0.299947,0.131767 0.07041,0.08801 0.10557,0.215189 0.10557,0.381155 v 1.478512 h -0.411018 v -1.365345 c 0,-0.08172 -0.01656,-0.142877 -0.04925,-0.183111 -0.03269,-0.04149 -0.08158,-0.06208 -0.14696,-0.06208 -0.06538,0 -0.114532,0.02059 -0.147223,0.06208 -0.03269,0.04149 -0.04899,0.103796 -0.04899,0.186779 v 1.361677 h -0.411018 z m 4.382883,0 h 0.239433 v 0.388489 h -0.198043 c -0.04149,0 -0.07351,0.01457 -0.09614,0.04349 -0.02138,0.02892 -0.03196,0.06665 -0.03196,0.113167 v 0.239433 h 0.326142 v 0.367795 h -0.326142 v 1.589846 h -0.41128 v -1.589846 h -0.184683 v -0.367795 h 0.184683 v -0.265891 c 0,-0.172252 0.04087,-0.301734 0.122598,-0.388489 0.08173,-0.08676 0.206911,-0.130195 0.375391,-0.130195 z m 2.7988,0 h 0.41128 v 2.185809 c 0,0.05029 0.01116,0.08944 0.03379,0.117097 0.02389,0.0264 0.05732,0.03956 0.100069,0.03956 h 0.08278 v 0.399754 h -0.16032 c -0.148364,0 -0.263278,-0.04517 -0.345004,-0.135696 -0.08173,-0.09053 -0.122598,-0.218286 -0.122598,-0.382988 z m 0.89198,0 h 0.41128 v 2.185809 c 0,0.05029 0.01116,0.08944 0.03379,0.117097 0.02389,0.0264 0.05732,0.03956 0.100069,0.03956 h 0.08304 v 0.399754 h -0.160321 c -0.148356,0 -0.263539,-0.04517 -0.345265,-0.135696 -0.08173,-0.09053 -0.122598,-0.218287 -0.122598,-0.382988 z m 1.461747,0 h 1.350413 v 0.394252 h -0.469698 v 2.347964 H 31.263319 V 15.17202 h -0.469697 z m 4.91676,0 H 36.1214 v 2.742216 H 35.710382 V 17.28317 c -0.03261,0.07488 -0.07594,0.135558 -0.130195,0.182064 -0.07041,0.05909 -0.153307,0.08881 -0.248863,0.08881 -0.0855,0 -0.159226,-0.02201 -0.220834,-0.06601 -0.06035,-0.04401 -0.106673,-0.107464 -0.139364,-0.190447 -0.03143,-0.08424 -0.04715,-0.185687 -0.04715,-0.303875 v -0.895648 c 0,-0.119445 0.01572,-0.222045 0.04715,-0.307543 0.03269,-0.0855 0.07901,-0.150108 0.139364,-0.194114 0.06161,-0.04526 0.135336,-0.06785 0.220834,-0.06785 0.08801,0 0.168344,0.0306 0.241266,0.09221 0.05324,0.04498 0.09929,0.103084 0.137792,0.174205 z m -16.253419,0.01336 h 0.41128 v 0.409184 h -0.41128 z m 0.820464,0.201711 h 0.411018 v 0.569504 h 0.267987 v 0.382989 h -0.267987 v 1.027676 c 0,0.05029 0.01142,0.08944 0.03405,0.117097 0.02263,0.0264 0.05465,0.03956 0.09614,0.03956 h 0.137792 v 0.399754 h -0.194375 c -0.167223,0 -0.289841,-0.04345 -0.367795,-0.130195 -0.07795,-0.08676 -0.116835,-0.216238 -0.116835,-0.38849 v -1.065398 h -0.184945 v -0.382989 h 0.184945 z M 18.51783,15.52855 c 0.125732,0 0.233206,0.02431 0.322475,0.07335 0.08927,0.04903 0.157024,0.120772 0.203544,0.21507 0.04778,0.0943 0.07178,0.208061 0.07178,0.341337 v 0.533878 h -0.792173 v 0.2431 c 0,0.07544 0.01771,0.134023 0.05292,0.175515 0.03646,0.04023 0.0885,0.06025 0.156391,0.06025 0.06161,0 0.108769,-0.01572 0.141459,-0.04715 0.03395,-0.03143 0.05108,-0.0766 0.05108,-0.135697 v -0.03956 l 0.396086,0.0018 v 0.03379 c 0,0.179796 -0.05173,0.318973 -0.154819,0.417043 -0.1031,0.09807 -0.247726,0.146961 -0.433809,0.146961 -0.128246,0 -0.23745,-0.02459 -0.327976,-0.07361 -0.09053,-0.04904 -0.159696,-0.119934 -0.207474,-0.212975 -0.04778,-0.0943 -0.07178,-0.207485 -0.07178,-0.339503 V 16.19049 c 0,-0.139562 0.02342,-0.259036 0.06994,-0.358364 0.04652,-0.09933 0.113699,-0.174785 0.201711,-0.226335 0.08927,-0.05155 0.196167,-0.07728 0.320641,-0.07728 z m 5.641085,0 c 0.0074,-1.67e-4 0.01498,0 0.02253,0 0.120702,0 0.223617,0.02117 0.309115,0.06392 0.0855,0.04149 0.15037,0.10322 0.194376,0.184945 0.04525,0.08047 0.06785,0.177944 0.06785,0.292349 v 0.93337 c 0,0.114416 -0.0226,0.21272 -0.06785,0.294445 -0.04401,0.08173 -0.108879,0.143768 -0.194376,0.186517 -0.0855,0.04275 -0.188413,0.06418 -0.309115,0.06418 -0.120703,0 -0.224456,-0.02143 -0.311211,-0.06418 -0.0855,-0.04401 -0.150946,-0.106887 -0.196209,-0.188612 -0.04526,-0.08298 -0.06785,-0.182178 -0.06785,-0.297851 v -0.927869 c 0,-0.114405 0.02258,-0.21188 0.06785,-0.292349 0.04526,-0.08173 0.110712,-0.143453 0.196209,-0.184945 0.08133,-0.04008 0.177513,-0.06141 0.288682,-0.06392 z m 3.296527,0 c 0.124475,0 0.230796,0.02259 0.318808,0.06785 0.08801,0.04401 0.154613,0.109193 0.199877,0.195948 0.04652,0.0855 0.06968,0.188675 0.06968,0.309377 v 1.418261 H 27.649556 V 17.32718 c -0.0035,0.0092 -0.0073,0.01832 -0.01126,0.02698 -0.02892,0.06412 -0.07152,0.112437 -0.1281,0.145127 -0.05658,0.03269 -0.125748,0.04899 -0.207473,0.04899 -0.153393,0 -0.269722,-0.04658 -0.348933,-0.139626 -0.07795,-0.09304 -0.116835,-0.231379 -0.116835,-0.414947 0,-0.215001 0.05203,-0.377077 0.156391,-0.486463 0.105614,-0.109387 0.261664,-0.163988 0.467864,-0.163988 h 0.18835 v -0.241529 c 0,-0.06538 -0.01745,-0.115685 -0.05265,-0.15089 -0.03521,-0.03646 -0.08494,-0.05475 -0.149056,-0.05475 -0.05532,0 -0.09877,0.01829 -0.130195,0.05475 -0.03018,0.03521 -0.04506,0.08551 -0.04506,0.15089 h -0.396086 c 0,-0.182311 0.0503,-0.323217 0.15089,-0.422545 0.101842,-0.100577 0.244485,-0.150628 0.428045,-0.150628 z m 5.640824,0 v 0.426212 h -0.03956 -0.05265 c -0.128246,0 -0.228855,0.03458 -0.30178,0.103737 -0.07167,0.0679 -0.108243,0.161378 -0.1095,0.280823 v 1.180662 h -0.411018 v -1.957641 h 0.411018 v 0.271655 c 0.05345,-0.08513 0.117714,-0.153759 0.192542,-0.20564 0.0943,-0.06664 0.19779,-0.09981 0.310949,-0.09981 z m 0.882811,0 c 0.124474,0 0.230536,0.02259 0.318545,0.06785 0.08801,0.04401 0.154876,0.109193 0.200139,0.195948 0.04652,0.0855 0.06968,0.188675 0.06968,0.309377 v 1.418261 h -0.39425 V 17.32718 c -0.0035,0.0092 -0.0073,0.01832 -0.01127,0.02698 -0.02892,0.06412 -0.07152,0.112437 -0.128099,0.145127 -0.05658,0.03269 -0.125748,0.04899 -0.207474,0.04899 -0.153392,0 -0.269722,-0.04658 -0.348933,-0.139626 -0.07795,-0.09304 -0.117097,-0.231379 -0.117097,-0.414947 0,-0.215001 0.0523,-0.377077 0.156653,-0.486463 0.105615,-0.109387 0.261402,-0.163988 0.467602,-0.163988 h 0.188613 v -0.241529 c 0,-0.06538 -0.01745,-0.115685 -0.05266,-0.15089 -0.0352,-0.03646 -0.08493,-0.05475 -0.149056,-0.05475 -0.05532,0 -0.09876,0.01829 -0.130195,0.05475 -0.03018,0.03521 -0.04532,0.08551 -0.04532,0.15089 H 33.40013 c 0,-0.182311 0.05004,-0.323217 0.150628,-0.422545 0.101843,-0.100582 0.24474,-0.150628 0.428308,-0.150628 z m 3.091149,0 c 0.125732,0 0.233206,0.02431 0.322475,0.07335 0.08927,0.04903 0.157024,0.120772 0.203544,0.21507 0.04778,0.0943 0.07178,0.208061 0.07178,0.341337 v 0.533878 H 36.87585 v 0.2431 c 0,0.07544 0.01771,0.134023 0.05292,0.175515 0.03646,0.04023 0.0885,0.06025 0.156391,0.06025 0.06161,0 0.108769,-0.01572 0.141459,-0.04715 0.03395,-0.03143 0.05108,-0.0766 0.05108,-0.135697 v -0.03956 l 0.395824,0.0018 v 0.03379 c 0,0.179796 -0.05146,0.318973 -0.154557,0.417043 -0.1031,0.09807 -0.247727,0.146961 -0.433809,0.146961 -0.128246,0 -0.237449,-0.02458 -0.327976,-0.07361 -0.09053,-0.04904 -0.159696,-0.119934 -0.207474,-0.212975 -0.04778,-0.0943 -0.07178,-0.207485 -0.07178,-0.339503 V 16.19049 c 0,-0.139562 0.02316,-0.259036 0.06968,-0.358364 0.04652,-0.09933 0.113961,-0.174785 0.201973,-0.226335 0.08927,-0.05155 0.196167,-0.07728 0.320641,-0.07728 z m 1.45022,0 c 0.114417,0 0.213873,0.02259 0.298113,0.06785 0.08424,0.04526 0.149427,0.110712 0.195947,0.19621 0.04652,0.08424 0.06994,0.182858 0.06994,0.296017 v 0.02253 l -0.394252,0.0018 v -0.0262 c 0,-0.05909 -0.01514,-0.105678 -0.04532,-0.139626 -0.03017,-0.03395 -0.07162,-0.05082 -0.124432,-0.05082 -0.05155,0 -0.09242,0.01886 -0.122598,0.05658 -0.03017,0.03646 -0.04532,0.08677 -0.04532,0.15089 0,0.05029 0.012,0.09232 0.03589,0.126266 0.02515,0.03269 0.05716,0.05842 0.09614,0.07728 0.03898,0.01886 0.08986,0.03888 0.152723,0.06025 0.0025,0.0012 0.0051,0.0027 0.0076,0.0039 0.0025,0 0.0051,5.84e-4 0.0076,0.0018 0.0025,0.0013 0.0051,0.0024 0.0076,0.0037 0.0025,0 0.0042,5.83e-4 0.0055,0.0018 0.09807,0.03269 0.178663,0.06811 0.241529,0.105833 0.06412,0.03646 0.118148,0.09363 0.162154,0.171585 0.04526,0.0767 0.06785,0.18045 0.06785,0.311211 0,0.11693 -0.02458,0.219268 -0.07361,0.307281 -0.04904,0.08801 -0.118781,0.156028 -0.209307,0.203806 -0.09053,0.04652 -0.196586,0.06968 -0.318546,0.06968 -0.120702,0 -0.226447,-0.02374 -0.316973,-0.07152 -0.09053,-0.04903 -0.160849,-0.118204 -0.211142,-0.207474 -0.04904,-0.08927 -0.07361,-0.193861 -0.07361,-0.313306 v -0.02253 l 0.392157,-0.0018 v 0.02253 c 0,0.06915 0.01886,0.124593 0.05658,0.166084 0.03772,0.04023 0.08886,0.06025 0.152985,0.06025 0.06412,0 0.114428,-0.01944 0.15089,-0.05842 0.03772,-0.03898 0.05658,-0.09043 0.05658,-0.154557 0,-0.04778 -0.012,-0.0875 -0.03589,-0.118931 -0.02389,-0.03143 -0.05418,-0.05659 -0.09064,-0.07545 -0.03646,-0.01886 -0.08792,-0.04087 -0.154557,-0.06602 -0.0075,-0.0025 -0.01582,-0.0051 -0.02462,-0.0076 -0.0075,-0.0038 -0.01556,-0.0069 -0.02436,-0.0094 -0.0025,-0.0012 -0.0056,-0.0024 -0.0094,-0.0037 -0.0038,-0.0013 -0.0069,-0.0024 -0.0094,-0.0037 -0.0855,-0.0352 -0.159225,-0.07351 -0.220834,-0.115001 -0.06161,-0.04275 -0.113066,-0.101333 -0.154557,-0.175515 -0.04023,-0.07544 -0.06025,-0.170336 -0.06025,-0.284752 0,-0.115673 0.02258,-0.217436 0.06785,-0.305448 0.04652,-0.08801 0.111707,-0.155451 0.195947,-0.201972 0.0855,-0.04778 0.184954,-0.07152 0.298112,-0.07152 z m -19.063483,0.03379 h 0.41128 v 1.957641 h -0.41128 z m -0.939133,0.335835 c -0.06287,0 -0.111441,0.02374 -0.145389,0.07152 -0.03269,0.04652 -0.04899,0.113122 -0.04899,0.199877 v 0.20564 h 0.396087 V 16.15071 c 0,-0.08047 -0.01745,-0.142511 -0.05265,-0.186517 -0.03521,-0.04401 -0.08493,-0.06602 -0.149056,-0.06602 z m 18.552396,0 c -0.06287,0 -0.111441,0.02374 -0.145389,0.07152 -0.03269,0.04652 -0.04899,0.113122 -0.04899,0.199877 v 0.20564 h 0.396087 V 16.15071 c 0,-0.08047 -0.01771,-0.142511 -0.05292,-0.186517 -0.0352,-0.04401 -0.08467,-0.06602 -0.148794,-0.06602 z m -1.548456,0.0094 c -0.06035,0 -0.107514,0.02059 -0.141459,0.06208 -0.03395,0.04149 -0.05082,0.100078 -0.05082,0.175514 v 0.808938 c 0,0.06915 0.01687,0.123178 0.05082,0.162155 0.03395,0.03772 0.08111,0.05658 0.141459,0.05658 0.04023,0 0.07424,-0.0086 0.101903,-0.0262 0.02766,-0.0176 0.04883,-0.04359 0.06392,-0.07754 0.01509,-0.03395 0.02279,-0.0754 0.02279,-0.124432 v -0.803437 c 0,-0.04903 -0.0077,-0.09106 -0.02279,-0.126266 -0.01509,-0.0352 -0.03626,-0.06151 -0.06392,-0.07911 -0.02766,-0.01886 -0.06167,-0.02829 -0.101903,-0.02829 z m -11.34216,0.0037 c -0.05029,0 -0.09059,0.0163 -0.120764,0.04899 -0.02892,0.03269 -0.04349,0.07812 -0.04349,0.135959 v 0.878619 c 0,0.06035 0.01457,0.106936 0.04349,0.139626 0.02892,0.03269 0.06921,0.04899 0.120764,0.04899 0.05281,0 0.09284,-0.01572 0.120503,-0.04715 0.02892,-0.03269 0.04349,-0.07985 0.04349,-0.14146 V 16.09623 c 0,-0.05909 -0.01457,-0.104526 -0.04349,-0.135959 -0.02766,-0.03269 -0.0677,-0.04899 -0.120503,-0.04899 z m 3.294694,0.776978 c -0.08173,0 -0.143454,0.02573 -0.184945,0.07728 -0.04149,0.05155 -0.06208,0.127583 -0.06208,0.228169 0,0.06664 0.01572,0.116942 0.04715,0.15089 0.03143,0.03269 0.07803,0.04925 0.139625,0.04925 0.0767,0 0.135019,-0.02143 0.175253,-0.06418 0.04023,-0.04275 0.06025,-0.106206 0.06025,-0.190446 v -0.25096 z m 6.523634,0 c -0.08173,0 -0.143453,0.02573 -0.184945,0.07728 -0.04149,0.05155 -0.06208,0.127583 -0.06208,0.228169 0,0.06664 0.01572,0.116942 0.04715,0.15089 0.03143,0.03269 0.07776,0.04925 0.139364,0.04925 0.0767,0 0.13528,-0.02143 0.175514,-0.06418 0.04023,-0.04275 0.06025,-0.106206 0.06025,-0.190446 v -0.25096 z"
                 sodipodi:nodetypes="ccccccccccccccccccccccccccccccscsccscsssccccccscsccccccccccssccccscsccssscccscsccsscccccccccccccccccsccssccsscccccccccccccscsccscsccccccccsccscscsccscsccssscccssccsscssccssccsscccsccccsscscscscscccccccccsccccccccscsccsccccsscscscscsccccsscccsccscscsccsssccsssccccscsccscscscscccccccsccsccsccscscssscccscccscccccccccccsccscccccsccsccccssscsssssscccccsssscssccccsscscsccssscssscs" />
            </g>
          </g>
          <path
             style="font-variation-settings:'wght' 700;fill:none;fill-opacity:1;stroke:#000000;stroke-width:1.5875;stroke-linejoin:round"
             d="M 33.161943,105.84233 V 99.387772"
             id="path1560" />
        </g>
      </g>
    </g>
  </g>
</svg>
