<svg xmlns="http://www.w3.org/2000/svg" width="230" height="110" viewBox="0 0 60.854 29.104" xmlns:v="https://vecta.io/nano"><path d="M19.553.157c-2.004.018-3.74 1.544-4.062 3.51a4.23 4.23 0 0 0 2.773 4.76c1.46.537 3.048.092 4.188-.934v4.596l-12.777.006-.035.002c-3.946.176-7.104 3.447-7.104 7.432v1.98c0 4.097 3.342 7.439 7.439 7.439h40.906c4.098 0 7.438-3.342 7.438-7.439v-1.98a7.45 7.45 0 0 0-5.303-7.127c-.029-.009-.06-.016-.09-.021l-1.541-.27a.79.79 0 0 0-.15-.012h-.002l-14.41-.01h-.002-11.039V7.046h.234a4.6 4.6 0 0 1 .196.377l.482.98c.04.072.078.134.133.205.027.036.054.073.121.135.034.031.072.069.17.121.049.026.216.08.217.08a110.16 110.16 0 0 0 .416-.025c0 0 .182-.086.182-.086s.031-.024.059-.045c.118.087.258.14.404.152a190.88 190.88 0 0 0 .203-.025 104.23 104.23 0 0 0 .123-.043c.001 0 .099-.053.127-.072.056-.038.08-.062.1-.08.04-.037.054-.056.07-.074.032-.037.054-.064.076-.092l.094-.121c.229-.297.219-.713-.023-.998l.063-.131a306.45 306.45 0 0 0 .039-.197c0 0-.041-.299-.041-.299s-.021-.04-.037-.072c.231-.092.468-.142.68-.336 1.261-1.031 1.21-3.043-.129-3.99-.372-.267-.914-.583-1.605-.496l.102-.006-5.24-.02C22.204.866 21.046.124 19.694.159l-.141-.002z" fill="#fff"/><path d="M9.674 12.889a6.65 6.65 0 0 0-6.344 6.639v1.98a6.65 6.65 0 0 0 6.645 6.646H50.88a6.65 6.65 0 0 0 6.645-6.646v-1.98c0-3.005-1.998-5.545-4.737-6.366l-1.552-.272c.029.001.056.002-.002.002l-13.146-.009h-1.266-14.44l-1.266-.001h-9.755z"/><path d="M9.973 14.432c-2.836 0-5.094 2.259-5.094 5.096v1.98c0 2.836 2.257 5.096 5.094 5.096h40.906c2.836 0 5.096-2.259 5.096-5.096v-1.98c0-2.836-2.259-5.096-5.096-5.096z" fill="#aa072d"/><path d="M50.978 17.808h1.416v2.008h2.008v1.403h-2.008v2.008h-1.416v-2.008H48.97v-1.403h2.008zm-44.525.084h.736v2.316l.969-2.316h.82l-.958 1.972 1.113 2.938h-.82l-.697-2.105-.427.879v1.227h-.736zm8.814 0h.736v1.846c.066-.139.149-.25.25-.333a.71.71 0 0 1 .462-.168c.234 0 .413.078.537.236s.189.385.189.682v2.647h-.736v-2.445c0-.146-.03-.256-.088-.328s-.146-.111-.263-.111-.205.037-.264.111-.088.186-.088.334v2.438h-.736zm7.848 0h.429v.696h-.355c-.074 0-.132.026-.172.078s-.057.119-.057.203v.429h.584v.659h-.584v2.847h-.736v-2.847h-.331v-.659h.331v-.476c0-.308.073-.54.22-.696s.37-.233.672-.233zm5.011 0h.736v3.914c0 .09.02.16.061.21s.103.071.179.071h.148v.716h-.287c-.266 0-.471-.081-.618-.243s-.22-.391-.22-.686zm1.597 0h.736v3.914c0 .09.02.16.061.21s.103.071.179.071h.149v.716h-.287c-.266 0-.472-.081-.618-.243s-.22-.391-.22-.686zm2.617 0h2.418v.706h-.841v4.204h-.736v-4.204h-.841zm8.803 0h.736v4.91h-.736v-.424c-.058.134-.136.243-.233.326a.67.67 0 0 1-.446.159c-.153 0-.285-.039-.395-.118s-.191-.192-.25-.341a1.56 1.56 0 0 1-.084-.544v-1.604a1.6 1.6 0 0 1 .084-.551c.059-.153.141-.269.25-.348a.65.65 0 0 1 .395-.121c.158 0 .301.055.432.165.095.081.178.185.247.312zm-29.102.024h.736v.733h-.736zm1.469.361h.736v1.02h.48v.686h-.48v1.84c0 .09.02.16.061.21s.098.071.172.071h.247v.716h-.348c-.299 0-.519-.078-.659-.233s-.209-.387-.209-.696v-1.908h-.331v-.686h.331zm-3.151.959c.225 0 .418.044.577.131s.281.216.364.385.129.373.129.611v.956h-1.418v.435c0 .135.032.24.095.314s.158.108.28.108c.11 0 .195-.028.253-.084s.091-.137.091-.243v-.071l.709.003v.061c0 .322-.093.571-.277.747s-.444.263-.777.263c-.23 0-.425-.044-.587-.132a.88.88 0 0 1-.371-.381c-.086-.169-.129-.372-.129-.608v-1.31c0-.25.042-.464.125-.642s.204-.313.361-.405a1.13 1.13 0 0 1 .574-.138zm10.1 0h.04c.216 0 .4.038.553.114s.269.185.348.331.121.319.121.523v1.671c0 .205-.04.381-.121.527a.78.78 0 0 1-.348.334c-.153.077-.337.115-.553.115a1.25 1.25 0 0 1-.557-.115.82.82 0 0 1-.351-.338c-.081-.149-.121-.326-.121-.533v-1.661c0-.205.04-.379.121-.523a.78.78 0 0 1 .351-.331 1.22 1.22 0 0 1 .517-.114zm5.902 0c.223 0 .413.04.571.121s.277.196.358.351.125.338.125.554v2.539h-.706v-.345l-.02.048a.55.55 0 0 1-.229.26c-.101.059-.225.088-.371.088-.275 0-.483-.083-.625-.25s-.209-.414-.209-.743c0-.385.093-.675.28-.871s.469-.294.838-.294h.337v-.432c0-.117-.031-.207-.094-.27s-.152-.098-.267-.098c-.099 0-.177.033-.233.098s-.081.153-.081.27h-.709c0-.326.09-.579.27-.757s.438-.27.766-.27zm10.1 0V20h-.071-.094c-.23 0-.41.062-.54.186s-.194.289-.196.503v2.114h-.736v-3.505h.736v.486c.096-.152.211-.275.345-.368.169-.119.354-.179.557-.179zm1.581 0c.223 0 .413.04.57.121s.277.196.358.351.125.338.125.554v2.539h-.706v-.345l-.02.048a.55.55 0 0 1-.229.26c-.101.059-.225.088-.371.088-.275 0-.483-.083-.625-.25s-.21-.414-.21-.743c0-.385.094-.675.28-.871s.468-.294.837-.294h.338v-.432c0-.117-.031-.207-.094-.27s-.152-.098-.267-.098c-.099 0-.177.033-.233.098s-.081.153-.081.27h-.709c0-.326.09-.579.27-.757s.438-.27.767-.27zm5.535 0c.225 0 .418.044.577.131s.281.216.364.385.129.373.129.611v.956H43.23v.435c0 .135.032.24.095.314s.158.108.28.108c.11 0 .195-.028.253-.084s.091-.137.091-.243v-.071l.709.003v.061c0 .322-.092.571-.277.747s-.444.263-.777.263c-.23 0-.425-.044-.587-.132a.88.88 0 0 1-.371-.381c-.086-.169-.129-.372-.129-.608v-1.31c0-.25.041-.464.125-.642s.204-.313.362-.405a1.13 1.13 0 0 1 .574-.138zm2.597 0c.205 0 .383.04.534.121a.85.85 0 0 1 .351.351 1.08 1.08 0 0 1 .125.53v.04l-.706.003v-.047c0-.106-.027-.189-.081-.25s-.128-.091-.223-.091-.165.034-.22.101-.081.155-.081.27c0 .09.021.165.064.226s.102.105.172.138.161.07.273.108l.027.01.023.01c.176.059.32.122.432.189s.212.168.29.307.121.323.121.557c0 .209-.044.393-.132.55a.9.9 0 0 1-.375.365c-.162.083-.352.125-.57.125a1.2 1.2 0 0 1-.568-.128.94.94 0 0 1-.378-.371c-.088-.16-.132-.347-.132-.561v-.04l.702-.003v.04c0 .124.034.223.101.297s.159.108.274.108.205-.035.27-.105a.38.38 0 0 0 .101-.277c0-.086-.021-.157-.064-.213s-.097-.101-.162-.135a2.73 2.73 0 0 0-.277-.118l-.044-.014c-.013-.007-.028-.012-.044-.017l-.034-.013c-.153-.063-.285-.132-.395-.206a.92.92 0 0 1-.277-.314c-.072-.135-.108-.305-.108-.51a1.18 1.18 0 0 1 .121-.547c.083-.158.2-.278.351-.362s.331-.128.534-.128zm-34.133.061h.736v3.505h-.736zm-1.682.601a.3.3 0 0 0-.26.128c-.059.083-.088.203-.088.358v.368h.709v-.402c0-.144-.031-.255-.094-.334s-.152-.118-.267-.118zm33.218 0a.3.3 0 0 0-.26.128c-.059.083-.088.203-.088.358v.368h.709v-.402c0-.144-.032-.255-.095-.334s-.152-.118-.266-.118zm-2.773.017c-.108 0-.193.037-.253.111s-.091.179-.091.314v1.448c0 .124.03.221.091.29s.145.101.253.101c.072 0 .133-.015.182-.047s.087-.078.114-.139.041-.135.041-.223v-1.439a.57.57 0 0 0-.041-.226c-.027-.063-.065-.11-.114-.142s-.11-.051-.182-.051zm-20.308.007a.28.28 0 0 0-.216.088c-.052.059-.078.14-.078.243v1.573c0 .108.026.191.078.25s.124.088.216.088.166-.028.216-.084.078-.143.078-.253v-1.573c0-.106-.026-.187-.078-.243s-.121-.088-.216-.088zm5.899 1.391c-.146 0-.257.046-.331.138s-.111.228-.111.409c0 .119.028.209.084.27s.14.088.25.088c.137 0 .242-.038.314-.115s.108-.19.108-.341v-.449zm11.681 0c-.146 0-.257.046-.331.138s-.111.228-.111.409c0 .119.028.209.084.27s.139.088.25.088c.137 0 .242-.038.314-.115s.108-.19.108-.341v-.449z" fill="#fff"/><path d="M19.713.953c-1.647-.07-3.183 1.233-3.444 2.849-.323 1.618.693 3.363 2.26 3.88a3.47 3.47 0 0 0 3.757-.978c.214-.162.264-.56.595-.46l3.137.008c-.145-.292-.54-.936.076-.579l1.567.557c.586.009 1.233.007 1.689-.423.852-.672.818-2.125-.071-2.753-.305-.219-.663-.404-1.047-.356l-5.535-.022C22.083 1.642 20.933.921 19.713.953zm-.212.427v.71.709l-.192-.004c-.106-.003-.229-.012-.273-.021l-.414-.082c-.183-.036-.334-.074-.334-.084s.068-.148.15-.305a2.02 2.02 0 0 1 1.062-.923zm.283 0c.239.07.54.233.735.444s.477.663.477.766c0 .023-.123.07-.273.104s-.422.074-.606.09l-.333.028v-.716zm-1.244.208c.016 0-.041.094-.129.21a3.72 3.72 0 0 0-.288.465c-.071.14-.14.254-.153.253-.051-.005-.449-.217-.447-.238.007-.083.899-.687 1.018-.689zm2.215.017c.03.003.14.053.271.122.294.155.737.484.737.547 0 .021-.068.073-.151.116-.298.15-.302.149-.424-.112a2.7 2.7 0 0 0-.272-.442l-.163-.228zm-3.447.915l.576.297c-.045.176-.175.817-.189 1.023l-.025.374h-.504-.504l.027-.241a3.75 3.75 0 0 1 .62-1.453zm4.678.005l.09.107c.236.278.481.904.553 1.411l.024.171h-.498-.498l-.049-.414c-.027-.228-.082-.545-.124-.705l-.075-.291.288-.14zm-3.812.368l.309.074c.17.041.469.087.664.101l.354.026v1.119h-.768-.769l.001-.171c0-.219.128-.859.209-1.149zm2.95 0l.036.092c.043.113.144.675.18.996l.026.232h-.793-.792l.022-1.111.367-.03c.202-.017.499-.064.66-.105zm7.257.773l.055.188.114.43c.033.133.067.235.075.228s.065-.196.129-.419l.116-.406.132-.011c.073-.006.133.003.133.021 0 .029-.095.363-.305 1.067l-.089.294h-.137-.137l-.073-.276-.116-.449c-.052-.211-.064-.192-.193.324l-.1.4h-.134c-.074 0-.142-.015-.153-.033a27.16 27.16 0 0 1-.411-1.33c0-.016.075-.023.166-.017l.166.01.119.407.132.419c.007.007.06-.175.117-.406l.105-.42.147-.01zm-4.054.003l.084.007.148.012.113.426c.062.235.122.404.133.374a12.28 12.28 0 0 0 .126-.421l.122-.385c.01-.009.072-.012.139-.006l.122.012-.2.675-.2.676h-.141-.141l-.115-.423-.129-.438c-.008-.008-.049.127-.091.299-.157.633-.131.58-.288.58-.076 0-.145-.011-.153-.026a20.21 20.21 0 0 1-.174-.548l-.229-.752c-.016-.053.007-.062.153-.062h.171l.122.426.137.413c.008-.008.046-.14.085-.294.121-.481.126-.546.205-.546zm1.92.001v.001.001.001h.085l.146.012.107.417.123.403c.009-.009.067-.197.131-.418l.116-.402.129-.012c.089-.008.13.004.129.036-.001.026-.087.335-.191.687l-.188.641-.143.009-.142.011-.079-.313c-.143-.577-.15-.599-.179-.544-.015.029-.072.232-.125.452l-.098.4h-.136c-.075 0-.144-.011-.152-.026a36.31 36.31 0 0 1-.415-1.343c0-.012.075-.018.167-.012l.167.012.112.374.129.426c.016.047.056-.082.208-.668.03-.114.038-.144.102-.147zm-9.585.867h.511.51v.221c0 .192.109.841.185 1.101.023.078-.007.104-.251.219l-.297.144c-.025.015-.24-.309-.354-.534a3.12 3.12 0 0 1-.276-.91zm1.303 0h.769.768v1.132l-.233.001c-.128.001-.368.027-.535.058l-.43.083c-.117.025-.131.017-.173-.11-.067-.202-.166-.795-.166-.992zm1.817 0h.789c.605 0 .789.012.788.051-.004.153-.088.696-.147.949-.077.33-.069.326-.458.228a4.56 4.56 0 0 0-.587-.086l-.364-.03zm1.877 0h.498.498l-.024.172a3.26 3.26 0 0 1-.301.98c-.086.178-.199.373-.25.433l-.092.108-.573-.298.073-.283a6.45 6.45 0 0 0 .123-.697zM19.501 5.94l-.01 1.425c-.249-.044-.593-.275-.805-.541-.136-.171-.398-.621-.398-.685 0-.036.585-.151.895-.175zm.283 0l.318.024c.392.03.894.142.894.198 0 .092-.269.539-.437.726-.098.109-.254.242-.346.296-.212.124-.374.185-.405.154-.013-.013-.024-1.397-.024-1.397zm-1.802.295c.012 0 .068.1.125.221s.186.331.285.465l.169.243c-.136-.012-.754-.407-.933-.597l-.114-.121.223-.106.245-.106zm3.362.02c.149.046.42.183.42.22 0 .02-.104.12-.232.221-.218.174-.778.499-.778.451a1.77 1.77 0 0 1 .161-.234c.088-.117.211-.318.271-.446.076-.159.11-.211.158-.213zm5.187.059zm.007.005c.086.09.665 1.366.85 1.7.047.085.098.152.112.147s.185-.401.24-.545c.007-.007.485.378.654.526.015 0 .129-.156.175-.212-.159-.129-.607-.538-.607-.554.143-.077.516-.309.511-.323-.009-.026-1.808-.677-1.935-.739z"/><path d="M24.117 13.913V6.135" fill="none" stroke="#000" stroke-width="1.743" stroke-linejoin="round"/></svg>